<svg width="302" height="65" viewBox="0 0 302 65" fill="none" xmlns="http://www.w3.org/2000/svg">
<path d="M21.793 1.2409C25.8784 1.2409 29.2826 1.70829 32.0055 2.643C34.7284 3.57771 36.9089 4.91793 38.5471 6.66367C40.2132 8.45957 41.4094 10.6451 42.0277 13.0231C42.7377 15.7391 43.0819 18.539 43.0511 21.3474V50.3376C41.0688 50.7755 38.3146 51.2906 34.7887 51.8826C31.2629 52.4747 26.9934 52.7707 21.9802 52.7707C19.0959 52.7971 16.217 52.5147 13.3919 51.9282C11.0217 51.4508 8.76617 50.5139 6.75067 49.1697C4.91202 47.9128 3.43784 46.1861 2.4791 44.1666C1.48895 42.1066 0.993896 39.5813 0.993896 36.5906C0.993896 33.7236 1.56643 31.2906 2.71155 29.2914C3.81802 27.3358 5.39883 25.695 7.30607 24.5225C9.34001 23.2905 11.5692 22.4202 13.896 21.9496C16.4304 21.4142 19.0134 21.1481 21.6029 21.1557C23.1988 21.1453 24.794 21.2225 26.3815 21.3869C27.5256 21.5001 28.659 21.7035 29.7716 21.9951V20.6873C29.7716 18.3191 29.0592 16.4173 27.6343 14.9817C26.2095 13.5462 23.7341 12.8295 20.2082 12.8316C17.8784 12.8309 15.5517 13.0027 13.2469 13.3455C11.2227 13.6238 9.23211 14.1099 7.30607 14.7963L5.54317 3.5736C6.34615 3.32421 7.35442 3.05965 8.56191 2.7768C9.76941 2.49395 11.0825 2.24762 12.5074 2.02864C13.9322 1.80966 15.4326 1.62411 17.0114 1.469C18.5902 1.31389 20.184 1.2409 21.793 1.2409ZM22.9069 42.0164C24.2694 42.0164 25.5695 41.985 26.8072 41.9221C27.8017 41.8844 28.7934 41.791 29.7776 41.6424V31.0736C29.2181 30.9479 28.382 30.8232 27.2691 30.6996C26.2529 30.5802 25.231 30.5173 24.208 30.511C22.9816 30.5066 21.7563 30.5849 20.5403 30.7451C19.4926 30.8731 18.4729 31.173 17.5215 31.6332C16.696 32.0336 15.9908 32.6476 15.4778 33.4124C14.9575 34.2513 14.6988 35.228 14.7352 36.2165C14.7352 38.4002 15.4627 39.9118 16.9178 40.7512C18.3728 41.5906 20.3692 42.0053 22.9069 41.9951V42.0164Z" fill="#0C4767"/>
<path d="M95.8641 0C96.9811 2.05799 98.2691 4.59856 99.7281 7.62167C101.187 10.6448 102.707 13.9183 104.286 17.4422C105.868 20.9641 107.435 24.5641 108.987 28.2421L113.361 38.6222C114.727 35.3781 116.185 31.9181 117.735 28.2421C119.285 24.5661 120.851 20.9662 122.435 17.4422C124.017 13.9203 125.537 10.6468 126.996 7.62167C128.455 4.59653 129.744 2.05596 130.86 0H144.04C144.66 4.30454 145.233 9.12105 145.758 14.4495C146.283 19.778 146.747 25.3264 147.15 31.0949C147.552 36.8654 147.923 42.6439 148.263 48.4306C148.604 54.2173 148.897 59.6725 149.145 64.7962H135.035C134.852 58.5006 134.605 51.6424 134.293 44.2214C133.981 36.8005 133.517 29.3198 132.901 21.7792C131.784 24.3968 130.542 27.2953 129.176 30.4745C127.809 33.6537 126.459 36.8339 125.125 40.0152C123.791 43.1924 122.503 46.2338 121.261 49.1393C120.019 52.0448 118.965 54.5225 118.097 56.5724H107.978C107.109 54.5164 106.053 52.0387 104.812 49.1393C103.57 46.2399 102.282 43.1985 100.948 40.0152C99.6134 36.8339 98.263 33.6537 96.8965 30.4745C95.53 27.2953 94.2893 24.3968 93.1744 21.7792C92.5525 29.3218 92.0877 36.8025 91.7798 44.2214C91.4719 51.6403 91.2243 58.4986 91.0372 64.7962H76.9276C77.1751 59.6867 77.4699 54.2315 77.812 48.4306C78.1541 42.6297 78.5254 36.8512 78.9259 31.0949C79.3284 25.3285 79.7923 19.78 80.3176 14.4495C80.8429 9.11902 81.4154 4.30251 82.0352 0H95.8641Z" fill="#0C4767"/>
<path d="M178.662 1.2409C182.748 1.2409 186.151 1.70829 188.872 2.643C191.593 3.57771 193.774 4.91793 195.416 6.66367C197.081 8.46033 198.277 10.6456 198.897 13.0231C199.604 15.7396 199.947 18.5392 199.917 21.3474V50.3376C197.937 50.7755 195.184 51.2906 191.658 51.8826C188.132 52.4747 183.862 52.7707 178.846 52.7707C175.963 52.7969 173.085 52.5145 170.261 51.9282C167.891 51.4508 165.635 50.5139 163.62 49.1697C161.781 47.9128 160.307 46.1861 159.348 44.1666C158.358 42.1066 157.863 39.5813 157.863 36.5906C157.863 33.7236 158.436 31.2906 159.581 29.2914C160.686 27.3352 162.267 25.6942 164.175 24.5225C166.209 23.2905 168.438 22.4202 170.765 21.9496C173.299 21.4144 175.881 21.1483 178.469 21.1557C180.066 21.1453 181.662 21.2224 183.251 21.3869C184.394 21.4998 185.526 21.7032 186.638 21.9951V20.6873C186.638 18.3191 185.926 16.4173 184.504 14.9817C183.081 13.5462 180.605 12.8295 177.077 12.8316C174.748 12.8309 172.421 13.0027 170.116 13.3455C168.092 13.6234 166.101 14.1096 164.175 14.7963L162.412 3.5736C163.217 3.32421 164.224 3.05863 165.431 2.7768C166.639 2.49497 167.954 2.24559 169.377 2.02864C170.798 1.8127 172.302 1.62411 173.878 1.469C175.453 1.31389 177.053 1.2409 178.662 1.2409ZM179.776 42.0164C181.139 42.0164 182.438 41.985 183.673 41.9221C184.668 41.8846 185.66 41.7912 186.644 41.6424V31.0736C186.088 30.9479 185.253 30.8232 184.138 30.6996C183.121 30.5802 182.098 30.5172 181.074 30.511C179.849 30.5067 178.625 30.585 177.41 30.7451C176.362 30.8731 175.342 31.173 174.391 31.6332C173.567 32.0346 172.863 32.6484 172.35 33.4124C171.83 34.2513 171.571 35.2281 171.607 36.2166C171.607 38.4002 172.335 39.9118 173.79 40.7512C175.245 41.5906 177.24 42.0053 179.776 41.9951V42.0164Z" fill="#0C4767"/>
<path d="M249.114 11.8857C247.997 13.1346 246.494 14.8186 244.604 16.9374C242.714 19.0562 240.683 21.3939 238.512 23.9507C236.338 26.5095 234.152 29.19 231.952 31.9921C229.753 34.7942 227.753 37.5071 225.954 40.1308H249.579V51.7275H209.197V43.5158C210.499 41.2713 212.062 38.8554 213.885 36.2682C215.708 33.681 217.626 31.0777 219.639 28.458C221.651 25.8384 223.648 23.2978 225.628 20.8364C227.608 18.3749 229.434 16.1446 231.104 14.1454H210.311V2.55174H249.111L249.114 11.8857Z" fill="#0C4767"/>
<path d="M255.148 27.5092C255.148 23.1458 255.813 19.3268 257.144 16.0523C258.331 12.9985 260.114 10.2155 262.387 7.86804C264.516 5.71275 267.065 4.02573 269.874 2.91365C272.634 1.8014 275.58 1.22954 278.553 1.22872C285.482 1.22872 290.958 3.36378 294.981 7.63385C299.004 11.9039 301.016 18.1894 301.018 26.4903C301.018 27.3023 300.985 28.1904 300.925 29.1576C300.864 30.1247 300.801 30.9824 300.74 31.7275H269.364C269.486 33.0924 269.908 34.4128 270.599 35.5936C271.29 36.7743 272.232 37.7859 273.357 38.5553C275.706 40.2362 278.862 41.0777 282.824 41.0797C285.331 41.0824 287.833 40.8472 290.296 40.3771C292.349 40.0258 294.358 39.4465 296.285 38.6496L298.141 49.9635C297.184 50.4194 296.19 50.7948 295.171 51.0857C293.812 51.4887 292.432 51.8167 291.038 52.0682C289.523 52.348 287.899 52.5821 286.166 52.7707C284.439 52.9564 282.704 53.0498 280.968 53.0505C276.572 53.0505 272.749 52.3955 269.496 51.0857C266.445 49.9113 263.687 48.0757 261.418 45.7086C259.263 43.4 257.646 40.6363 256.685 37.6187C255.639 34.3535 255.12 30.9402 255.148 27.5092ZM287.636 22.1777C287.574 21.0037 287.371 19.8415 287.032 18.7165C286.707 17.6238 286.171 16.6067 285.453 15.7239C284.713 14.8282 283.798 14.0962 282.764 13.5736C281.503 12.9727 280.118 12.6839 278.725 12.7312C277.352 12.6961 275.989 12.9682 274.734 13.528C273.668 14.0216 272.718 14.738 271.948 15.6296C271.193 16.5276 270.611 17.5588 270.23 18.671C269.832 19.8109 269.537 20.9845 269.348 22.1777H287.636Z" fill="#0C4767"/>
</svg>
