<svg width="212" height="244" viewBox="0 0 212 244" fill="#0c4767" xmlns="http://www.w3.org/2000/svg">
<path fill-rule="evenodd" clip-rule="evenodd" d="M98 114H160V130H98V114Z" />
<path fill-rule="evenodd" clip-rule="evenodd" d="M98.0001 154V90H114V154H98.0001Z" />
<path fill-rule="evenodd" clip-rule="evenodd" d="M63.3793 30.357L85.5722 68.5496L71.7382 76.5883L49.5453 38.3957L63.3793 30.357Z" />
<path fill-rule="evenodd" clip-rule="evenodd" d="M154.019 150.512L105.5 178.525L56.9812 150.512V130H40.9812V159.75L105.5 197L170.019 159.75V85.25L105.5 48L40.9812 85.25V114H56.9812V94.4876L105.5 66.4752L154.019 94.4876V150.512Z" />
<path fill-rule="evenodd" clip-rule="evenodd" d="M195.655 173.762L106 225.525L16.345 173.762V70.2376L106 18.4752L141.606 39.0325L149.728 25.2466L106 0L0.344971 61V183L106 244L211.655 183V61L163.585 33.2469L155.463 47.0328L195.655 70.2376V173.762Z" />
</svg>
