<svg width="105" height="90" viewBox="0 0 105 90" fill="#0C4767" xmlns="http://www.w3.org/2000/svg">
<g id="maze2">
<path d="M76.7846 87.8607H69.039V81.8856H72.7079C72.8959 81.8854 73.0805 81.8359 73.2433 81.7422C73.4061 81.6486 73.5414 81.5139 73.6356 81.3517L76.4133 76.5548L74.4994 75.5858L72.089 79.7424H43.0034V72.3632H48.7478V70.2264H37.3541L27.3219 52.9027L33.0637 49.4332L40.9201 63.0005C41.0142 63.163 41.1496 63.298 41.3127 63.3917C41.4758 63.4854 41.6608 63.5346 41.8491 63.5344H45.8216V61.3989H42.4679L33.1419 45.2923H57.9423V61.3989H52.2513V63.5396H62.0803C62.2683 63.5397 62.4531 63.4905 62.616 63.3967C62.7788 63.303 62.914 63.1681 63.0079 63.0057L73.1287 45.5326C73.2229 45.3703 73.2724 45.1861 73.2724 44.9987C73.2724 44.8112 73.2229 44.6271 73.1287 44.4648L69.65 38.4573L67.8429 39.6095L70.9699 44.9987L61.4731 61.3989H60.0973V40.1745H57.954V43.162H34.0422L37.0062 38.0416L35.1509 36.9739L30.8097 44.4687C30.7156 44.631 30.666 44.8151 30.666 45.0026C30.666 45.19 30.7156 45.3742 30.8097 45.5365L31.9966 47.5862L26.2561 51.0556L22.7501 45.0026L24.2653 42.3879L22.4087 41.3188L22.0283 41.9761L15.7431 38.0533L20.7671 29.3791L18.8675 28.3854L17.4343 30.8677L12.2149 27.9373L27.1369 2.13673H49.0254V0H26.5128C26.3244 6.23984e-06 26.1394 0.0494713 25.9763 0.143417C25.8133 0.237363 25.6779 0.372476 25.5838 0.535157L0.14368 44.4648C0.0495549 44.6271 0 44.8112 0 44.9987C0 45.1861 0.0495549 45.3703 0.14368 45.5326L25.5838 89.4635C25.6782 89.6259 25.8136 89.7607 25.9767 89.8544C26.1397 89.9481 26.3246 89.9974 26.5128 89.9974H48.7374V87.8607H27.1369L2.31429 44.9961L11.1257 29.7818L16.3464 32.7122L9.54792 44.4648C9.45379 44.6271 9.40424 44.8112 9.40424 44.9987C9.40424 45.1861 9.45379 45.3703 9.54792 45.5326L30.2925 81.3543C30.3866 81.5166 30.5218 81.6513 30.6846 81.745C30.8475 81.8387 31.0321 81.8881 31.2201 81.8882H33.1301V79.7515H31.8403L11.7146 44.9987L14.667 39.9004L20.9521 43.8232L20.5808 44.4648C20.4866 44.6271 20.4371 44.8112 20.4371 44.9987C20.4371 45.1861 20.4866 45.3703 20.5808 45.5326L35.8089 71.8293C35.9032 71.9917 36.0387 72.1264 36.2017 72.2201C36.3648 72.3138 36.5496 72.3632 36.7378 72.3632H40.8628V79.7515H39.5599V81.8882H66.8983V87.8633H55.1802V90H77.4061C77.5941 89.9999 77.7788 89.9505 77.9416 89.8568C78.1044 89.7631 78.2397 89.6284 78.3338 89.4661L88.9888 71.0668L87.0787 70.0914L76.7846 87.8607Z"/>
<path d="M104.01 44.7363L84.8663 11.5007L83.0079 12.5764L93.3101 30.4607L88.2347 33.6682L85.6683 29.2138L83.81 30.2882L92.4416 45.2735L81.2161 64.7615L74.7545 61.1109L83.5674 45.8107C83.6616 45.6474 83.7112 45.4621 83.7112 45.2735C83.7112 45.0848 83.6616 44.8995 83.5674 44.7363L68.3254 18.2764C68.2314 18.1128 68.0962 17.9769 67.9332 17.8824C67.7702 17.7879 67.5852 17.738 67.3969 17.7379H41.9792V10.3034H72.2963L80.5902 24.7032L82.4472 23.6275L73.8403 8.69186C73.7463 8.52835 73.611 8.39252 73.448 8.29799C73.285 8.20347 73.1001 8.15359 72.9118 8.15335H63.7155V2.14094H76.9988L79.7908 6.98747L81.6478 5.91177L78.5467 0.538503C78.4528 0.374907 78.3175 0.239001 78.1545 0.144465C77.9915 0.0499303 77.8065 0.000103186 77.6182 0H55.6602V2.15009H61.5703V8.1625H31.3914C31.203 8.1626 31.0181 8.21243 30.8551 8.30697C30.6921 8.4015 30.5568 8.53741 30.4629 8.701L22.2472 22.97L24.1472 23.9712L32.0147 10.3126H39.8392V17.7379H36.918C36.7295 17.7379 36.5443 17.7877 36.3811 17.8822C36.2179 17.9768 36.0824 18.1127 35.9882 18.2764L25.7891 35.9817L27.6474 37.0561L37.5323 19.8828H46.5069V26.6167H42.03C41.8416 26.6167 41.6566 26.6663 41.4934 26.7606C41.3302 26.8549 41.1946 26.9905 41.1002 27.1539L38.5377 31.5978L40.396 32.6722L42.6494 28.7707H58.1379V33.9675H60.2831V28.7707H61.6602L64.8213 34.2603L66.6301 33.1009L63.2082 27.1604C63.114 26.9972 62.9786 26.8616 62.8156 26.7673C62.6527 26.673 62.4679 26.6233 62.2797 26.6232H48.6521V19.8828H66.7787L81.4013 45.2682L66.7774 70.6589H55.372V72.809H67.3969C67.585 72.8089 67.7699 72.7592 67.9328 72.6649C68.0958 72.5706 68.2312 72.4351 68.3254 72.2718L73.6825 62.9735L80.1442 66.6241L77.9338 70.4655L79.8495 71.4405L94.609 45.8224C94.7032 45.6591 94.7528 45.4738 94.7528 45.2852C94.7528 45.0966 94.7032 44.9113 94.609 44.748L89.3079 35.5438L94.3834 32.335L101.843 45.2852L90.522 64.9393L92.4325 65.9209L104.01 45.8224C104.106 45.6577 104.157 45.4703 104.157 45.2793C104.157 45.0884 104.106 44.9009 104.01 44.7363Z"/>
</g>
</svg>
