<svg width="90" height="90" viewBox="0 0 90 90" fill="none" xmlns="http://www.w3.org/2000/svg">
<g id="maze1">
<path d="M19.0269 71.9955C19.0271 71.8611 19.0007 71.7281 18.9494 71.604C18.8981 71.4799 18.8228 71.3671 18.7278 71.2722C18.6329 71.1772 18.5201 71.1019 18.396 71.0506C18.2719 70.9993 18.1388 70.9729 18.0045 70.9731H2.04471V64.4096H8.83481V66.5727C8.83481 66.707 8.86126 66.8399 8.91263 66.9639C8.96401 67.088 9.03932 67.2007 9.13425 67.2956C9.22919 67.3905 9.34189 67.4659 9.46593 67.5172C9.58997 67.5686 9.72291 67.5951 9.85717 67.5951H12.6183V65.5503H10.8795V58.8496H18.7524V60.4864C18.7524 60.7576 18.8601 61.0176 19.0519 61.2093C19.2436 61.4011 19.5036 61.5088 19.7748 61.5088H28.4937V70.2265C28.4936 70.3608 28.5199 70.4938 28.5712 70.6179C28.6226 70.742 28.6979 70.8548 28.7928 70.9498C28.8878 71.0447 29.0006 71.12 29.1247 71.1713C29.2488 71.2227 29.3818 71.249 29.5161 71.2488H60.4864C60.6207 71.249 60.7537 71.2227 60.8779 71.1713C61.002 71.12 61.1147 71.0447 61.2097 70.9498C61.3047 70.8548 61.38 70.742 61.4313 70.6179C61.4826 70.4938 61.5089 70.3608 61.5088 70.2265V61.5075H62.4782V59.4628H60.4864C60.2153 59.4628 59.9552 59.5705 59.7635 59.7622C59.5718 59.954 59.4641 60.214 59.4641 60.4851V69.2029H38.9112V62.7603H55.279C55.5501 62.7603 55.8101 62.6526 56.0019 62.4608C56.1936 62.2691 56.3013 62.0091 56.3013 61.7379V56.2963H61.743C62.0141 56.2963 62.2741 56.1886 62.4659 55.9968C62.6576 55.8051 62.7653 55.5451 62.7653 55.2739V34.7261C62.7653 34.4549 62.6576 34.1949 62.4659 34.0032C62.2741 33.8114 62.0141 33.7037 61.743 33.7037H56.2963V28.2621C56.2963 27.9909 56.1886 27.7309 55.9968 27.5392C55.8051 27.3474 55.5451 27.2397 55.2739 27.2397H52.0004V20.7971H59.4641V29.5136C59.4644 29.7846 59.5722 30.0445 59.7639 30.2361C59.9555 30.4278 60.2154 30.5356 60.4864 30.5359H69.2054V42.7966H71.2501V29.5136C71.2503 29.3793 71.2239 29.2463 71.1726 29.1221C71.1213 28.998 71.046 28.8853 70.951 28.7903C70.8561 28.6953 70.7433 28.62 70.6192 28.5687C70.4951 28.5174 70.3621 28.4911 70.2278 28.4912H61.5063V19.7748C61.5064 19.6405 61.4801 19.5074 61.4288 19.3833C61.3774 19.2592 61.3022 19.1465 61.2072 19.0515C61.1122 18.9565 60.9994 18.8812 60.8753 18.8299C60.7512 18.7786 60.6182 18.7522 60.4839 18.7524H36.9962V10.8795H65.5491V13.9692H67.5938V9.85717C67.594 9.72286 67.5676 9.58985 67.5163 9.46573C67.465 9.34162 67.3897 9.22885 67.2947 9.13388C67.1998 9.03892 67.087 8.96361 66.9629 8.9123C66.8388 8.86098 66.7058 8.83464 66.5714 8.83481H28.5479V2.04471H34.9527V0H18.0045C17.7334 0 17.4733 0.107712 17.2816 0.299441C17.0899 0.49117 16.9822 0.751211 16.9822 1.02236V16.9822H1.02236C0.751211 16.9822 0.49117 17.0899 0.299441 17.2816C0.107712 17.4733 0 17.7334 0 18.0045V33.8913H2.04471V19.0269H18.0045C18.1388 19.0271 18.2719 19.0007 18.396 18.9494C18.5201 18.8981 18.6329 18.8228 18.7278 18.7278C18.8228 18.6329 18.8981 18.5201 18.9494 18.396C19.0007 18.2719 19.0271 18.1388 19.0269 18.0045V2.04471H26.5019V8.83481H23.4286C23.2943 8.83464 23.1612 8.86098 23.0371 8.9123C22.913 8.96361 22.8002 9.03892 22.7053 9.13388C22.6103 9.22885 22.535 9.34162 22.4837 9.46573C22.4324 9.58985 22.406 9.72286 22.4062 9.85717V22.4062H9.85717C9.72286 22.406 9.58985 22.4324 9.46573 22.4837C9.34162 22.535 9.22885 22.6103 9.13388 22.7053C9.03892 22.8002 8.96362 22.913 8.9123 23.0371C8.86098 23.1612 8.83465 23.2943 8.83481 23.4286V49.7718H10.8795V24.4509H23.4286C23.6996 24.4506 23.9594 24.3428 24.1511 24.1511C24.3428 23.9594 24.4506 23.6996 24.4509 23.4286V10.8795H34.9515V18.7524H29.5136C29.3793 18.7522 29.2463 18.7786 29.1222 18.8299C28.998 18.8812 28.8853 18.9565 28.7903 19.0515C28.6953 19.1465 28.62 19.2592 28.5687 19.3833C28.5174 19.5074 28.4911 19.6405 28.4912 19.7748V28.4937H27.5218V30.5385H29.5136C29.7846 30.5381 30.0445 30.4303 30.2361 30.2386C30.4278 30.047 30.5356 29.7871 30.5359 29.5161V20.7971H49.9506V27.2397H34.7261C34.4549 27.2397 34.1949 27.3474 34.0032 27.5392C33.8114 27.7309 33.7037 27.9909 33.7037 28.2621V33.7037H28.2621C27.9909 33.7037 27.7309 33.8114 27.5392 34.0032C27.3474 34.1949 27.2397 34.4549 27.2397 34.7261V40.6625H29.2844V35.7522H34.7261C34.9971 35.7519 35.257 35.6441 35.4486 35.4524C35.6403 35.2608 35.7481 35.0009 35.7484 34.7299V29.2844H39.5861V35.9738H40.0897C39.8185 35.9738 39.5585 36.0815 39.3668 36.2733C39.175 36.465 39.0673 36.725 39.0673 36.9962V39.0648H36.9962C36.8619 39.0646 36.7288 39.091 36.6047 39.1423C36.4806 39.1936 36.3679 39.2689 36.2729 39.3639C36.1779 39.4588 36.1026 39.5716 36.0513 39.6957C36 39.8198 35.9736 39.9529 35.9738 40.0872V49.9078C35.9736 50.0421 36 50.1751 36.0513 50.2992C36.1026 50.4233 36.1779 50.5361 36.2729 50.6311C36.3679 50.7261 36.4806 50.8014 36.6047 50.8527C36.7288 50.904 36.8619 50.9303 36.9962 50.9302H39.0648V52.9988C39.0646 53.1331 39.091 53.2661 39.1423 53.3902C39.1936 53.5143 39.2689 53.6271 39.3639 53.7221C39.4588 53.817 39.5716 53.8923 39.6957 53.9437C39.8198 53.995 39.9529 54.0213 40.0872 54.0212H49.9078C50.0421 54.0213 50.1751 53.995 50.2992 53.9437C50.4234 53.8923 50.5361 53.817 50.6311 53.7221C50.7261 53.6271 50.8014 53.5143 50.8527 53.3902C50.904 53.2661 50.9303 53.1331 50.9302 52.9988V50.9352H52.9988C53.2699 50.9352 53.53 50.8275 53.7217 50.6358C53.9134 50.444 54.0212 50.184 54.0212 49.9128V40.0897C54.0212 39.8185 53.9134 39.5585 53.7217 39.3668C53.53 39.175 53.2699 39.0673 52.9988 39.0673H50.9352V36.9962C50.9352 36.725 50.8275 36.465 50.6358 36.2733C50.444 36.0815 50.184 35.9738 49.9128 35.9738H48.0671V38.0185H48.8905V40.0897C48.8915 40.3598 48.9993 40.6187 49.1903 40.8097C49.3813 41.0007 49.6402 41.1085 49.9103 41.1095H51.979V48.8905H49.9103C49.6402 48.8915 49.3813 48.9993 49.1903 49.1903C48.9993 49.3813 48.8915 49.6402 48.8905 49.9103V51.979H41.1095V49.9103C41.1085 49.6402 41.0008 49.3813 40.8097 49.1903C40.6187 48.9993 40.3598 48.8915 40.0897 48.8905H38.0185V41.1095H40.0897C40.3598 41.1085 40.6187 41.0007 40.8097 40.8097C41.0008 40.6187 41.1085 40.3598 41.1095 40.0897V38.0185H41.9329V35.9738H41.6308V29.2844H54.2516V34.7261C54.2519 34.9971 54.3597 35.257 54.5514 35.4486C54.743 35.6403 55.0029 35.7481 55.2739 35.7484H60.7156V54.2566H55.2739C55.0029 54.2569 54.743 54.3647 54.5514 54.5564C54.3597 54.7481 54.2519 55.0079 54.2516 55.2789V60.7206H35.7434V55.2739C35.7431 55.0029 35.6353 54.743 35.4436 54.5514C35.2519 54.3597 34.9921 54.2519 34.7211 54.2516H29.2844V46.7967H27.2397V55.2739C27.2397 55.5451 27.3474 55.8051 27.5392 55.9968C27.7309 56.1886 27.9909 56.2963 28.2621 56.2963H33.7037V61.7379C33.7037 62.0091 33.8114 62.2691 34.0032 62.4608C34.1949 62.6526 34.4549 62.7603 34.7261 62.7603H36.8665V69.2029H30.5385V60.4864C30.5385 60.2153 30.4307 59.9552 30.239 59.7635C30.0473 59.5718 29.7872 59.4641 29.5161 59.4641H20.7971V30.5385H21.3901V28.4937H19.7748C19.6405 28.4936 19.5074 28.5199 19.3833 28.5712C19.2592 28.6225 19.1465 28.6978 19.0515 28.7928C18.9565 28.8878 18.8812 29.0006 18.8299 29.1247C18.7786 29.2488 18.7522 29.3818 18.7524 29.5161V56.8024H10.8795V55.906H8.83481V62.3649H2.04471V40.0255H0V71.9955C0 72.2666 0.107712 72.5267 0.299441 72.7184C0.49117 72.9101 0.751211 73.0178 1.02236 73.0178H16.9822V88.9776C16.9822 89.2488 17.0899 89.5088 17.2816 89.7005C17.4733 89.8923 17.7334 90 18.0045 90H48.9144V87.9553H19.0269V71.9955Z" fill="#0C4767"/>
<path d="M87.9553 70.9731H71.9955C71.8612 70.9729 71.7282 70.9993 71.6041 71.0506C71.48 71.1019 71.3672 71.1772 71.2722 71.2722C71.1773 71.3671 71.102 71.4799 71.0506 71.604C70.9993 71.7281 70.973 71.8612 70.9732 71.9955V87.9553H55.0486V90H71.9955C72.2667 90 72.5267 89.8923 72.7184 89.7006C72.9102 89.5088 73.0179 89.2488 73.0179 88.9776V73.0178H88.9777C89.2488 73.0178 89.5089 72.9101 89.7006 72.7184C89.8923 72.5266 90.0001 72.2666 90.0001 71.9955V63.2374H87.9553V70.9731Z" fill="#0C4767"/>
<path d="M88.9777 16.9822H73.0179V1.02236C73.0179 0.751211 72.9102 0.49117 72.7184 0.299441C72.5267 0.107712 72.2666 0 71.9955 0H41.0856V2.04471H70.9731V18.0045C70.973 18.1388 70.9993 18.2719 71.0506 18.396C71.1019 18.5201 71.1772 18.6329 71.2722 18.7278C71.3672 18.8228 71.48 18.8981 71.6041 18.9494C71.7282 19.0007 71.8612 19.0271 71.9955 19.0269H87.9553V57.1033H90V18.0045C90 17.7334 89.8923 17.4733 89.7006 17.2816C89.5089 17.0899 89.2488 16.9822 88.9777 16.9822Z" fill="#0C4767"/>
<path d="M71.2476 60.4865V48.9308H69.2028V59.4629H68.6098V61.5076H70.2252C70.4961 61.5076 70.756 61.4 70.9477 61.2086C71.1394 61.0171 71.2472 60.7574 71.2476 60.4865Z" fill="#0C4767"/>
<path d="M23.4286 81.1651H66.5715C66.7058 81.1653 66.8388 81.139 66.9629 81.0877C67.087 81.0363 67.1998 80.961 67.2947 80.8661C67.3897 80.7711 67.465 80.6583 67.5163 80.5342C67.5676 80.4101 67.594 80.2771 67.5938 80.1428V67.595H80.1428C80.414 67.595 80.674 67.4873 80.8657 67.2956C81.0575 67.1038 81.1652 66.8438 81.1652 66.5727V38.4956H79.1205V65.5503H66.5715C66.3003 65.5503 66.0403 65.658 65.8485 65.8497C65.6568 66.0415 65.5491 66.3015 65.5491 66.5727V79.1204H24.4509V66.5727C24.4509 66.3015 24.3432 66.0415 24.1515 65.8497C23.9598 65.658 23.6997 65.5503 23.4286 65.5503H18.7524V67.595H22.4037V80.1428C22.4035 80.2773 22.43 80.4105 22.4814 80.5348C22.5329 80.6591 22.6084 80.772 22.7037 80.867C22.7989 80.962 22.912 81.0372 23.0364 81.0884C23.1608 81.1396 23.2941 81.1656 23.4286 81.1651Z" fill="#0C4767"/>
<path d="M81.1652 23.4286C81.1653 23.2943 81.139 23.1613 81.0877 23.0371C81.0364 22.913 80.9611 22.8003 80.8661 22.7053C80.7711 22.6103 80.6584 22.535 80.5342 22.4837C80.4101 22.4324 80.2771 22.4061 80.1428 22.4062H67.5938V20.1034H65.549V23.4286C65.5494 23.6996 65.6572 23.9595 65.8489 24.1511C66.0405 24.3428 66.3004 24.4506 66.5714 24.4509H79.1204V32.3666H81.1652V23.4286Z" fill="#0C4767"/>
</g>
</svg>
