<svg width="91" height="90" viewBox="0 0 91 90" fill="none" xmlns="http://www.w3.org/2000/svg">
<g id="maze4">
<path d="M2.18869 38.0733H8.78059V80.1251C8.78059 80.4139 8.89532 80.6908 9.09953 80.895C9.30374 81.0993 9.58069 81.214 9.86948 81.214H29.2314V79.028H10.972V38.0733H17.5653V45.7908H19.754V19.7512H40.281V26.3431H27.4416C27.1528 26.3431 26.8758 26.4579 26.6716 26.6621C26.4674 26.8663 26.3527 27.1432 26.3527 27.432V62.5585C26.3527 62.8473 26.4674 63.1242 26.6716 63.3284C26.8758 63.5326 27.1528 63.6474 27.4416 63.6474H33.813V61.4696H28.5304V44.5019H35.1237V53.7806C35.1237 54.0694 35.2384 54.3464 35.4426 54.5506C35.6469 54.7548 35.9238 54.8695 36.2126 54.8695H53.771C54.0598 54.8695 54.3368 54.7548 54.541 54.5506C54.7452 54.3464 54.8599 54.0694 54.8599 53.7806V49.9695H52.6713V52.6822H37.3138V37.3138H41.0078V35.1251H36.2194C35.9306 35.1251 35.6537 35.2398 35.4495 35.444C35.2453 35.6482 35.1305 35.9252 35.1305 36.214V42.3077H28.5304V28.5305H49.7639V26.3431H42.4683V19.7512H45V17.5626H18.6569C18.3681 17.5626 18.0911 17.6773 17.8869 17.8815C17.6827 18.0857 17.568 18.3627 17.568 18.6515V35.8805H10.972V34.2635H8.78059V35.8805H2.18869V2.18871H23.5107V3.32305e-05H1.09435C0.805553 3.32305e-05 0.528603 0.114755 0.324396 0.318963C0.120188 0.52317 0.0054498 0.800136 0.0054498 1.08893V41.717H2.19414L2.18869 38.0733Z" fill="#0C4767"/>
<path d="M88.9057 3.07307e-05H30.0767V2.18871H73.3521V8.78061H9.87493C9.58614 8.78061 9.30919 8.89534 9.10498 9.09955C8.90077 9.30375 8.78604 9.58072 8.78604 9.86951V27.6975H10.972V10.972H52.9503V17.5653H51.5688V19.7512H70.2488V27.9724H63.6569V27.4416C63.6569 27.1528 63.5421 26.8758 63.3379 26.6716C63.1337 26.4674 62.8568 26.3527 62.568 26.3527H56.334V28.5305H61.4696V36.9204H54.8763V36.2181C54.8763 35.9293 54.7616 35.6523 54.5573 35.4481C54.3531 35.2439 54.0762 35.1292 53.7874 35.1292H47.5807V37.3179H52.6931V43.4075H54.8817V39.1105H61.4696V61.4696H40.3722V63.6582H42.2206V70.2488H19.7512V52.3569H17.5625V71.3431C17.5625 71.6319 17.6773 71.9089 17.8815 72.1131C18.0857 72.3173 18.3626 72.432 18.6514 72.432H45.0721V79.028H35.7975V81.2194H57.0037V87.8113H2.18869V48.283H0V88.9057C0 89.1945 0.114738 89.4714 0.318946 89.6756C0.523154 89.8798 0.800103 89.9946 1.0889 89.9946H65.866V87.8113H59.1965V81.2194H80.1237C80.4125 81.2194 80.6894 81.1047 80.8937 80.9005C81.0979 80.6963 81.2126 80.4193 81.2126 80.1305V31.676H79.028V79.028H47.2663V72.4375H54.0419V70.2488H44.412V63.6569H62.5584C62.8472 63.6569 63.1242 63.5422 63.3284 63.338C63.5326 63.1338 63.6473 62.8568 63.6473 62.568V30.1638H70.2392V70.2488H60.5998V72.4375H71.3336C71.6224 72.4375 71.8994 72.3228 72.1036 72.1185C72.3078 71.9143 72.4225 71.6374 72.4225 71.3486V18.6569C72.4225 18.3681 72.3078 18.0911 72.1036 17.8869C71.8994 17.6827 71.6224 17.568 71.3336 17.568H55.1376V10.972H79.028V25.11H81.2167V9.87496C81.2167 9.58616 81.102 9.3092 80.8977 9.10499C80.6935 8.90078 80.4166 8.78606 80.1278 8.78606H75.5435V2.18871H87.814V10.9965H90.0027V1.09437C90.0034 0.950227 89.9755 0.807375 89.9206 0.674098C89.8657 0.540821 89.7849 0.419773 89.6828 0.317974C89.5808 0.216174 89.4595 0.135652 89.3261 0.0810736C89.1927 0.0264952 89.0498 -0.00105218 88.9057 3.07307e-05Z" fill="#0C4767"/>
<path d="M87.8113 87.8113H72.4307V90H88.9002C89.189 90 89.466 89.8853 89.6702 89.6811C89.8744 89.4769 89.9891 89.1999 89.9891 88.9111V17.5626H87.8004L87.8113 87.8113Z" fill="#0C4767"/>
</g>
</svg>
