<svg width="91" height="90" viewBox="0 0 91 90" fill="#0C4767" xmlns="http://www.w3.org/2000/svg">
<g id="maze3">
<path d="M87.9049 47.6951C87.3159 57.1576 83.6053 66.157 77.3549 73.2828L73.5523 69.8801C77.4376 65.4265 80.2267 60.1245 81.6962 54.3988C83.1658 48.673 83.275 42.6825 82.0151 36.907L80.0428 37.6823C81.1071 42.8063 81.0405 48.1009 79.8477 53.1965L75.2249 51.678C75.7091 49.484 75.9529 47.2437 75.9521 44.9968C75.9521 27.9229 62.0696 14.0332 45.0045 14.0332H44.9115L45.277 16.128C48.5236 16.1557 51.742 16.7343 54.7951 17.839L53.3239 21.6061C50.6531 20.6496 47.8374 20.1608 45.0006 20.1613C31.3093 20.1613 20.1779 31.3022 20.1779 44.9968C20.1812 49.4207 21.3645 53.7635 23.6059 57.577C25.8472 61.3904 29.0652 64.5361 32.9277 66.6894L31.2654 70.3802C30.3544 69.8841 29.4705 69.3397 28.6175 68.7493L27.3052 70.3841C29.3889 71.8442 31.6448 73.0413 34.0217 73.9483L32.6629 78.6187C18.9832 73.5787 9.20033 60.4101 9.20033 44.9968C9.19546 40.1506 10.1791 35.3543 12.091 30.9016L10.2698 29.8484C7.0402 37.2644 6.26581 45.5194 8.05982 53.4071L3.1516 54.8183C2.60268 52.4789 2.25184 50.0974 2.10279 47.699H0C0.653964 58.6336 5.2631 68.9564 12.9669 76.74C20.6707 84.5237 30.9425 89.2361 41.8645 89.9974V87.9013C23.6525 86.5806 8.54806 73.854 3.67213 56.8433L8.58035 55.4386C13.1217 71.281 27.7315 82.9065 45.0045 82.9065C51.3057 82.9145 57.5081 81.3402 63.0435 78.3279L61.9973 76.5187C57.8467 78.7596 53.2942 80.1574 48.6017 80.6315C43.9092 81.1057 39.1693 80.6469 34.6546 79.2816L36.0083 74.6293C38.9235 75.5152 41.9539 75.9638 45.0006 75.9604C55.7212 75.9604 65.1954 70.4707 70.7507 62.1534L68.9424 61.1054C63.7526 68.7998 54.9605 73.8682 45.0058 73.8682C40.9147 73.8725 36.87 73.001 33.1434 71.312L34.7967 67.6354C38.0026 69.0871 41.4817 69.8361 45.0006 69.8323C58.692 69.8323 69.8233 58.6913 69.8233 44.9968C69.8272 38.6835 67.4194 32.6074 63.0926 28.012L61.7454 29.6339C65.5995 33.8204 67.7373 39.305 67.7334 44.9968C67.7334 57.5321 57.5295 67.7414 45.0006 67.7414C32.4718 67.7414 22.2678 57.5321 22.2678 44.9968C22.2678 32.4614 32.4718 22.2522 45.0006 22.2522C49.2079 22.2472 53.333 23.4181 56.9108 25.6329L58.2593 24.0098C57.2987 23.4 56.2975 22.8568 55.2627 22.384L56.7313 18.6221C66.806 23.1284 73.8571 33.2523 73.8571 44.9955C73.8627 48.6071 73.1874 52.1873 71.8667 55.5485L73.6944 56.6043C74.0791 55.6565 74.4157 54.6899 74.7031 53.7082L79.2703 55.2073L79.6023 54.1941C77.6093 61.6417 73.2729 68.2495 67.2349 73.0398L68.2914 74.8697C69.6553 73.8027 70.9452 72.6443 72.1521 71.4025L75.9573 74.8077C68.6201 82.4626 58.709 87.1272 48.1367 87.9013V90C59.0598 89.2385 69.3325 84.5252 77.0364 76.7402C84.7403 68.9552 89.3488 58.6309 90.0013 47.6951H87.9049Z" />
<path d="M18.2638 11.34L21.4528 15.3306C18.2607 17.8722 15.4964 20.9093 13.2652 24.3263L15.0734 25.3731C19.0369 19.3406 24.721 14.6392 31.3881 11.8789L33.0156 16.451C21.8868 21.146 14.053 32.1732 14.053 44.9968C14.0479 52.9215 17.0902 60.5445 22.5494 66.2862L23.8721 64.6398C18.9009 59.3087 16.1387 52.2877 16.1442 44.9968C16.1442 31.1303 25.9607 19.5177 39.0139 16.7521L38.6536 14.6845C37.406 14.9453 36.176 15.2845 34.9711 15.7002L33.3449 11.1384C36.1017 10.188 38.9648 9.58036 41.8698 9.32915V7.22528C38.46 7.5058 35.1045 8.25013 31.8957 9.4377L30.6803 9.87063L30.6919 9.90552C27.6754 11.1428 24.831 12.7642 22.2291 14.7297L23.0971 14.0357L19.9339 10.0774C26.362 5.43132 33.9554 2.66649 41.8646 2.09224V0C33.4727 0.560481 25.4095 3.48073 18.6035 8.42454L18.5802 8.39481L17.7575 9.05389C16.123 10.2985 14.5746 11.6525 13.1231 13.1066C5.51621 20.6733 0.880035 30.7228 0.0594482 41.4235H2.15964C3.16453 29.2655 9.2404 18.5291 18.2638 11.34Z"/>
<path d="M87.8416 41.4197H89.9418C89.0847 30.6514 84.3938 20.5484 76.7221 12.9474C69.0504 5.34648 58.9073 0.752244 48.1367 0V2.09224C69.2007 3.62362 86.1044 20.4029 87.8416 41.4197Z"/>
<path d="M45.0007 29.0833C45.9187 29.0848 46.8349 29.1657 47.739 29.3249L48.5269 27.3412C47.3658 27.1094 46.1847 26.9925 45.0007 26.9923C35.0783 26.9923 27.0056 35.0692 27.0056 44.9967C27.0056 54.9242 35.0783 63.0011 45.0007 63.0011C54.923 63.0011 62.9958 54.9242 62.9958 44.9967C62.9942 41.9103 62.1999 38.876 60.689 36.1851C59.1781 33.4942 57.0014 31.2369 54.3676 29.6299L53.581 31.6084C56.796 33.6766 59.158 36.8351 60.2338 40.5046C61.3096 44.1742 61.0271 48.1088 59.4381 51.5868C57.8491 55.0648 55.0602 57.8531 51.5828 59.4403C48.1053 61.0274 44.1726 61.3071 40.5058 60.228C36.8389 59.1488 33.6839 56.7833 31.6192 53.5651C29.5545 50.3469 28.7186 46.4918 29.2649 42.7069C29.8111 38.922 31.7029 35.461 34.5932 32.9587C37.4835 30.4564 41.1785 29.0804 45.0007 29.0833Z"/>
<path d="M78.2177 31.6576L80.1642 30.8952C74.933 17.883 62.6883 8.42071 48.1316 7.22275V9.3292C61.8023 10.5155 73.2875 19.4234 78.2177 31.6576Z"/>
</g>
</svg>
