<svg width="239" height="239" viewBox="0 0 239 239" fill="#0c4767" xmlns="http://www.w3.org/2000/svg">
<path fill-rule="evenodd" clip-rule="evenodd" d="M126.488 102.984C132.487 105.799 136.642 111.894 136.642 118.96C136.642 128.701 128.746 136.597 119.005 136.597C109.265 136.597 101.368 128.701 101.368 118.96C101.368 112.308 105.05 106.517 110.488 103.512V86.4109C96.0348 90.1824 85.3683 103.326 85.3683 118.96C85.3683 137.537 100.428 152.597 119.005 152.597C137.582 152.597 152.642 137.537 152.642 118.96C152.642 102.955 141.463 89.5603 126.488 86.1584V102.984Z" />
<path fill-rule="evenodd" clip-rule="evenodd" d="M125.97 9.76967V53.2388H109.97V9.76967H125.97ZM144.362 110.442H185.761V126.442H144.362V110.442Z" />
<path fill-rule="evenodd" clip-rule="evenodd" d="M119.523 58.8889C152.985 58.8889 180.111 86.0153 180.111 119.477C180.111 152.94 152.985 180.066 119.523 180.066C107.006 180.066 95.3762 176.271 85.7207 169.768L74.2382 181.25C86.9221 190.564 102.58 196.066 119.523 196.066C161.821 196.066 196.111 161.776 196.111 119.477C196.111 77.1788 161.821 42.8889 119.523 42.8889C77.224 42.8889 42.9342 77.1788 42.9342 119.477C42.9342 139.065 50.2872 156.935 62.3835 170.478L73.7201 159.141C64.5084 148.513 58.9342 134.646 58.9342 119.477C58.9342 86.0153 86.0606 58.8889 119.523 58.8889Z" />
<path fill-rule="evenodd" clip-rule="evenodd" d="M222.239 111.478C218.157 58.3183 173.728 16.4548 119.523 16.4548C62.6248 16.4548 16.5 62.5796 16.5 119.477C16.5 176.375 62.6248 222.5 119.523 222.5C173.728 222.5 218.156 180.637 222.239 127.478H238.281C234.166 189.482 182.569 238.5 119.523 238.5C53.7882 238.5 0.5 185.212 0.5 119.477C0.5 53.7431 53.7882 0.454834 119.523 0.454834C182.569 0.454834 234.166 49.4735 238.281 111.478H222.239Z" />
</svg>
