<svg width="273" height="233" viewBox="0 0 273 233" fill="#0c4767" xmlns="http://www.w3.org/2000/svg">
<path fill-rule="evenodd" clip-rule="evenodd" d="M0.978516 0.5H272.094L244.809 47.0172L244.807 47.0204L135.787 232.885L0.978516 0.5ZM157.814 165.697L186.341 117.113H149.981V102.113H195.144L225.251 50.7258H185.174V35.7258H234.042L245.906 15.5H167.229L151.644 42.5392L185.259 84.5968H113.434V69.5968H154.067L133.539 43.9124L149.915 15.5H27.0214L38.7546 35.7258H120.312V50.7258H89.5542L105.373 80.1516L92.1606 87.2539L72.5242 50.7258H47.4563L77.2665 102.113H124.092L157.814 165.697ZM85.9681 117.113L135.859 203.115L148.894 180.893L115.068 117.113H85.9681Z"/>
</svg>
