<svg width="104" height="90" viewBox="0 0 104 90" fill="none" xmlns="http://www.w3.org/2000/svg">
<g id="maze5">
<path d="M5.59469 82.7055H13.6007C13.9048 82.7055 14.1965 82.5847 14.4116 82.3696C14.6266 82.1546 14.7475 81.8629 14.7475 81.5587C14.7475 81.2545 14.6266 80.9628 14.4116 80.7478C14.1965 80.5327 13.9048 80.4119 13.6007 80.4119H7.57094L14.3448 68.5612H22.5082C22.8061 68.5516 23.0886 68.4265 23.2959 68.2123C23.5032 67.9982 23.6191 67.7118 23.6191 67.4138C23.6191 67.1158 23.5032 66.8294 23.2959 66.6153C23.0886 66.4011 22.8061 66.276 22.5082 66.2664H15.6563L22.2161 54.7884L29.7292 68.0696C29.8295 68.2462 29.9748 68.393 30.1502 68.4952C30.3257 68.5974 30.5251 68.6513 30.7282 68.6514H38.5923L45.7172 80.4119H39.7944L36.2206 74.0526C36.0715 73.7873 35.8232 73.5921 35.5303 73.51C35.2373 73.4278 34.9237 73.4654 34.6584 73.6144C34.3932 73.7635 34.198 74.0118 34.1158 74.3047C34.0337 74.5977 34.0712 74.9113 34.2203 75.1766L37.163 80.4119H30.7318C30.4276 80.4119 30.1359 80.5327 29.9209 80.7478C29.7058 80.9628 29.585 81.2545 29.585 81.5587C29.585 81.8629 29.7058 82.1546 29.9209 82.3696C30.1359 82.5847 30.4276 82.7055 30.7318 82.7055H47.7571C47.9609 82.7061 48.1612 82.6524 48.3373 82.5497C48.5134 82.4471 48.659 82.2994 48.7589 82.1218C48.8589 81.9441 48.9096 81.743 48.906 81.5393C48.9023 81.3355 48.8443 81.1363 48.738 80.9624L40.2236 66.9095C40.1212 66.7409 39.9773 66.6015 39.8055 66.5046C39.6337 66.4078 39.4399 66.3568 39.2426 66.3565H31.3953L23.6719 52.7039C23.6298 52.6308 23.5802 52.5623 23.524 52.4995L26.5713 47.1825L29.7268 52.9527C29.825 53.1342 29.9703 53.2857 30.1473 53.3915C30.3244 53.4973 30.5267 53.5534 30.733 53.5538H39.1236C39.3242 53.554 39.5213 53.5015 39.6953 53.4017C39.8693 53.3019 40.014 53.1582 40.1151 52.985C40.2162 52.8118 40.2701 52.6151 40.2714 52.4145C40.2727 52.2139 40.2214 52.0165 40.1226 51.842L36.2194 44.9381C36.0697 44.6733 35.821 44.4789 35.5279 44.3975C35.2348 44.3161 34.9214 44.3545 34.6566 44.5042C34.3919 44.6538 34.1974 44.9026 34.116 45.1957C34.0346 45.4887 34.073 45.8021 34.2227 46.0669L37.1498 51.2505H31.4074L27.9573 44.9429C27.9392 44.9098 27.9191 44.8776 27.8972 44.8468L31.0912 39.258H38.864L42.772 46.0645C42.847 46.1952 42.947 46.3097 43.0662 46.4017C43.1855 46.4937 43.3217 46.5613 43.4671 46.6007C43.6125 46.64 43.7642 46.6504 43.9136 46.6311C44.063 46.6118 44.2071 46.5633 44.3377 46.4883C44.4684 46.4133 44.583 46.3133 44.675 46.194C44.7669 46.0748 44.8345 45.9385 44.8739 45.7931C44.9132 45.6478 44.9236 45.496 44.9043 45.3466C44.885 45.1973 44.8365 45.0531 44.7615 44.9225L40.845 38.1016L44.3047 31.8758H51.8238L58.9992 45.4719L54.8639 52.6991C54.7638 52.8732 54.7112 53.0705 54.7112 53.2713C54.7112 53.4721 54.7638 53.6694 54.8639 53.8435L58.35 59.877C58.436 60.0239 58.5534 60.1499 58.6938 60.2461L54.8591 66.8374C54.758 67.0118 54.7046 67.2097 54.7043 67.4113C54.7039 67.6129 54.7567 67.811 54.8572 67.9857C54.9577 68.1604 55.1025 68.3056 55.2769 68.4066C55.4513 68.5077 55.6493 68.561 55.8509 68.5612H72.2235L75.7949 74.7438L71.9987 81.1488C71.9191 81.2784 71.8661 81.4225 71.8428 81.5728C71.8195 81.7231 71.8263 81.8765 71.8628 82.0241C71.8993 82.1718 71.9648 82.3107 72.0555 82.4327C72.1462 82.5548 72.2603 82.6576 72.3911 82.7352C72.5219 82.8127 72.6669 82.8635 72.8175 82.8845C72.9681 82.9056 73.1214 82.8964 73.2685 82.8576C73.4155 82.8189 73.5534 82.7512 73.674 82.6586C73.7947 82.5661 73.8958 82.4504 73.9713 82.3184L77.7808 75.8979H85.2121L89.1202 82.7043C89.2716 82.9681 89.5216 83.161 89.8153 83.2405C90.1089 83.32 90.4221 83.2795 90.6859 83.1281C90.9497 82.9766 91.1426 82.7266 91.222 82.433C91.3015 82.1393 91.2611 81.8261 91.1096 81.5623L86.871 74.18C86.7709 74.0048 86.6262 73.8593 86.4516 73.7581C86.2769 73.657 86.0787 73.6039 85.8769 73.6042H77.7808L73.8739 66.8398C73.7734 66.6654 73.6287 66.5206 73.4544 66.4199C73.2801 66.3192 73.0823 66.2663 72.881 66.2664H57.8548L65.6756 52.8241C65.7514 52.6939 65.8008 52.55 65.8209 52.4007C65.8411 52.2513 65.8317 52.0995 65.7932 51.9538C65.7546 51.8082 65.6878 51.6715 65.5965 51.5516C65.5052 51.4318 65.3911 51.3311 65.2609 51.2553C65.1307 51.1796 64.9868 51.1302 64.8374 51.11C64.6881 51.0898 64.5363 51.0993 64.3906 51.1378C64.245 51.1763 64.1083 51.2431 63.9885 51.3345C63.8686 51.4258 63.7679 51.5398 63.6922 51.6701L59.9656 58.0738L57.1828 53.2653L60.973 46.6415H69.1942C69.492 46.6319 69.7745 46.5068 69.9818 46.2927C70.1891 46.0785 70.305 45.7922 70.305 45.4941C70.305 45.1961 70.1891 44.9097 69.9818 44.6956C69.7745 44.4814 69.492 44.3563 69.1942 44.3467H60.9995L53.5296 30.1928C53.4322 30.0084 53.2864 29.8541 53.1079 29.7465C52.9293 29.6389 52.7247 29.582 52.5162 29.5821H43.6291C43.4247 29.5824 43.2241 29.6371 43.0479 29.7406C42.8717 29.8441 42.7263 29.9927 42.6266 30.1711L38.8532 36.9644H32.4027L43.7613 17.0811C44.0342 17.1244 44.348 17.1592 44.7098 17.1917C45.4924 17.2614 46.549 17.3119 47.8509 17.3468C49.1828 17.3804 50.5075 17.3864 51.3502 17.3864C51.8959 17.3864 52.2385 17.3864 52.247 17.3864C52.5511 17.3852 52.8423 17.2631 53.0565 17.0471C53.2706 16.8312 53.3902 16.539 53.389 16.2348C53.3877 15.9306 53.2656 15.6394 53.0497 15.4253C52.8337 15.2111 52.5415 15.0915 52.2373 15.0928H52.2277C49.6324 15.1144 46.6488 15.0531 44.9983 14.9197L51.5509 3.45373L54.8603 9.21074C54.9346 9.34285 55.0343 9.45893 55.1537 9.55228C55.273 9.64563 55.4097 9.71439 55.5558 9.75459C55.702 9.79478 55.8546 9.80563 56.0049 9.78648C56.1552 9.76733 56.3003 9.71858 56.4317 9.64304C56.563 9.56751 56.6781 9.46668 56.7703 9.34639C56.8625 9.2261 56.9299 9.08873 56.9687 8.94223C57.0075 8.79572 57.0168 8.64299 56.9962 8.49285C56.9756 8.34271 56.9254 8.19815 56.8486 8.06751L52.5427 0.575822C52.4423 0.400808 52.2976 0.255392 52.123 0.154281C51.9484 0.0531701 51.7503 -5.06494e-05 51.5485 3.61696e-08C51.3464 0.000225547 51.1479 0.0538126 50.9732 0.155344C50.7984 0.256875 50.6535 0.402752 50.5532 0.578226L4.59815 80.9901C4.49855 81.1645 4.44652 81.3621 4.44727 81.563C4.44803 81.7639 4.50154 81.9611 4.60245 82.1348C4.70336 82.3085 4.84813 82.4526 5.02227 82.5528C5.19641 82.653 5.3938 82.7056 5.59469 82.7055Z" fill="#0C4767"/>
<path d="M102.954 88.281L60.8803 15.071C60.8061 14.9389 60.7064 14.8229 60.587 14.7295C60.4676 14.6362 60.3309 14.5674 60.1848 14.5272C60.0387 14.487 59.8861 14.4762 59.7357 14.4953C59.5854 14.5145 59.4404 14.5632 59.309 14.6387C59.1776 14.7143 59.0625 14.8151 58.9703 14.9354C58.8782 15.0557 58.8107 15.1931 58.772 15.3396C58.7332 15.4861 58.7239 15.6388 58.7445 15.7889C58.7651 15.9391 58.8153 16.0836 58.8921 16.2143L63.3482 23.9692L60.343 28.5854L56.8425 22.8849C56.74 22.7177 56.5963 22.5796 56.4252 22.4839C56.2541 22.3881 56.0613 22.3378 55.8652 22.3379H47.0466C46.896 22.3379 46.7469 22.3676 46.6077 22.4252C46.4686 22.4829 46.3422 22.5673 46.2357 22.6738C46.1292 22.7803 46.0447 22.9068 45.9871 23.0459C45.9294 23.185 45.8998 23.3342 45.8998 23.4848C45.8998 23.6354 45.9294 23.7845 45.9871 23.9237C46.0447 24.0628 46.1292 24.1892 46.2357 24.2957C46.3422 24.4022 46.4686 24.4867 46.6077 24.5443C46.7469 24.6019 46.896 24.6316 47.0466 24.6316H55.2209L59.3344 31.3311C59.4354 31.4961 59.5766 31.6329 59.7448 31.7285C59.913 31.8242 60.1027 31.8756 60.2961 31.8781H60.3117C60.5027 31.8782 60.6907 31.8307 60.8586 31.7398C61.0266 31.6489 61.1691 31.5175 61.2734 31.3575L64.6393 26.2016L67.3753 30.9632L63.0213 38.3516C62.9448 38.4813 62.8946 38.6249 62.8736 38.774C62.8526 38.9232 62.8612 39.075 62.8989 39.2209C62.9365 39.3667 63.0026 39.5037 63.0932 39.624C63.1838 39.7444 63.2972 39.8457 63.427 39.9221C63.5567 39.9986 63.7003 40.0488 63.8495 40.0698C63.9986 40.0908 64.1504 40.0822 64.2963 40.0446C64.4421 40.0069 64.5791 39.9409 64.6994 39.8502C64.8197 39.7596 64.921 39.6462 64.9975 39.5164L68.6892 33.2509L75.8561 45.7206L71.8194 52.5728C71.6651 52.835 71.6213 53.1478 71.6976 53.4424C71.7739 53.7369 71.9641 53.9891 72.2263 54.1434C72.4886 54.2977 72.8014 54.3415 73.0959 54.2652C73.3904 54.1889 73.6426 53.9987 73.7969 53.7365L77.1712 48.0107L83.3873 58.8431H68.5113C68.3575 58.8381 68.2042 58.8641 68.0607 58.9196C67.9171 58.975 67.7862 59.0587 67.6756 59.1657C67.565 59.2728 67.4771 59.401 67.4171 59.5427C67.3571 59.6843 67.3261 59.8367 67.3261 59.9906C67.3261 60.1444 67.3571 60.2968 67.4171 60.4385C67.4771 60.5801 67.565 60.7083 67.6756 60.8154C67.7862 60.9224 67.9171 61.0061 68.0607 61.0616C68.2042 61.117 68.3575 61.143 68.5113 61.138H83.451L80.4878 66.6522C80.4102 66.7853 80.3603 66.9327 80.341 67.0855C80.3216 67.2384 80.3333 67.3936 80.3753 67.5418C80.4172 67.6901 80.4886 67.8284 80.5852 67.9484C80.6818 68.0685 80.8016 68.1678 80.9374 68.2405C81.0732 68.3132 81.2223 68.3579 81.3758 68.3717C81.5292 68.3855 81.6839 68.3683 81.8305 68.321C81.9772 68.2737 82.1128 68.1974 82.2293 68.0966C82.3457 67.9957 82.4407 67.8725 82.5085 67.7341L85.4032 62.3473L99.9762 87.7123H79.1486L82.4821 82.1549C82.6386 81.8939 82.6851 81.5815 82.6112 81.2862C82.5374 80.991 82.3493 80.7372 82.0884 80.5807C81.8274 80.4241 81.515 80.3777 81.2198 80.4515C80.9246 80.5253 80.6708 80.7134 80.5142 80.9744L76.474 87.7063H62.4262L65.6515 82.7656C65.7665 82.5891 65.8308 82.3843 65.8371 82.1738C65.8435 81.9632 65.7917 81.7549 65.6875 81.5719L62.6919 76.3137H69.1941C69.4982 76.3137 69.7899 76.1929 70.005 75.9778C70.22 75.7628 70.3409 75.471 70.3409 75.1669C70.3409 74.8627 70.22 74.571 70.005 74.3559C69.7899 74.1409 69.4982 74.0201 69.1941 74.0201H53.0378L48.9832 67.0693C49.5457 66.0054 51.4751 63.0891 53.1821 60.6487C53.2691 60.5253 53.3309 60.3859 53.364 60.2386C53.3971 60.0912 53.4009 59.9388 53.3751 59.79C53.3493 59.6412 53.2945 59.4989 53.2137 59.3713C53.133 59.2437 53.0279 59.1333 52.9044 59.0463C52.781 58.9593 52.6416 58.8975 52.4943 58.8644C52.3469 58.8312 52.1945 58.8275 52.0457 58.8533C51.8969 58.879 51.7546 58.9339 51.627 59.0146C51.4994 59.0954 51.389 59.2005 51.302 59.324C51.29 59.342 50.0927 61.055 48.9399 62.7969C48.4278 63.5699 47.9986 64.2395 47.6584 64.7889L45.0763 60.3614L52.569 46.0212C52.6537 45.8582 52.698 45.6771 52.698 45.4934C52.698 45.3097 52.6537 45.1287 52.569 44.9657L48.774 37.5834C48.635 37.3124 48.394 37.1077 48.1041 37.0144C47.8142 36.921 47.4991 36.9467 47.2281 37.0857C46.9571 37.2247 46.7524 37.4657 46.6591 37.7556C46.5658 38.0455 46.5914 38.3607 46.7304 38.6317L50.2538 45.4838L43.2804 58.8431H35.2155C34.9176 58.8528 34.6352 58.9779 34.4279 59.192C34.2206 59.4061 34.1046 59.6925 34.1046 59.9906C34.1046 60.2886 34.2206 60.575 34.4279 60.7891C34.6352 61.0032 34.9176 61.1284 35.2155 61.138H42.8681L51.3886 75.7439C51.4895 75.9171 51.6341 76.0607 51.8079 76.1605C51.9817 76.2602 52.1787 76.3127 52.3791 76.3125H60.0521L63.347 82.0972L59.6867 87.7111H54.157C54.4455 87.1642 54.7761 86.5355 55.103 85.9019C57.1021 82.0359 57.0709 81.8219 57.0084 81.3963C56.9682 81.1223 56.8301 80.872 56.6198 80.6919C56.4094 80.5117 56.141 80.4137 55.864 80.416C55.587 80.4184 55.3203 80.5209 55.113 80.7046C54.9057 80.8883 54.772 81.1409 54.7364 81.4156C54.5152 82.0575 53.0234 84.9751 51.5605 87.7111H20.7038L23.5083 82.6982C23.6064 82.5232 23.6568 82.3255 23.6545 82.1249C23.6521 81.9242 23.5972 81.7277 23.495 81.555L20.0799 75.7607H26.9559C27.26 75.7607 27.5517 75.6399 27.7668 75.4248C27.9819 75.2098 28.1027 74.9181 28.1027 74.6139C28.1027 74.3097 27.9819 74.018 27.7668 73.803C27.5517 73.5879 27.26 73.4671 26.9559 73.4671H18.064C17.8616 73.4671 17.6628 73.5206 17.4878 73.6223C17.3128 73.7239 17.1678 73.8701 17.0676 74.0459C16.9674 74.2217 16.9154 74.4209 16.9171 74.6233C16.9188 74.8257 16.9739 75.024 17.077 75.1981L21.1846 82.1489L18.076 87.7063H1.1468C0.842652 87.7063 0.550959 87.8272 0.335891 88.0422C0.120824 88.2573 0 88.549 0 88.8532C0 89.1573 0.120824 89.449 0.335891 89.6641C0.550959 89.8792 0.842652 90 1.1468 90H101.958C102.16 89.9999 102.357 89.9469 102.532 89.8464C102.706 89.7459 102.851 89.6013 102.951 89.4272C103.052 89.2531 103.105 89.0556 103.106 88.8544C103.106 88.6532 103.054 88.4555 102.954 88.281Z" fill="#0C4767"/>
</g>
</svg>
