<svg width="200" height="402" viewBox="0 0 200 402" fill="none" xmlns="http://www.w3.org/2000/svg">
<path d="M181.839 301.151H179.99V311.256H161.624V302.996H171.734V301.151H161.624V292.89H181.839V291.041H141.414V282.785L191.987 283.013V260.725H179.99V270.83H169.884V272.68H181.839V262.575H190.137V281.164L151.519 280.991V272.68H161.624V270.83H139.564V272.68H149.669V280.982L141.414 280.945V280.936H139.564V292.89H159.775V313.106H179.99V323.211H200V321.361H181.839V301.151Z" fill="rgba(255,255,255,0.1"/>
<path d="M200 240.51H190.095V242.359H200V240.51Z" fill="rgba(255,255,255,0.1"/>
<path d="M200 250.62H179.99V252.469H200V250.62Z" fill="rgba(255,255,255,0.1"/>
<path d="M131.308 292.89V291.041H99.1381V302.996H100.988V292.89H131.308Z" fill="rgba(255,255,255,0.1"/>
<path d="M109.243 321.361V331.467H89.0328V333.316H141.414V331.467H111.093V321.361H109.243Z" fill="rgba(255,255,255,0.1"/>
<path d="M171.734 323.211V321.361H119.353V323.211H171.734Z" fill="rgba(255,255,255,0.1"/>
<path d="M200 331.467H190.095V333.316H200V331.467Z" fill="rgba(255,255,255,0.1"/>
<path d="M191.945 291.041H190.095V313.106H191.945V302.996H200V301.151H191.945V291.041Z" fill="rgba(255,255,255,0.1"/>
<path d="M99.1381 212.043V222.149H121.198V220.299H100.988V212.043H131.308V210.194H68.8222V212.043H99.1381Z" fill="rgba(255,255,255,0.1"/>
<path d="M119.353 189.997V191.842H181.839V189.997H131.308V179.887H119.353V181.737H129.459V189.997H119.353Z" fill="rgba(255,255,255,0.1"/>
<path d="M141.414 232.254V201.947H169.884V210.194H149.669V212.043H179.99V220.299H149.669V222.149H181.839V212.043H191.945V210.194H171.734V201.947H180.912V201.933H181.839V200.084H131.308V201.947H139.564V230.404H131.308V220.299H129.459V230.404H99.1381V232.254H141.414Z" fill="rgba(255,255,255,0.1"/>
<path d="M28.3964 220.299V232.254H30.246V222.149H50.4566V220.299H28.3964Z" fill="rgba(255,255,255,0.1"/>
<path d="M123.048 201.947V200.084H111.093V179.887H70.6672V169.782H68.8222V181.737H109.243V189.997H89.0328V191.842H109.243V200.084H80.7771V189.997H60.5619V161.526H70.6672V159.677H28.3964V161.526H48.607V191.842H50.4566V161.526H58.7123V191.842H78.9275V200.084H40.3513V169.782H20.136V149.571H18.2911V171.632H38.5017V200.084H30.246V179.887H18.2911V181.737H28.3964V201.947H48.607V210.194H28.3964V212.043H60.5619V210.194H50.4566V201.947H123.048Z" fill="rgba(255,255,255,0.1"/>
<path d="M20.136 139.461H8.18114V181.737H10.0307V141.311H20.136V139.461Z" fill="rgba(255,255,255,0.1"/>
<path d="M149.669 230.404V232.254H179.99V242.359H181.839V232.254H200V230.404H149.669Z" fill="rgba(255,255,255,0.1"/>
<path d="M70.6672 363.637V361.787H28.3964V363.637H48.607V393.953H50.4566V363.637H58.7123V393.953H78.9275V401.784H80.7771V392.108H60.5619V363.637H70.6672Z" fill="rgba(255,255,255,0.1"/>
<path d="M90.8824 302.996V301.151H78.9275V313.106H80.7771V302.996H90.8824Z" fill="rgba(255,255,255,0.1"/>
<path d="M131.308 28.2939V18.1886H129.459V28.2939H99.1381V30.1435H141.414V0H139.564V28.2939H131.308Z" fill="rgba(255,255,255,0.1"/>
<path d="M181.839 371.892H139.564V383.847H171.734V381.998H141.414V373.742H179.99V383.847H200V381.998H181.839V371.892Z" fill="rgba(255,255,255,0.1"/>
<path d="M10.0307 18.1886H0V20.0382H10.0307V18.1886Z" fill="rgba(255,255,255,0.1"/>
<path d="M179.99 363.637H190.095V373.742H191.945V363.637H200V361.787H179.99V363.637Z" fill="rgba(255,255,255,0.1"/>
<path d="M10.0307 70.5693H30.246V48.5045H28.3964V68.7197H10.0307V38.3992H8.18114V99.0356H0V100.885H10.0307V70.5693Z" fill="rgba(255,255,255,0.1"/>
<path d="M18.2911 121.096V131.206H20.136V121.096H28.3964V121.1H50.4566V109.146H48.607V119.251H30.246V100.885H38.5017V110.995H40.3513V100.885H60.5619V90.7799H68.8222V110.995H70.6672V90.7799H90.8824V88.9303H38.5017V90.7799H58.7123V99.0356H30.246V80.6746H131.308V68.7197H100.988V60.464H121.198V50.3541H149.669V58.6144H129.459V60.464H171.734V38.3992H159.775V40.2488H169.884V58.6144H151.519V50.3541H161.624V48.5045H141.414V40.2488H151.519V38.3992H129.459V40.2488H139.564V48.5045H119.353V58.6144H78.9275V70.5693H80.7771V60.464H99.1381V68.7197H89.0328V70.5693H129.459V78.825H70.6672V58.6144H68.8222V78.825H40.3513V40.2488H58.7123V70.5693H60.5619V50.3541H111.102L110.99 40.2488H121.198V38.3992H78.9275V40.2488H109.15L109.239 48.5045H60.5619V40.2488H70.6672V38.3992H50.4566V30.1435H90.8824V18.1886H58.7123V20.0382H89.0328V28.2939H38.5017V30.1435H48.607V38.3992H20.136V8.0833H18.2911V28.2939H8.18114V30.1435H18.2911V60.464H20.136V40.2488H38.5017V78.825H18.2911V100.885H20.136V80.6746H28.3964V109.146H8.18114V110.995H28.3964V119.256H20.136V119.251H18.2911V119.256H0V121.096H18.2911Z" fill="rgba(255,255,255,0.1"/>
<path d="M50.4566 20.0382V18.1886H28.3964V30.1435H30.246V20.0382H50.4566Z" fill="rgba(255,255,255,0.1"/>
<path d="M40.3513 401.784V371.892H20.136V351.682H18.2911V373.742H38.5017V401.784H40.3513Z" fill="rgba(255,255,255,0.1"/>
<path d="M58.7123 311.256V323.211H70.6672V321.361H60.5619V311.256H58.7123Z" fill="rgba(255,255,255,0.1"/>
<path d="M171.734 343.422H191.945V341.572H159.775V343.422H169.884V351.682H151.519V333.312H181.835V331.471H149.669V341.572H80.7771V323.211H100.988V313.106H151.519V311.256H141.414V302.996H151.519V301.151H109.243V302.996H139.564V311.256H99.1381V321.361H90.8824V311.256H89.0328V321.361H78.9275V341.572H68.8222V343.422H119.353V363.637H121.198V343.422H129.459V371.892H111.093V351.682H60.5619V341.572H50.4566V333.316H70.6672V331.467H28.3964V353.532H30.246V333.316H48.607V341.572H38.5017V353.532H40.3513V343.422H58.7123V351.682H48.607V353.532H99.1381V361.792H89.0375V363.632H100.988V353.532H109.243V371.892H80.7771V361.787H78.9275V373.742H131.308V343.422H139.564V363.637H171.748V361.787H141.414V343.422H149.669V353.527L200 353.532V351.682H171.734V343.422Z" fill="rgba(255,255,255,0.1"/>
<path d="M30.246 401.784V381.998H18.2911V383.847H28.3964V401.784H30.246Z" fill="rgba(255,255,255,0.1"/>
<path d="M20.1407 392.108H18.2911V401.789H20.1407V392.108Z" fill="rgba(255,255,255,0.1"/>
<path d="M200 220.299H190.095V222.149H200V220.299Z" fill="rgba(255,255,255,0.1"/>
<path d="M20.136 343.422V341.572H8.18114V383.847H10.0307V343.422H20.136Z" fill="rgba(255,255,255,0.1"/>
<path d="M119.353 392.108V393.953H181.839V392.108H131.308V381.998H119.353V383.847H129.459V392.108H119.353Z" fill="rgba(255,255,255,0.1"/>
<path d="M10.0307 189.993H0V191.842H10.0307V189.993Z" fill="rgba(255,255,255,0.1"/>
<path d="M8.18114 212.043H10.0307V201.947H20.136V189.997H18.2911V200.084H0V201.947H8.18114V212.043Z" fill="rgba(255,255,255,0.1"/>
<path d="M169.884 0V8.0833H149.669V9.92825H179.99V18.1886H149.669V20.0382H181.839V9.92825H191.945V8.0833H171.734V0H169.884Z" fill="rgba(255,255,255,0.1"/>
<path d="M10.0307 272.68H30.246V250.615H28.3964V270.83H10.0307V240.51H8.18114V301.151H0V302.996H10.0307V272.68Z" fill="rgba(255,255,255,0.1"/>
<path d="M10.0307 220.299H0V222.149H10.0307V220.299Z" fill="rgba(255,255,255,0.1"/>
<path d="M131.308 9.92825V8.0833H68.8222V9.92825H99.1381V20.0382H121.198V18.1886H100.988V9.92825H131.308Z" fill="rgba(255,255,255,0.1"/>
<path d="M10.0307 129.356H0V131.206H10.0307V129.356Z" fill="rgba(255,255,255,0.1"/>
<path d="M48.607 48.5045V70.5693H50.4566V48.5045H48.607Z" fill="rgba(255,255,255,0.1"/>
<path d="M18.2911 323.206V333.316H20.136V323.206H28.3964V323.211H50.4566V311.256H48.607V321.361H30.246V302.996H38.5017V313.106H40.3513V302.996H60.5619V292.89H68.8222V313.106H70.6672V292.89H90.8824V291.041H38.5017V292.89H58.7123V301.151H30.246V282.785H131.308V270.83H100.988V262.575H121.198V252.465H149.669V260.725H129.459V262.575H171.734V240.51H159.775V242.359H169.884V260.725H151.519V252.465H161.624V250.615H141.414V242.359H151.519V240.51H129.459V242.359H139.564V250.615H119.353V260.725H78.9275V272.68H80.7771V262.575H99.1381V270.83H89.0328V272.68H129.459V280.936H70.6672V260.725H68.8222V280.936H40.3513V242.359H58.7123V272.68H60.5619V252.465H111.102L110.99 242.359H121.198V240.51H78.9275V242.359H109.15L109.239 250.615H60.5619V242.359H70.6672V240.51H50.4566V232.254H90.8824V220.299H58.7123V222.149H89.0328V230.404H38.5017V232.254H48.607V240.51H20.136V210.194H18.2911V230.404H8.18114V232.254H18.2911V262.575H20.136V242.359H38.5017V280.936H18.2911V302.996H20.136V282.785H28.3964V311.256H8.18114V313.106H28.3964V321.366H20.136V321.361H18.2911V321.366H0V323.206H18.2911Z" fill="rgba(255,255,255,0.1"/>
<path d="M28.3964 8.0833V9.92825H60.5619V8.0833H50.4566V0H48.607V8.0833H28.3964Z" fill="rgba(255,255,255,0.1"/>
<path d="M191.945 392.108H190.095V401.789H191.945V392.108Z" fill="rgba(255,255,255,0.1"/>
<path d="M10.0307 0H8.18114V9.92825H10.0307V0Z" fill="rgba(255,255,255,0.1"/>
<path d="M10.0307 392.108H0V393.957H10.0307V392.108Z" fill="rgba(255,255,255,0.1"/>
<path d="M10.0307 331.467H0V333.316H10.0307V331.467Z" fill="rgba(255,255,255,0.1"/>
<path d="M48.607 250.615V272.68H50.4566V250.615H48.607Z" fill="rgba(255,255,255,0.1"/>
<path d="M70.6672 381.998V371.892H68.8222V383.847H109.243V392.108H89.0328V393.953H109.243V401.784H111.093V381.998H70.6672Z" fill="rgba(255,255,255,0.1"/>
<path d="M149.669 28.2939V30.1435H179.99V40.2488H181.839V30.1435H200V28.2939H149.669Z" fill="rgba(255,255,255,0.1"/>
<path d="M109.243 119.251V129.356H89.0328V131.206H141.414V129.356H111.093V119.251H109.243Z" fill="rgba(255,255,255,0.1"/>
<path d="M131.308 90.7799V88.9303H99.1381V100.885H100.988V90.7799H131.308Z" fill="rgba(255,255,255,0.1"/>
<path d="M58.7123 109.146V121.1H70.6672V119.251H60.5619V109.146H58.7123Z" fill="rgba(255,255,255,0.1"/>
<path d="M200 18.1886H190.095V20.0382H200V18.1886Z" fill="rgba(255,255,255,0.1"/>
<path d="M181.839 169.782H139.564V181.737H171.734V179.887H141.414V171.632H179.99V181.737H200V179.887H181.839V169.782Z" fill="rgba(255,255,255,0.1"/>
<path d="M179.99 161.526H190.095V171.632H191.945V161.526H200V159.677H179.99V161.526Z" fill="rgba(255,255,255,0.1"/>
<path d="M171.734 141.311H191.945V139.461H159.775V141.311H169.884V149.571H151.519V131.201H181.835V129.361H149.669V139.461H80.7771V121.1H100.988V110.995H151.519V109.146H141.414V100.885H151.519V99.0356H109.243V100.885H139.564V109.146H99.1381V119.251H90.8824V109.146H89.0328V119.251H78.9275V139.461H68.8222V141.311H119.353V161.526H121.198V141.311H129.459V169.782H111.093V149.571H60.5619V139.461H50.4566V131.206H70.6672V129.356H28.3964V151.416H30.246V131.206H48.607V139.461H38.5017V151.416H40.3513V141.311H58.7123V149.571H48.607V151.416H99.1381V159.681H89.0375V161.522H100.988V151.416H109.243V169.782H80.7771V159.677H78.9275V171.632H131.308V141.311H139.564V161.526H171.748V159.677H141.414V141.311H149.669V151.416H200V149.571H171.734V141.311Z" fill="rgba(255,255,255,0.1"/>
<path d="M90.8824 100.885V99.0356H78.9275V110.995H80.7771V100.885H90.8824Z" fill="rgba(255,255,255,0.1"/>
<path d="M200 38.3992H190.095V40.2488H200V38.3992Z" fill="rgba(255,255,255,0.1"/>
<path d="M191.945 189.997H190.095V201.947H200V200.084H191.945V189.997Z" fill="rgba(255,255,255,0.1"/>
<path d="M200 48.5045H179.99V50.3541H200V48.5045Z" fill="rgba(255,255,255,0.1"/>
<path d="M200 129.356H190.095V131.206H200V129.356Z" fill="rgba(255,255,255,0.1"/>
<path d="M171.734 121.1V119.251H119.353V121.1H171.734Z" fill="rgba(255,255,255,0.1"/>
<path d="M191.945 88.9303H190.095V110.995H191.945V100.885H200V99.0356H191.945V88.9303Z" fill="rgba(255,255,255,0.1"/>
<path d="M181.839 99.0356H179.99V109.146H161.624V100.885H171.734V99.0356H161.624V90.7799H181.839V88.9303H141.414V80.6746L191.987 80.9029V58.6144H179.99V68.7197H169.884V70.5693H181.839V60.464H190.137V79.0533L151.519 78.8809V70.5693H161.624V68.7197H139.564V70.5693H149.669V78.8716L141.414 78.8343V78.825H139.564V90.7799H159.775V110.995H179.99V121.1H200V119.251H181.839V99.0356Z" fill="rgba(255,255,255,0.1"/>
</svg>
