<svg width="232" height="228" viewBox="0 0 232 228" fill="#0c4767" xmlns="http://www.w3.org/2000/svg">
<path fill-rule="evenodd" clip-rule="evenodd" d="M95 0H137.385V14H109V53.3017H137.385V134H123.385V67.3017H109V107.637H95V0ZM149.476 0H232V134H149.476V79.81H163.476V92.6366H177.287V79.81H191.287V92.6366H205.049V106.637H163.476V120H218V67.3017H177.287V53.3017H218V14H149.476V0ZM123.385 26.5083H205.049V40.5083H163.476V67.3017H149.476V40.5083H123.385V26.5083Z"/>
<path fill-rule="evenodd" clip-rule="evenodd" d="M0 94H77V108H14V147.302H42.3846V175.268H28.3846V161.302H14V186.637H42.3846V200.637H14V214H54.4755V173.81H68.4755V186.637H82.2867V173.81H96.2867V186.637H110.049V200.637H68.4755V214H82.2378V228H0V94ZM28.3846 120.508H110.049V134.508H68.4755V161.302H54.4755V134.508H28.3846V120.508ZM82.2867 147.302H137V228H96.0489V214H123V161.302H82.2867V147.302Z"/>
</svg>
