<svg width="95" height="90" viewBox="0 0 95 90" fill="none" xmlns="http://www.w3.org/2000/svg">
<g id="maze8">
<path d="M94.6571 34.4922C94.6171 34.3686 94.5514 34.2548 94.4644 34.1584C94.3773 34.0619 94.2709 33.985 94.152 33.9325L67.5035 22.3091L48.007 0.31089C47.9204 0.213145 47.814 0.134893 47.6949 0.0813018C47.5758 0.0277107 47.4466 0 47.316 0C47.1854 0 47.0563 0.0277107 46.9372 0.0813018C46.8181 0.134893 46.7117 0.213145 46.6251 0.31089L39.4225 8.41475C39.3419 8.50542 39.2799 8.61108 39.2402 8.7257C39.2004 8.84031 39.1836 8.96163 39.1908 9.08274C39.1979 9.20384 39.2288 9.32235 39.2817 9.43151C39.3347 9.54067 39.4086 9.63833 39.4992 9.71892C39.5899 9.79951 39.6956 9.86146 39.8102 9.90121C39.9248 9.94097 40.0461 9.95777 40.1672 9.95064C40.2883 9.94351 40.4068 9.9126 40.516 9.85966C40.6251 9.80673 40.7228 9.73282 40.8034 9.64215L47.315 2.31615L66.2559 23.687C66.345 23.7874 66.455 23.867 66.5781 23.9204L92.458 35.2114L87.6636 43.4365L83.7462 41.0645L85.3251 38.4512C85.3933 38.3384 85.4367 38.2124 85.4522 38.0816C85.4677 37.9507 85.4551 37.8181 85.4151 37.6925C85.3751 37.567 85.3087 37.4514 85.2203 37.3537C85.1319 37.2559 85.0237 37.1782 84.9028 37.1258L69.4703 30.4382C69.3583 30.3854 69.2369 30.3557 69.1132 30.3507C68.9895 30.3458 68.866 30.3658 68.7502 30.4094C68.6343 30.4531 68.5285 30.5196 68.4388 30.605C68.3492 30.6904 68.2776 30.7929 68.2283 30.9065C68.179 31.02 68.1531 31.1423 68.152 31.2661C68.1509 31.3899 68.1746 31.5127 68.2219 31.6271C68.2691 31.7416 68.3389 31.8453 68.427 31.9323C68.5151 32.0192 68.6198 32.0876 68.7349 32.1333L71.1431 33.1779L68.9894 37.5713L59.6655 33.5537L48.2949 20.8079C48.2081 20.7115 48.102 20.6343 47.9835 20.5815C47.865 20.5287 47.7367 20.5015 47.6069 20.5015C47.4772 20.5015 47.3489 20.5287 47.2304 20.5815C47.1119 20.6343 47.0058 20.7115 46.919 20.8079L35.5444 33.4355L19.9189 40.3049C19.7986 40.3577 19.6909 40.4355 19.6031 40.5332C19.5152 40.631 19.4493 40.7463 19.4096 40.8716C19.3699 40.9969 19.3574 41.1292 19.3729 41.2597C19.3885 41.3901 19.4317 41.5158 19.4997 41.6282L23.9212 48.9623C24.0518 49.1636 24.2556 49.3063 24.4894 49.3601C24.7232 49.414 24.9689 49.3747 25.1743 49.2508C25.3798 49.1268 25.5289 48.9278 25.5903 48.6958C25.6517 48.4638 25.6204 48.217 25.5032 48.0077L21.6201 41.5727L36.4697 35.0407C36.5894 34.9881 36.6964 34.9106 36.7839 34.8134L47.6019 22.8061L58.423 34.9366C58.5132 35.0367 58.6237 35.1162 58.7472 35.17L73.3464 41.4605L72.4756 42.9637C72.4148 43.0687 72.3753 43.1847 72.3594 43.3049C72.3434 43.4252 72.3513 43.5474 72.3826 43.6646C72.4139 43.7818 72.468 43.8917 72.5417 43.9881C72.6155 44.0844 72.7075 44.1652 72.8125 44.226C72.9175 44.2867 73.0334 44.3262 73.1537 44.3422C73.2739 44.3581 73.3962 44.3502 73.5134 44.319C73.6306 44.2877 73.7405 44.2336 73.8368 44.1598C73.9331 44.0861 74.0139 43.9941 74.0747 43.8891L75.4657 41.4868C75.5314 41.3738 75.5723 41.2482 75.5859 41.1182C75.5994 40.9882 75.5852 40.8568 75.5443 40.7327C75.5033 40.6086 75.4365 40.4946 75.3483 40.3982C75.26 40.3019 75.1524 40.2253 75.0323 40.1735L70.6886 38.3026L72.8413 33.9133L83.1926 38.4017L73.9545 53.6769L69.9855 51.3403L71.5189 48.9926C71.6487 48.7877 71.6927 48.5399 71.6412 48.3028C71.5898 48.0657 71.4471 47.8584 71.2441 47.7257C71.041 47.593 70.7939 47.5455 70.5561 47.5935C70.3183 47.6416 70.109 47.7813 69.9734 47.9824L65.4215 54.9377C65.342 55.0592 65.2919 55.1975 65.275 55.3418L64.5164 62.4233C64.4967 62.6636 64.5717 62.9021 64.7254 63.0879C64.8791 63.2737 65.0993 63.3921 65.3391 63.4178C65.5788 63.4435 65.8191 63.3745 66.0087 63.2255C66.1983 63.0765 66.3222 62.8593 66.3539 62.6203L67.0893 55.759L68.9682 52.888L72.9988 55.2599L71.726 57.3642C71.6568 57.4795 71.6131 57.6084 71.5977 57.742L69.1773 79.8715L47.7918 75.4014C47.6679 75.3756 47.54 75.3756 47.416 75.4014L43.3137 76.25L42.2388 71.2454L47.4585 70.0493L50.6648 70.904C50.782 70.9353 50.9042 70.9432 51.0245 70.9273C51.1447 70.9113 51.2607 70.8719 51.3657 70.8111C51.4707 70.7504 51.5627 70.6696 51.6365 70.5733C51.7103 70.4769 51.7644 70.3671 51.7957 70.2498C51.827 70.1326 51.8349 70.0104 51.819 69.8902C51.803 69.7699 51.7636 69.6539 51.7028 69.5489C51.6421 69.4439 51.5613 69.3519 51.465 69.2781C51.3687 69.2043 51.2588 69.1502 51.1416 69.1189L47.714 68.2047C47.5687 68.1662 47.4162 68.1634 47.2696 68.1966L32.3492 71.6141L36.9788 65.6337L47.4484 63.4709L49.594 64.0457C49.8305 64.1092 50.0827 64.0761 50.2948 63.9537C50.507 63.8313 50.6619 63.6297 50.7254 63.3931C50.7889 63.1565 50.7558 62.9044 50.6334 62.6922C50.511 62.48 50.3094 62.3252 50.0728 62.2617L48.3989 61.8121V56.5591L52.3063 57.5491C52.437 57.5822 52.5734 57.5863 52.7058 57.5611C52.8382 57.5359 52.9636 57.4821 53.073 57.4033C53.1824 57.3246 53.2733 57.2229 53.3393 57.1053C53.4053 56.9877 53.4447 56.8571 53.4549 56.7227L53.8125 51.9576L56.3379 48.1542C56.4095 48.0464 56.4576 47.9248 56.4791 47.7973C56.5007 47.6697 56.4953 47.5391 56.4632 47.4138C56.4311 47.2885 56.3731 47.1713 56.2929 47.0698C56.2126 46.9684 56.112 46.8849 55.9975 46.8247L54.0893 45.8226C53.873 45.7158 53.6235 45.6977 53.3941 45.7723C53.1647 45.847 52.9735 46.0083 52.8615 46.2219C52.7494 46.4355 52.7252 46.6845 52.7942 46.9157C52.8632 47.1468 53.0198 47.3419 53.2306 47.4591L54.2327 47.9844L52.1396 51.1363C52.0514 51.268 51.9992 51.4206 51.9881 51.5787L51.6941 55.4882L48.0676 54.569C47.9272 54.5336 47.7806 54.5315 47.6393 54.5629L43.445 55.5004V54.274C43.4491 54.1501 43.4282 54.0266 43.3837 53.911C43.3391 53.7953 43.2717 53.6898 43.1855 53.6007C43.0993 53.5116 42.9961 53.4408 42.882 53.3924C42.7678 53.344 42.6452 53.3191 42.5212 53.3191C42.3972 53.3191 42.2746 53.344 42.1604 53.3924C42.0463 53.4408 41.9431 53.5116 41.8569 53.6007C41.7707 53.6898 41.7033 53.7953 41.6587 53.911C41.6142 54.0266 41.5933 54.1501 41.5974 54.274V56.652C41.5971 56.7904 41.6281 56.9271 41.6881 57.0519C41.7481 57.1766 41.8355 57.2861 41.9439 57.3723C42.0522 57.4583 42.1782 57.5191 42.3129 57.5504C42.4476 57.5817 42.5876 57.5826 42.7227 57.5531L46.5513 56.6975V61.7687L37.3819 63.6638V62.1192C37.374 61.8795 37.2732 61.6522 37.1008 61.4855C36.9284 61.3187 36.6979 61.2254 36.4581 61.2254C36.2182 61.2254 35.9878 61.3187 35.8154 61.4855C35.643 61.6522 35.5422 61.8795 35.5343 62.1192V64.4821L31.2632 70.0049L30.8066 67.7764C30.7521 67.5416 30.608 67.3374 30.4051 67.2073C30.2022 67.0772 29.9565 67.0316 29.7204 67.0801C29.4843 67.1286 29.2764 67.2674 29.1412 67.4669C29.0059 67.6664 28.954 67.9108 28.9964 68.1481L30.0066 73.0799C30.0315 73.2005 30.0801 73.3148 30.1497 73.4163C30.2194 73.5177 30.3085 73.6043 30.412 73.6709C30.5155 73.7375 30.6312 73.7828 30.7524 73.8041C30.8736 73.8255 30.9978 73.8224 31.1178 73.7952L40.4387 71.6606L41.5055 76.6258L25.7941 79.8736C24.9577 70.713 24.7728 69.3856 24.7072 69.1876C24.6362 68.9547 24.476 68.7593 24.2616 68.6439C24.0472 68.5285 23.7959 68.5025 23.5624 68.5715C23.3289 68.6405 23.1321 68.7989 23.0148 69.0123C22.8976 69.2257 22.8694 69.4768 22.9363 69.7109C23.0505 70.3312 23.6778 76.9975 24.0475 81.0707C24.0591 81.2007 24.0982 81.3269 24.1621 81.4407C24.226 81.5546 24.3134 81.6536 24.4184 81.7312C24.5234 81.8089 24.6437 81.8633 24.7713 81.891C24.8989 81.9187 25.031 81.919 25.1587 81.8919L47.6059 77.2521L69.8006 81.8919C69.8627 81.9049 69.9261 81.9114 69.9895 81.9111C70.2172 81.9112 70.4368 81.8272 70.6063 81.6753C70.7757 81.5233 70.8831 81.3141 70.9078 81.0878L73.415 58.1491L75.0657 55.4216L75.1 55.3751V55.3569L82.7865 42.6445L86.7262 45.0316L82.8956 51.5979C82.7724 51.8097 82.7383 52.0616 82.8006 52.2985C82.8629 52.5354 83.0166 52.7379 83.2279 52.8617C83.4397 52.9849 83.6916 53.019 83.9285 52.9567C84.1654 52.8944 84.3679 52.7407 84.4917 52.5294L94.5763 35.2407C94.6414 35.1286 94.6823 35.004 94.6962 34.875C94.7101 34.7461 94.6968 34.6156 94.6571 34.4922Z" fill="#0C4767"/>
<path d="M81.8219 55.267C81.6081 55.1472 81.3556 55.1169 81.1196 55.183C80.8837 55.2491 80.6835 55.4061 80.5632 55.6196L78.2872 59.6604C78.2238 59.7725 78.1849 59.8968 78.1731 60.0251L75.4901 87.9542L47.9232 82.095C47.7977 82.0681 47.6679 82.0681 47.5424 82.095L19.5513 87.9542L16.9966 60.0726C16.9835 59.9345 16.9401 59.8009 16.8693 59.6816L2.24692 35.2539L16.4824 28.7977L18.729 33.4608L10.5749 36.8864C10.4541 36.9372 10.3455 37.0131 10.2563 37.1091C10.1671 37.2052 10.0993 37.319 10.0574 37.4432C10.0156 37.5674 10.0006 37.6991 10.0136 37.8295C10.0265 37.9599 10.067 38.0861 10.1324 38.1996L21.5474 58.0118L22.2859 64.8993C22.2988 65.0199 22.3354 65.1368 22.3935 65.2432C22.4516 65.3497 22.5301 65.4437 22.6245 65.5198C22.7189 65.5959 22.8274 65.6527 22.9437 65.6869C23.0601 65.7211 23.182 65.732 23.3026 65.7191C23.4232 65.7062 23.5401 65.6696 23.6465 65.6115C23.753 65.5534 23.847 65.4749 23.9231 65.3805C23.9992 65.2861 24.056 65.1776 24.0902 65.0613C24.1244 64.9449 24.1353 64.8229 24.1224 64.7023L23.8941 62.5647L28.844 61.9273L28.9874 63.2557C29.0157 63.4982 29.1387 63.7197 29.3296 63.8718C29.5205 64.0239 29.7639 64.0943 30.0065 64.0676C30.2492 64.0409 30.4714 63.9193 30.6248 63.7294C30.7781 63.5394 30.85 63.2965 30.8249 63.0537L30.0663 56.0348C30.0541 55.9183 30.0198 55.8051 29.9653 55.7014L29.2753 54.4144L29.3945 54.3548C29.9087 54.0962 30.6229 53.7346 31.5159 53.279C32.3816 52.8375 33.2463 52.394 33.8393 52.091L35.0828 54.0507V57.2642C35.0908 57.5039 35.1916 57.7312 35.364 57.898C35.5363 58.0648 35.7668 58.158 36.0067 58.158C36.2465 58.158 36.477 58.0648 36.6493 57.898C36.8217 57.7312 36.9225 57.5039 36.9305 57.2642V53.782C36.9306 53.6071 36.8808 53.4357 36.787 53.288L31.2704 44.5902L39.8206 40.9858L42.9521 45.07L39.4781 46.5399C39.3597 46.5899 39.2531 46.6641 39.165 46.7578C39.077 46.8514 39.0095 46.9625 38.9669 47.0838C38.9243 47.205 38.9075 47.3339 38.9176 47.462C38.9277 47.5902 38.9645 47.7148 39.0256 47.8279L40.3388 50.2685C40.4593 50.476 40.6557 50.6285 40.8865 50.6938C41.1173 50.7591 41.3645 50.7321 41.5758 50.6185C41.7871 50.5049 41.9459 50.3137 42.0188 50.0851C42.0916 49.8566 42.0728 49.6086 41.9662 49.3937L41.1348 47.8451L44.7715 46.3055C44.7844 46.3005 44.7969 46.2944 44.8089 46.2873L44.824 46.2803L44.8543 46.2651C44.8892 46.2452 44.9229 46.2232 44.9553 46.1994L44.9695 46.1883C44.9951 46.1688 45.0197 46.1479 45.0432 46.1257L45.0564 46.1126C45.0759 46.0933 45.0945 46.0731 45.1119 46.052L47.5424 43.085L49.1789 44.7781C49.2632 44.8653 49.3639 44.9351 49.4751 44.9834C49.5864 45.0317 49.7061 45.0577 49.8274 45.0597C49.9487 45.0618 50.0692 45.0399 50.182 44.9954C50.2949 44.9509 50.3978 44.8846 50.4851 44.8003C50.5723 44.716 50.6421 44.6153 50.6904 44.5041C50.7387 44.3928 50.7646 44.2731 50.7667 44.1518C50.7688 44.0305 50.7469 43.91 50.7024 43.7972C50.6579 43.6843 50.5916 43.5813 50.5073 43.4941L48.1485 41.0535C48.0579 40.9597 47.9485 40.8862 47.8274 40.8378C47.7063 40.7894 47.5764 40.7672 47.4461 40.7727C47.3159 40.7781 47.1882 40.8111 47.0716 40.8694C46.955 40.9277 46.8521 41.0101 46.7696 41.111L44.428 43.9669L41.2965 39.8715C43.3966 37.2692 46.0847 34.0174 47.3202 32.6617C47.9111 33.4082 48.9506 34.6276 50.5598 36.4631C52.3054 38.4532 54.0843 40.4322 54.2864 40.6575C54.377 40.7579 54.4883 40.8375 54.6127 40.8908L63.5901 44.6983C63.0951 45.5125 62.2476 46.9096 61.4071 48.3067C58.5392 53.0789 58.5392 53.1759 58.5392 53.4891C58.5241 53.8285 58.116 58.8209 57.7109 63.6921L54.3631 63.0426C54.1838 63.0082 53.9983 63.0277 53.83 63.0985C53.6617 63.1694 53.5181 63.2885 53.4174 63.4408C53.3166 63.593 53.2631 63.7718 53.2637 63.9544C53.2643 64.137 53.3189 64.3153 53.4206 64.467C53.4882 64.5679 53.5751 64.6543 53.6764 64.7213C53.7777 64.7882 53.8913 64.8343 54.0106 64.8569L58.0038 65.6317L62.1052 71.5L55.7612 70.213C55.5209 70.1636 55.2708 70.2116 55.0659 70.3466C54.861 70.4816 54.7182 70.6924 54.6687 70.9328C54.6193 71.1731 54.6674 71.4232 54.8023 71.6281C54.9373 71.833 55.1482 71.9759 55.3885 72.0253L64.1134 73.7952C64.2379 73.8205 64.3662 73.8199 64.4904 73.7934C64.6146 73.7669 64.732 73.715 64.8352 73.6411C64.9385 73.5671 65.0254 73.4727 65.0905 73.3636C65.1555 73.2545 65.1974 73.1332 65.2135 73.0072L65.8459 68.0754C65.8613 67.9551 65.8528 67.8329 65.821 67.7159C65.7891 67.5988 65.7346 67.4892 65.6604 67.3932C65.5862 67.2972 65.4938 67.2168 65.3885 67.1566C65.2832 67.0963 65.1671 67.0574 65.0468 67.042C64.9265 67.0266 64.8043 67.035 64.6873 67.0669C64.5702 67.0987 64.4606 67.1533 64.3646 67.2275C64.2687 67.3017 64.1882 67.3941 64.128 67.4993C64.0677 67.6046 64.0288 67.7207 64.0134 67.841L63.6689 70.5221L59.4888 64.5407C59.6817 62.2233 60.2778 55.0317 60.3687 53.7204C60.8283 52.8112 63.877 47.7602 65.7226 44.7448C65.792 44.6316 65.8361 44.5047 65.8519 44.3729C65.8678 44.2411 65.855 44.1074 65.8144 43.981C65.7738 43.8546 65.7065 43.7384 65.6169 43.6404C65.5273 43.5425 65.4176 43.465 65.2953 43.4133L55.5218 39.2715C52.3478 35.7408 48.7829 31.6606 48.3495 30.9625C48.2979 30.8222 48.2138 30.6962 48.1041 30.5947C47.9943 30.4932 47.8621 30.4191 47.7182 30.3786C47.0616 30.1948 46.708 30.5544 45.4746 31.9566C44.8442 32.6718 43.9936 33.6739 42.9491 34.9357C41.4753 36.7126 40.0125 38.5239 39.5488 39.0977L29.5481 43.3133C29.4245 43.3656 29.3137 43.4443 29.2235 43.5437C29.1334 43.6431 29.0659 43.761 29.0258 43.8891C28.9857 44.0172 28.974 44.1525 28.9914 44.2856C29.0089 44.4187 29.0551 44.5464 29.1268 44.6599L32.8483 50.5261C31.3108 51.3151 29.4369 52.2728 28.4146 52.784L28.3207 52.6062C28.2018 52.3973 28.0062 52.2429 27.7754 52.1758C27.5446 52.1088 27.2967 52.1342 27.0844 52.2468C26.872 52.3595 26.7119 52.5504 26.6379 52.7791C26.564 53.0078 26.582 53.2563 26.6882 53.4719L28.249 56.4136L28.647 60.0887L23.6971 60.7262L23.3637 57.6198C23.3505 57.492 23.3106 57.3685 23.2465 57.2571L12.2558 38.1835L32.6614 29.6109C32.7919 29.5562 32.908 29.4722 33.0009 29.3654L47.6111 12.5576L62.4668 29.3705C62.6312 29.5461 62.8575 29.6508 63.0978 29.6623C63.3381 29.6737 63.5734 29.591 63.7537 29.4318C63.934 29.2725 64.0451 29.0492 64.0634 28.8093C64.0817 28.5695 64.0058 28.3319 63.8518 28.1471L48.295 10.5433C48.2078 10.4449 48.1006 10.3662 47.9806 10.3125C47.8606 10.2588 47.7306 10.2314 47.5991 10.2319C47.4677 10.2325 47.3378 10.2611 47.2183 10.3159C47.0988 10.3706 46.9923 10.4502 46.906 10.5494L31.7482 27.9885L20.4342 32.7415L18.1633 28.0319L28.6419 23.2789C28.7666 23.2231 28.8771 23.1399 28.9652 23.0355L37.2305 13.286C37.309 13.1931 37.3684 13.0857 37.4053 12.9699C37.4423 12.8541 37.4561 12.7321 37.4459 12.611C37.4357 12.4898 37.4018 12.3718 37.346 12.2638C37.2902 12.1558 37.2137 12.0598 37.1209 11.9813C37.028 11.9028 36.9206 11.8434 36.8048 11.8065C36.689 11.7695 36.567 11.7557 36.4459 11.7659C36.3247 11.7761 36.2067 11.81 36.0987 11.8658C35.9907 11.9216 35.8947 11.9981 35.8162 12.0909L27.6853 21.6818L0.541747 33.9952C0.423405 34.0488 0.317713 34.1268 0.231615 34.2241C0.145516 34.3214 0.0809483 34.4358 0.042132 34.5597C0.00331568 34.6837 -0.00887422 34.8145 0.00637121 34.9435C0.0216166 35.0726 0.0639524 35.1969 0.130597 35.3084L15.1752 60.4554L17.8017 89.1604C17.8134 89.2904 17.8525 89.4164 17.9165 89.5301C17.9805 89.6438 18.0679 89.7426 18.1729 89.82C18.278 89.8975 18.3982 89.9518 18.5258 89.9793C18.6533 90.0068 18.7853 90.0069 18.9129 89.9797L47.7283 83.9498L76.1143 89.9797C76.1775 89.9929 76.2418 89.9997 76.3063 89.9999C76.5361 89.9999 76.7577 89.9144 76.9278 89.7599C77.0979 89.6055 77.2045 89.3932 77.2266 89.1644L79.9894 60.3999L82.1704 56.5227C82.2902 56.3091 82.3204 56.0567 82.2543 55.8209C82.1882 55.5851 82.0312 55.3852 81.8178 55.265L81.8219 55.267Z" fill="#0C4767"/>
</g>
</svg>
