<svg width="97" height="90" viewBox="0 0 97 90" fill="none" xmlns="http://www.w3.org/2000/svg">
<g id="maze7">
<path d="M96.7496 28.2476L94.7036 28.5156C95.1263 35.0746 93.8308 42.1572 90.6078 48.9119C88.1578 54.0459 83.274 60.0463 76.2806 66.5667L77.6521 68.074C83.7441 62.3927 89.5168 55.9397 92.4506 49.7921C95.7746 42.8304 97.2383 35.3726 96.7496 28.2476Z" fill="#0C4767"/>
<path d="M75.4801 62.9412L74.0376 61.4988C70.8233 64.6218 67.4495 67.5763 63.9297 70.3505C61.037 72.6494 58.2654 74.699 55.8653 76.402L53.7955 73.7079C56.1346 72.0959 59.0633 69.9814 62.0956 67.584C71.1836 60.3967 77.116 53.9786 79.7255 48.5092C86.098 35.1544 82.3513 20.028 71.3719 14.7905C68.6376 13.4964 65.6307 12.8834 62.608 13.004L63.0482 15.0398C65.6189 14.9898 68.1662 15.536 70.4904 16.6356C80.4512 21.3881 83.7652 35.2915 77.8778 47.629C75.535 52.5399 70.4742 57.7948 65.1702 62.3802L62.4883 59.3395C66.6028 55.7389 70.5029 51.6198 72.3382 47.7637C74.6872 42.8404 75.3305 37.4558 74.151 32.6011C72.9516 27.6703 70.0204 23.8741 65.8984 21.9043C60.476 19.3186 53.8467 20.3982 48.4143 24.7019C43.3597 20.6962 37.2678 19.4844 32.081 21.4218L29.3655 15.5485C30.7319 15.2047 32.1358 15.0322 33.5448 15.0349C38.3637 15.0349 43.4059 16.9872 47.7585 20.7162C47.9438 20.8749 48.1797 20.9621 48.4236 20.9621C48.6676 20.9621 48.9035 20.8749 49.0888 20.7162C51.5613 18.5967 54.2569 17.0508 57.0073 16.112L56.571 14.1048C53.6059 15.1054 50.8454 16.6321 48.4218 18.6117C43.5168 14.6521 37.8451 12.7247 32.4626 13.0214L31.995 8.50954C33.4264 8.61569 34.8453 8.85146 36.2342 9.21393L36.8501 7.26157C36.3015 7.11695 35.7517 6.99602 35.2018 6.88755V3.22719C39.5657 4.52129 43.8535 6.87135 47.7535 10.2088C47.9388 10.3675 48.1747 10.4548 48.4187 10.4548C48.6626 10.4548 48.8986 10.3675 49.0838 10.2088C58.5883 2.06026 70.4044 -0.18258 79.92 4.35797C87.0593 7.76525 91.8321 14.4265 93.7834 22.4429L95.8319 22.1748C95.8144 22.105 95.7995 22.0339 95.7833 21.9641C93.6001 12.9877 88.2787 6.08093 80.8003 2.51531C70.7672 -2.27208 58.4312 -0.123981 48.418 8.10062C38.4061 -0.127721 26.0701 -2.27084 16.037 2.51531C8.55614 6.08342 3.23723 12.9877 1.05406 21.9641C1.03785 22.0302 1.02414 22.0975 1.00793 22.1636L3.04523 22.4291C5.08377 14.0761 10.0087 7.65429 16.9173 4.35173C20.1655 2.81297 23.7177 2.02266 27.312 2.03907C29.278 2.04315 31.2379 2.26052 33.157 2.68736V6.55219C31.6673 6.37849 30.1646 6.34386 28.6685 6.44871L29.0775 8.47089C29.3617 8.45468 29.646 8.4447 29.9315 8.43847L30.4302 13.2259C26.1318 13.9229 22.221 16.1247 19.3959 19.4383L21.1415 20.5379C22.5992 18.8989 24.3693 17.5672 26.3482 16.6207C26.6948 16.4549 27.0476 16.304 27.403 16.1644L30.2208 22.2583C27.3531 23.8354 25.1824 26.3289 23.8159 29.3422L25.8295 29.8409C27.1262 27.1704 29.1473 25.0098 31.8142 23.732C33.4834 22.9413 35.3086 22.5353 37.1556 22.5438C40.7451 22.5438 44.5118 24.0013 47.7535 26.7827C47.9388 26.9414 48.1747 27.0286 48.4187 27.0286C48.6626 27.0286 48.8986 26.9414 49.0838 26.7827C54.01 22.5588 60.1169 21.3894 65.0206 23.7295C68.5778 25.4263 71.1163 28.7413 72.1674 33.0636C73.2184 37.386 72.6661 42.1784 70.6113 46.608L66.6627 44.516C67.614 41.3556 67.6152 38.1503 66.7749 35.3713L64.9545 36.4211C65.7201 39.3833 65.4071 42.8903 63.8324 46.1891C61.1031 51.909 51.0201 58.8445 48.418 60.459C45.8172 58.8383 35.7342 51.909 33.0037 46.1891C29.9502 39.7897 31.6322 32.5999 36.7541 30.1538C37.8994 29.6108 39.1522 29.3322 40.4197 29.3385C42.8996 29.3385 45.503 30.3495 47.7535 32.2795C47.9388 32.4382 48.1747 32.5254 48.4187 32.5254C48.6626 32.5254 48.8986 32.4382 49.0838 32.2795C52.4926 29.3572 56.7069 28.5393 60.0832 30.16C60.6726 30.4422 61.2267 30.7929 61.734 31.2048L63.6042 30.1251C62.8237 29.3881 61.9332 28.7769 60.9647 28.3136C57.0709 26.456 52.333 27.1854 48.4193 30.1924C44.5068 27.1841 39.7689 26.4523 35.8738 28.3136C32.0461 30.1401 29.7831 34.1022 29.4802 38.6253H24.1949C24.1398 37.6718 24.1536 36.7155 24.2361 35.764L22.2412 35.2653C21.8422 39.0878 22.4743 43.2443 24.2623 47.2226L20.2126 49.8856C19.7549 49.1566 19.3386 48.4024 18.9658 47.6266C15.3762 40.1039 15.2067 32.0002 17.8798 25.7429L16.1343 24.647C13.5372 30.5066 13.2467 37.8473 15.6804 44.981L11.8477 46.8349C8.88655 39.9044 8.14968 32.4802 9.78176 25.7654C11.5111 18.6591 15.6942 13.2034 21.5604 10.4045C22.0591 10.1664 22.5653 9.95199 23.0765 9.7575L22.6663 7.72909C21.9947 7.97261 21.3327 8.24939 20.6802 8.55941C14.2479 11.6276 9.67205 17.5669 7.79559 25.2816C7.12619 28.0644 6.82479 30.923 6.89912 33.7842L2.21111 34.4749C2.02586 32.4888 1.99668 30.4913 2.12383 28.5007L0.0927699 28.2351C-0.398475 35.3626 1.06528 42.8217 4.38804 49.7909C7.33052 55.9559 13.127 62.4276 19.2376 68.1176L20.6091 66.6103C13.5895 60.0713 8.68831 54.0546 6.23208 48.9069C4.35086 44.9869 3.07459 40.8045 2.44676 36.5021L7.0051 35.8314C7.40444 40.4587 8.64277 44.9748 10.6595 49.1588C10.9164 49.6961 11.1994 50.2372 11.5036 50.7795L13.1581 49.5477C12.9998 49.2598 12.8527 48.9755 12.7105 48.6925L16.4073 46.9047C16.6293 47.4408 16.867 47.9752 17.1205 48.508C19.6465 53.8028 25.2859 59.9853 33.8877 66.8946L35.1968 65.3075C30.1397 61.2557 24.8046 56.3847 21.3572 51.5836L25.1999 49.0727C25.624 49.7924 26.0843 50.4902 26.5788 51.1635L28.1236 49.8283C27.4473 48.8998 26.8532 47.914 26.3482 46.8823C25.4077 44.9205 24.7576 42.8324 24.4181 40.6836H29.4827C29.6292 42.9067 30.2006 45.0812 31.1659 47.0892C34.4076 53.8714 46.564 61.8005 47.9729 62.5747C48.0079 62.5926 48.0442 62.608 48.0814 62.6208H48.0939C48.2013 62.658 48.3143 62.677 48.428 62.6769C48.5413 62.6769 48.6539 62.658 48.7609 62.6208H48.7734C48.8106 62.608 48.8468 62.5926 48.8819 62.5747C50.292 61.8055 62.4534 53.8714 65.6902 47.0892C65.7874 46.886 65.8772 46.6803 65.9657 46.4758L69.66 48.4319C64.6453 56.6341 51.0925 65.5681 48.4293 67.2649C46.4194 65.9845 38.2054 60.5762 32.1346 54.4735L30.5936 55.8038C37.3862 62.6931 46.7186 68.7085 47.9754 69.3743C48.0084 69.3916 48.0426 69.4066 48.0777 69.4192L48.0964 69.4267C48.2043 69.4638 48.3176 69.4828 48.4317 69.4828C48.5455 69.4828 48.6584 69.4638 48.7659 69.4267L48.7846 69.4192C48.8201 69.4066 48.8546 69.3916 48.8881 69.3743C49.8357 68.8756 55.3715 65.3312 60.9485 60.6672L63.6254 63.703C56.9138 69.3007 50.1997 73.6767 48.433 74.7988C47.2847 74.0707 44.0467 71.9662 40.0793 69.0452L38.764 70.6397C43.4308 74.0856 47.2261 76.4993 47.9816 76.9032C48.0141 76.9191 48.0474 76.9333 48.0814 76.9456L48.1026 76.9543C48.2101 76.9915 48.323 77.0105 48.4367 77.0104C48.5509 77.0105 48.6642 76.9915 48.7721 76.9543L48.7933 76.9456C48.8273 76.9333 48.8606 76.9191 48.8931 76.9032C49.2783 76.6975 50.4491 75.9719 52.1198 74.8561L54.2082 77.5777C51.4179 79.5139 49.3232 80.8553 48.4392 81.4001C46.6937 80.3205 40.1866 76.1166 32.9326 70.3505C25.8619 64.7303 20.3398 59.4093 16.5993 54.6418L14.961 55.8611C19.7214 61.9364 26.4629 67.8433 31.9888 72.2143C38.83 77.6238 45.2225 81.8365 47.3632 83.1356L47.4418 87.17C44.5429 85.3198 37.6618 80.7406 30.2121 74.8274C28.4599 73.4361 26.7912 72.0614 25.2061 70.7033L23.8346 72.2131C25.7048 73.8226 27.5601 75.3299 29.3031 76.7137C38.2927 83.82 46.8096 89.2707 47.9841 89.8928C48.0141 89.9077 48.044 89.9202 48.0752 89.9327L48.1026 89.9439C48.2109 89.9811 48.3247 90 48.4392 90C48.5538 89.9999 48.6675 89.981 48.7759 89.9439L48.8021 89.9327C48.8332 89.9202 48.8644 89.9077 48.8943 89.8928C50.0688 89.2694 58.5858 83.8225 67.5753 76.7137C69.3346 75.3211 71.2011 73.7939 73.0962 72.1682L71.7247 70.6584C70.123 72.0298 68.4369 73.4195 66.6664 74.8274C59.2641 80.7095 52.4253 85.2662 49.4953 87.1388L49.418 83.2004C51.4553 81.9749 57.9412 77.7148 64.8885 72.2206C68.1975 69.5838 71.9666 66.3897 75.4801 62.9412ZM48.6375 60.671C48.7033 60.685 48.7676 60.7055 48.8295 60.7321C48.7684 60.7035 48.7044 60.6813 48.6387 60.666L48.6375 60.671ZM48.0303 67.5279C48.0482 67.5206 48.0665 67.5143 48.0851 67.5092C48.0702 67.5055 48.0502 67.5105 48.0315 67.5179L48.0303 67.5279ZM48.7497 67.5067C48.7696 67.5142 48.7896 67.5192 48.8095 67.5279L48.7497 67.5067ZM48.0477 75.0506C48.0739 75.0406 48.1001 75.0344 48.1275 75.0269C48.1038 75.0232 48.0764 75.0294 48.049 75.0406L48.0477 75.0506ZM48.7073 75.0232C48.7347 75.0319 48.7634 75.0381 48.7908 75.0481C48.7671 75.0294 48.7372 75.0219 48.7085 75.0132L48.7073 75.0232ZM48.0614 81.6308C48.2894 81.541 48.5429 81.541 48.7709 81.6308C48.5434 81.545 48.2927 81.5432 48.0639 81.6258L48.0614 81.6308Z" fill="#0C4767"/>
<path d="M78.2605 57.0479L79.7069 58.4942C82.41 55.4173 84.7141 52.2431 86.1903 49.1587C89.8921 41.4004 90.907 32.9215 89.0492 25.2828C87.1728 17.5682 82.597 11.6288 76.1647 8.56063C67.5679 4.45893 57.0111 6.27289 48.4255 13.2757C46.6241 11.7989 44.67 10.5188 42.5967 9.45701L41.9733 11.4368C44.046 12.5299 45.9884 13.8541 47.7635 15.3839C47.9487 15.5426 48.1847 15.6299 48.4286 15.6299C48.6726 15.6299 48.9085 15.5426 49.0938 15.3839C57.1707 8.45839 67.2075 6.55092 75.2856 10.4058C81.1532 13.2046 85.3362 18.6603 87.0643 25.7666C88.8099 32.9489 87.8461 40.9441 84.3463 48.2785C83.067 50.9478 81.0185 53.8938 78.2605 57.0479Z" fill="#0C4767"/>
</g>
</svg>
