<svg width="234" height="225" viewBox="0 0 234 225" fill="#0c4767" xmlns="http://www.w3.org/2000/svg">
<path fill-rule="evenodd" clip-rule="evenodd" d="M117.64 31.2619C117.352 31.5566 117.083 31.8441 116.831 32.1231L107.578 23.7953C94.8769 16.3801 73.9757 9.71554 49.3517 16.0716C29.9062 21.091 13.857 43.6695 13.5058 74.9201C13.1606 105.626 28.313 143.778 70.3745 176.708L116.378 207.996L163.193 176.502C205.687 143.597 220.974 105.49 220.625 74.8487C220.271 43.6822 204.092 21.1025 184.392 16.0728C159.869 9.81174 140.21 16.0811 128.034 23.3229C128.143 23.442 128.25 23.5604 128.355 23.678L118.645 32.3219C118.342 31.9813 118.007 31.6272 117.64 31.2619ZM117.48 14.6521C102.344 4.75145 76.5072 -4.36403 46.1025 3.48423C19.0098 10.4776 0.897972 39.9545 0.506599 74.774C0.109564 110.097 17.5923 151.97 62.5388 187.083C62.6514 187.171 62.7668 187.255 62.8849 187.336L114.437 222.397L115.628 224.168L116.338 223.69L117.345 224.375L119.051 221.865L170.628 187.168C170.746 187.089 170.862 187.005 170.974 186.918C216.353 151.853 234.026 110.019 233.625 74.701C233.229 39.8676 214.908 10.4472 187.608 3.4769C156.689 -4.41726 131.982 4.77099 117.48 14.6521ZM153.459 58.9104C134.326 54.035 120.752 63.0667 116.827 67.4191L116.608 67.2214L116.221 67.5783C112.28 63.3038 96.8402 53.9715 77.0434 58.9064C66.8085 61.4576 57.7038 73.2045 57.5033 90.4312C57.3084 107.177 65.8506 128.513 90.5231 147.193L115.668 163.708L140.204 147.234C164.303 128.581 172.688 107.242 172.497 90.438C172.3 73.1137 163.339 61.4279 153.459 58.9104ZM116.214 179L147.63 157.907C147.748 157.827 147.864 157.744 147.976 157.657C174.961 136.847 185.741 111.78 185.496 90.29C185.257 69.2812 174.141 50.7651 156.669 46.3129C139.483 41.9335 125.37 46.1671 116.185 51.5938C106.359 46.1617 91.29 41.9573 73.8991 46.2923C56.1711 50.7114 44.7499 69.1696 44.5042 90.2799C44.2533 111.833 55.3056 136.909 82.8607 157.697C82.9734 157.782 83.089 157.863 83.207 157.941L115.425 179.102L115.623 179.396L115.747 179.313L115.93 179.433L116.214 179ZM120.366 94.6823C119.953 94.9494 119.777 95.1356 119.796 95.1153L116.536 92.1333L113.259 95.207C113.264 95.2126 113.258 95.2077 113.24 95.1938C113.105 95.0885 112.304 94.4648 110.844 93.9908C109.341 93.503 107.422 93.272 105.238 93.8073C104.55 93.976 102.547 95.3336 102.501 99.2356C102.46 102.697 104.234 107.973 110.954 113.019L116.204 116.408L121.26 113.063C127.775 108.046 129.54 102.765 129.499 99.2363C129.453 95.2223 127.437 93.9333 126.914 93.8021C124.82 93.276 123.145 93.5128 121.915 93.9379C121.28 94.157 120.757 94.4296 120.366 94.6823ZM116.28 126.933L118.587 130.42L128.619 123.781C128.737 123.703 128.853 123.621 128.966 123.536C138.369 116.387 142.594 107.371 142.498 99.0862C142.408 91.2574 138.131 83.2157 130.081 81.1937C124.656 79.831 119.942 80.6279 116.338 82.1649C112.533 80.6278 107.603 79.8433 102.144 81.1809C94.044 83.1657 89.5957 91.1397 89.5016 99.0817C89.4027 107.437 93.7701 116.461 103.372 123.581C103.485 123.665 103.6 123.745 103.718 123.821L114.002 130.461L116.28 126.933Z"/>
</svg>
