<svg width="91" height="90" viewBox="0 0 91 90" fill="#0C4767" xmlns="http://www.w3.org/2000/svg">
<g id="maze9">
<path d="M86.551 27.5118C83.108 19.3512 77.3339 12.3879 69.9517 7.49409C62.5695 2.60024 53.9074 -0.00661985 45.0505 1.26245e-05C44.8716 1.26245e-05 44.6948 1.26245e-05 44.5179 1.26245e-05H44.4627C36.3415 0.0787229 30.0592 1.79706 23.7196 5.76937L23.7064 5.77653C23.6677 5.79702 23.6308 5.82061 23.596 5.84706C22.5792 6.48901 21.557 7.18956 20.5294 7.94872C20.4336 8.01528 20.352 8.10041 20.2897 8.19905C20.2273 8.29769 20.1854 8.40785 20.1664 8.52299C20.1474 8.63813 20.1517 8.75592 20.1791 8.86937C20.2064 8.98281 20.2563 9.08961 20.3257 9.18344C20.3951 9.27726 20.4826 9.3562 20.5831 9.41558C20.6835 9.47496 20.7949 9.51357 20.9105 9.52911C21.0262 9.54466 21.1438 9.53684 21.2564 9.5061C21.3689 9.47537 21.4742 9.42234 21.5659 9.35018C22.3155 8.79682 23.0583 8.27788 23.7943 7.79335L27.6785 15.051C27.7529 15.1903 27.8637 15.3067 27.9991 15.3879C28.1345 15.4691 28.2894 15.512 28.4472 15.5121C28.56 15.5118 28.6718 15.4899 28.7764 15.4477L34.9974 12.9095C35.1986 12.8288 35.3624 12.676 35.4569 12.4809C35.5515 12.2858 35.5698 12.0625 35.5085 11.8546L34.199 7.43455C34.1652 7.31993 34.1081 7.21351 34.0314 7.12189C33.9546 7.03028 33.8599 6.95544 33.753 6.90203C33.6461 6.84862 33.5293 6.81779 33.41 6.81145C33.2906 6.80511 33.1713 6.8234 33.0593 6.86518L29.5399 8.17463C29.3231 8.25515 29.147 8.41853 29.0506 8.62883C28.9542 8.83912 28.9453 9.07911 29.0258 9.296C29.1063 9.51288 29.2697 9.6889 29.48 9.78533C29.6903 9.88175 29.9302 9.89069 30.1471 9.81017L32.7925 8.82578L33.6103 11.595L28.8469 13.5372L25.2693 6.86007C30.8913 3.48064 36.5255 1.93506 43.6164 1.75617V4.87085L36.6931 5.68862C36.4685 5.70981 36.2608 5.81738 36.1139 5.98866C35.967 6.15994 35.8923 6.38156 35.9056 6.60683C35.9188 6.83211 36.019 7.04344 36.185 7.19631C36.3509 7.34919 36.5698 7.43167 36.7954 7.42638C36.8295 7.42637 36.8637 7.42432 36.8976 7.42024L39.9028 7.06656L40.4354 10.7302C40.4655 10.9373 40.5692 11.1266 40.7274 11.2636C40.8856 11.4006 41.0878 11.4761 41.2971 11.4764C41.3395 11.4763 41.3818 11.4732 41.4238 11.4672C41.6526 11.4338 41.8588 11.3109 41.997 11.1256C42.1352 10.9402 42.1941 10.7075 42.1608 10.4787L41.6344 6.86314L44.5915 6.51456C44.8037 6.48974 44.9993 6.38783 45.1412 6.2282C45.2831 6.06856 45.3614 5.86235 45.3612 5.64875V1.74493C47.6845 1.7613 50.0027 1.96367 52.2937 2.35008C52.1148 3.28642 51.7938 4.89947 51.4943 6.37554C51.4509 6.59016 51.4899 6.81327 51.6035 7.00043C51.7172 7.1876 51.8972 7.32508 52.1076 7.38549C52.1843 7.40798 59.8169 9.63946 63.2494 11.3721C65.0664 12.2921 66.795 13.3771 68.4135 14.6135L65.9275 17.5136C65.8501 17.6001 65.7908 17.7011 65.753 17.8109C65.7152 17.9206 65.6997 18.0368 65.7073 18.1526C65.715 18.2684 65.7457 18.3815 65.7977 18.4853C65.8496 18.5891 65.9218 18.6814 66.0099 18.757C66.098 18.8325 66.2003 18.8897 66.3108 18.9252C66.4213 18.9606 66.5378 18.9737 66.6535 18.9635C66.7691 18.9534 66.8815 18.9203 66.9841 18.8662C67.0868 18.812 67.1776 18.7379 67.2513 18.6482L69.775 15.7063C72.587 18.088 74.0426 20.1079 74.0682 20.1396C74.1327 20.2368 74.2161 20.3201 74.3134 20.3844C74.4107 20.4488 74.52 20.493 74.6347 20.5144C74.7494 20.5358 74.8672 20.5339 74.9811 20.509C75.0951 20.484 75.2029 20.4364 75.2982 20.369C75.3934 20.3016 75.4741 20.2158 75.5356 20.1166C75.5971 20.0174 75.638 19.9069 75.656 19.7917C75.674 19.6764 75.6687 19.5587 75.6403 19.4455C75.612 19.3323 75.5612 19.2259 75.491 19.1327C75.3326 18.9089 71.5148 13.5924 64.0426 9.81631C61.0865 8.32183 55.4308 6.55852 53.3659 5.9319C53.4569 5.47804 53.5775 4.878 53.6971 4.27592C53.829 3.61148 53.9343 3.07176 54.0109 2.66798C64.7684 4.94036 74.0661 11.2188 80.2636 19.8626L76.1902 22.503C76.0019 22.6312 75.8713 22.8281 75.8263 23.0514C75.7813 23.2748 75.8255 23.5069 75.9495 23.698C76.0735 23.8892 76.2673 24.0243 76.4896 24.0743C76.7119 24.1243 76.9449 24.0854 77.1388 23.9657L81.2429 21.308C83.3326 24.4831 84.994 27.9201 86.1841 31.5301L82.0003 32.63C81.7839 32.6866 81.5975 32.8244 81.4799 33.0147C81.3623 33.205 81.3224 33.4333 81.3686 33.6522L82.9233 41.1021C82.9644 41.2979 83.0715 41.4736 83.2267 41.5998C83.3819 41.726 83.5758 41.795 83.7758 41.7952C83.8359 41.795 83.8958 41.7889 83.9547 41.7768C84.1811 41.7296 84.3794 41.5944 84.5061 41.401C84.6328 41.2075 84.6775 40.9717 84.6303 40.7453L83.2484 34.1061L86.7003 33.1973C87.7963 37.0506 88.3509 41.0376 88.348 45.0437C88.348 53.5874 86.0379 61.5586 82.0565 68.2714L78.1722 65.5943C77.9875 65.4672 77.7609 65.4161 77.5395 65.4517C77.3182 65.4873 77.119 65.6068 76.9834 65.7854L75.259 68.0619L68.9562 63.3413C68.7887 63.2156 68.5815 63.1544 68.3725 63.169C68.1636 63.1837 67.9669 63.2732 67.8186 63.421L64.5813 66.639L57.5283 58.3826C58.7488 57.1552 59.7926 55.7639 60.6296 54.2487L62.8262 55.2955L60.7982 58.2599C60.7336 58.3543 60.6882 58.4606 60.6646 58.5726C60.641 58.6846 60.6397 58.8001 60.6608 58.9126C60.6819 59.025 60.7249 59.1323 60.7874 59.2281C60.8499 59.324 60.9307 59.4066 61.0251 59.4712C61.1196 59.5359 61.2258 59.5813 61.3378 59.6048C61.4498 59.6284 61.5653 59.6297 61.6778 59.6086C61.7903 59.5876 61.8975 59.5445 61.9933 59.482C62.0892 59.4195 62.1718 59.3387 62.2364 59.2443L64.8399 55.4417C64.9111 55.3378 64.959 55.2198 64.9802 55.0956C65.0014 54.9715 64.9955 54.8443 64.9629 54.7227C64.9302 54.6011 64.8716 54.488 64.7911 54.3912C64.7106 54.2943 64.6101 54.2161 64.4965 54.1619L61.4126 52.6909C61.9511 51.4905 62.3695 50.2396 62.6617 48.9568C63.3342 46.0118 62.7976 41.8636 62.5226 40.1545L73.2371 36.8885C73.3332 37.4416 73.46 38.1643 73.5939 38.8849C73.7544 39.7579 73.8934 40.4591 74.0027 40.9702C74.2072 41.8902 74.3094 42.3502 74.7939 42.5618C74.9295 42.6211 75.0779 42.6453 75.2253 42.6321C75.3727 42.6188 75.5143 42.5687 75.6372 42.4862C75.7325 42.4228 75.8144 42.3412 75.8781 42.2461C75.9419 42.1511 75.9862 42.0444 76.0086 41.9321C76.031 41.8199 76.0311 41.7043 76.0087 41.592C75.9864 41.4798 75.9421 41.373 75.8785 41.2779L75.8652 41.2575C75.672 40.6217 75.1793 37.9741 74.7868 35.623C74.7664 35.5007 74.7202 35.3842 74.6511 35.2812C74.5821 35.1782 74.4919 35.0911 74.3865 35.0258C74.2811 34.9605 74.163 34.9184 74.0401 34.9024C73.9171 34.8864 73.7922 34.8969 73.6736 34.933L66.1095 37.2381C66.0944 37.197 66.0763 37.157 66.0553 37.1185L62.7414 31.1774L65.6965 28.7415C65.8692 28.5927 65.9768 28.3822 65.9962 28.155C66.0156 27.9278 65.9452 27.7021 65.8002 27.5262C65.6552 27.3503 65.447 27.2382 65.2203 27.2139C64.9936 27.1896 64.7664 27.2551 64.5874 27.3963L57.5191 33.2229C57.4279 33.2948 57.352 33.3842 57.2959 33.4858C57.2398 33.5874 57.2045 33.6992 57.1921 33.8146C57.1797 33.93 57.1906 34.0468 57.2239 34.158C57.2573 34.2692 57.3125 34.3726 57.3863 34.4621C57.4602 34.5517 57.5512 34.6256 57.654 34.6796C57.7568 34.7335 57.8693 34.7664 57.985 34.7763C58.1006 34.7861 58.2171 34.7728 58.3275 34.7371C58.438 34.7013 58.5402 34.6439 58.6281 34.5681L61.3747 32.3039L64.4147 37.7544L61.2776 38.7101C61.0715 38.7729 60.8959 38.9098 60.7847 39.0944C60.6735 39.279 60.6346 39.4983 60.6756 39.7098C60.6837 39.7497 61.2235 42.5782 61.2419 45.4107L57.7899 45.285C57.5703 45.2936 57.3619 45.3849 57.2067 45.5405C57.0514 45.6962 56.9607 45.9048 56.9527 46.1245C56.9447 46.3442 57.02 46.5588 57.1635 46.7254C57.307 46.892 57.5081 46.9982 57.7266 47.0227L61.1754 47.1495C61.1358 47.625 61.0645 48.0973 60.9618 48.5632C59.6207 54.4358 55.8079 57.5965 55.7711 57.6261C55.6803 57.6992 55.6051 57.7897 55.5499 57.8923C55.4947 57.995 55.4608 58.1077 55.45 58.2237C55.4392 58.3397 55.4519 58.4567 55.4872 58.5678C55.5225 58.6789 55.5798 58.7817 55.6556 58.8702L57.6836 61.2437L54.6171 63.3086C54.4255 63.4379 54.2931 63.6379 54.2489 63.8648C54.2047 64.0917 54.2525 64.3268 54.3816 64.5185C54.5107 64.7102 54.7106 64.8428 54.9375 64.8872C55.1643 64.9315 55.3994 64.884 55.5912 64.755L58.8223 62.5777L63.8658 68.4861C63.9438 68.5773 64.0398 68.6513 64.1478 68.7037C64.2558 68.7561 64.3734 68.7857 64.4933 68.7906C64.6132 68.7955 64.7328 68.7756 64.8447 68.7322C64.9566 68.6888 65.0583 68.6227 65.1435 68.5382L68.5167 65.1864L74.9053 69.9796C75.0896 70.1179 75.3211 70.1777 75.5493 70.1457C75.7775 70.1137 75.9837 69.9926 76.1227 69.8088L77.8697 67.5058L81.1406 69.7547C78.3853 74.0266 74.8784 77.7635 70.79 80.7843L68.345 77.1412L73.6726 72.671C73.8497 72.5219 73.9604 72.3085 73.9803 72.0778C74.0001 71.8471 73.9275 71.618 73.7784 71.4408C73.6293 71.2636 73.4159 71.153 73.1852 71.1331C72.9545 71.1133 72.7253 71.1859 72.5482 71.335L70.2115 73.2966L67.8124 70.7881C67.7343 70.7015 67.6397 70.6314 67.534 70.582C67.4283 70.5326 67.3138 70.5049 67.1973 70.5005C67.0807 70.4962 66.9645 70.5152 66.8554 70.5566C66.7464 70.598 66.6467 70.6608 66.5624 70.7414C66.4781 70.822 66.4108 70.9187 66.3645 71.0257C66.3182 71.1328 66.2938 71.248 66.2928 71.3647C66.2919 71.4813 66.3143 71.5969 66.3588 71.7047C66.4034 71.8125 66.4691 71.9103 66.5521 71.9923L68.8724 74.42L66.6236 76.3081C66.4589 76.4462 66.351 76.6403 66.3206 76.8531C66.2902 77.0659 66.3395 77.2824 66.4591 77.4611L69.3569 81.784C67.4762 83.045 65.489 84.1395 63.4181 85.0551C63.4348 84.8933 63.4057 84.73 63.3343 84.5839L61.2899 80.4061C61.2417 80.2999 61.1727 80.2045 61.087 80.1254C61.0013 80.0463 60.9005 79.9853 60.7908 79.9458C60.6811 79.9064 60.5645 79.8894 60.4481 79.8957C60.3317 79.9021 60.2177 79.9318 60.1129 79.983C60.0082 80.0343 59.9147 80.106 59.8382 80.1939C59.7616 80.2819 59.7035 80.3843 59.6672 80.4952C59.6309 80.606 59.6173 80.723 59.627 80.8392C59.6367 80.9554 59.6697 81.0685 59.7239 81.1717L61.7683 85.3495C61.8245 85.464 61.9051 85.5648 62.0044 85.6449C59.725 86.5451 57.3626 87.2189 54.9514 87.6566L54.1172 83.6465C54.4239 83.5821 54.7909 83.5054 55.1537 83.4257C55.7119 83.3031 56.1626 83.1978 56.4918 83.1129C57.1051 82.9555 57.5088 82.8522 57.701 82.3974C57.7736 82.227 57.79 82.038 57.748 81.8577C57.7059 81.6774 57.6076 81.5152 57.4672 81.3945C57.3268 81.2738 57.1517 81.2009 56.9671 81.1864C56.7826 81.1719 56.5982 81.2165 56.4407 81.3138C56.0318 81.4518 54.338 81.8249 52.9142 82.1101C52.8013 82.1327 52.6941 82.1773 52.5987 82.2415C52.5032 82.3057 52.4214 82.3882 52.358 82.4842C52.2946 82.5802 52.2509 82.6878 52.2293 82.8008C52.2078 82.9138 52.2088 83.03 52.2323 83.1426L53.2269 87.9224C51.5923 88.1405 49.945 88.2497 48.2959 88.2495C48.07 88.2573 47.8559 88.3525 47.6988 88.5151C47.5417 88.6776 47.4539 88.8949 47.4539 89.121C47.4539 89.347 47.5417 89.5643 47.6988 89.7269C47.8559 89.8895 48.07 89.9847 48.2959 89.9924C53.8714 89.9922 59.3808 88.7861 64.4464 86.4566C69.4172 84.1883 73.8924 80.9469 77.745 76.8233C81.6171 72.6714 84.6759 67.83 86.7626 62.5501C88.9738 56.979 90.1033 51.0376 90.0909 45.0437C90.102 39.0212 88.8981 33.0582 86.551 27.5118Z"/>
<path d="M36.4715 82.0477C31.3606 81.2075 27.7492 78.7419 27.7135 78.7163C27.5235 78.5985 27.2956 78.5581 27.0767 78.6035C26.8578 78.6489 26.6647 78.7767 26.5373 78.9603C26.4099 79.144 26.358 79.3696 26.3921 79.5905C26.4263 79.8115 26.544 80.0108 26.7209 80.1474C26.8794 80.2578 30.6757 82.8583 36.1884 83.7661C39.9275 84.3794 44.559 84.4816 47.1574 84.4816C48.3125 84.4816 49.0658 84.4622 49.1598 84.4591C49.2799 84.4557 49.398 84.4275 49.5067 84.3763C49.6154 84.3251 49.7124 84.252 49.7916 84.1617C49.8707 84.0713 49.9304 83.9655 49.9668 83.851C50.0032 83.7365 50.0156 83.6157 50.0031 83.4962C50.0031 83.4962 49.8437 81.9792 49.6546 80.2016C51.524 79.9461 53.3774 79.5851 55.2061 79.1201C57.444 78.5525 59.5877 77.6631 61.5702 76.4797L63.3672 79.6036C63.4437 79.7365 63.5539 79.8469 63.6867 79.9235C63.8195 80.0002 63.9702 80.0404 64.1236 80.0401C64.2758 80.0404 64.4254 80.0002 64.557 79.9236C64.6562 79.8666 64.7433 79.7906 64.8131 79.6999C64.883 79.6092 64.9343 79.5057 64.9641 79.3952C64.9939 79.2847 65.0016 79.1694 64.9868 79.0559C64.972 78.9424 64.935 78.8329 64.8779 78.7337L58.4065 67.4894C58.2914 67.2895 58.1017 67.1434 57.8791 67.0831C57.6565 67.0227 57.419 67.0531 57.2187 67.1674C55.9962 67.84 54.7136 68.3971 53.3876 68.8316L49.8928 58.1535L50.0451 58.0881C54.5192 56.0846 57.3025 51.6257 57.4139 51.4366C57.5266 51.2401 57.5583 51.0075 57.5024 50.788C57.4465 50.5685 57.3074 50.3793 57.1146 50.2606C56.9217 50.1419 56.6902 50.1028 56.4691 50.1517C56.2479 50.2007 56.0545 50.3337 55.9298 50.5227C55.2075 51.6195 54.373 52.638 53.4397 53.5618L51.8431 51.8353C53.0012 50.6986 54.9781 48.0531 54.2605 43.7056C54.0364 42.2504 53.4982 40.8615 52.6833 39.6352L54.7277 38.154C55.3858 39.1446 55.9652 40.1853 56.4603 41.2666C56.5027 41.3757 56.5666 41.475 56.6483 41.5589C56.7299 41.6427 56.8276 41.7092 56.9355 41.7544C57.0434 41.7997 57.1592 41.8228 57.2762 41.8223C57.3932 41.8219 57.509 41.7979 57.6165 41.7518C57.724 41.7057 57.8211 41.6384 57.9021 41.5539C57.9831 41.4695 58.0463 41.3696 58.0878 41.2602C58.1294 41.1509 58.1486 41.0343 58.1441 40.9173C58.1397 40.8004 58.1118 40.6856 58.062 40.5797C57.2915 38.8832 56.3277 37.2814 55.1897 35.806C55.1572 35.7646 55.1213 35.726 55.0824 35.6905L52.208 33.1135L55.3767 27.0293L58.1755 28.8314C58.3562 28.948 58.5736 28.9936 58.7859 28.9595C58.9982 28.9253 59.1904 28.8138 59.3254 28.6464L62.1876 25.0993C62.2609 25.0085 62.3153 24.9038 62.3474 24.7915C62.3795 24.6792 62.3888 24.5615 62.3745 24.4456C62.3603 24.3297 62.323 24.2178 62.2647 24.1165C62.2064 24.0153 62.1284 23.9268 62.0353 23.8563C60.7353 22.9066 59.3806 22.0342 57.9782 21.2436C56.309 20.2939 52.8141 18.8925 52.6628 18.8312C52.5488 18.7855 52.4263 18.7644 52.3035 18.7693C52.1808 18.7743 52.0604 18.8051 51.9504 18.8599C51.8403 18.9146 51.7431 18.992 51.6651 19.0869C51.587 19.1818 51.53 19.2922 51.4976 19.4107L50.271 23.9034C50.2166 24.1242 50.2506 24.3574 50.3658 24.5535C50.481 24.7496 50.6682 24.8929 50.8875 24.9529C51.1069 25.0129 51.3409 24.9848 51.5399 24.8747C51.7388 24.7646 51.8868 24.5811 51.9524 24.3634L52.9286 20.8173C54.0816 21.2977 56.0524 22.1462 57.1196 22.7544C58.477 23.5262 59.5789 24.253 60.2536 24.7201L58.4627 26.9383L55.5188 25.0431C55.417 24.9773 55.3026 24.9335 55.1829 24.9145C55.0632 24.8955 54.9408 24.9017 54.8236 24.9326C54.7064 24.9636 54.597 25.0187 54.5023 25.0944C54.4077 25.1701 54.3298 25.2648 54.2738 25.3723L52.5882 28.6045L47.5295 26.8841L48.059 18.732C48.0614 18.5088 47.9782 18.2932 47.8265 18.1296C47.6748 17.9659 47.4661 17.8666 47.2434 17.8522C47.0207 17.8378 46.8009 17.9093 46.6294 18.0521C46.4578 18.1948 46.3476 18.3979 46.3213 18.6196L46.0616 22.6062C44.7328 22.4702 41.6938 22.3915 37.5918 23.7173C36.725 23.9974 35.8778 24.3348 35.0558 24.7273L31.6376 19.0213C34.5777 17.5439 37.7175 16.5033 40.9579 15.9322L41.2451 18.5368L36.6146 19.5191C36.4043 19.5642 36.2182 19.6855 36.0919 19.8595C35.9656 20.0336 35.9081 20.2482 35.9304 20.4621C35.9527 20.676 36.0533 20.8741 36.2128 21.0184C36.3723 21.1626 36.5795 21.2428 36.7945 21.2436C36.8576 21.2442 36.9207 21.2384 36.9826 21.2262L42.3848 20.0803C42.5965 20.0354 42.7839 19.9135 42.9106 19.7382C43.0374 19.5629 43.0944 19.3467 43.0707 19.1317L42.6894 15.6776C45.5137 15.3383 47.3148 15.5059 47.3516 15.51C47.5787 15.5342 47.8063 15.4682 47.9851 15.326C48.1639 15.1839 48.2797 14.9772 48.3074 14.7505L48.7346 11.3199C50.7592 11.6603 52.7617 12.1204 54.7317 12.6979C57.3761 13.4605 59.0443 14.224 59.8825 14.6626L58.6907 17.0474C57.9138 16.6763 57.2085 16.3605 56.6923 16.1356C53.3764 14.6922 53.0911 14.7883 52.8152 14.8803C52.6223 14.9448 52.4581 15.0746 52.3508 15.2474C52.2436 15.4201 52.2001 15.6249 52.2278 15.8264C52.2556 16.0278 52.3529 16.2132 52.5029 16.3505C52.6529 16.4878 52.8461 16.5683 53.0492 16.5782C53.8046 16.7673 58.4545 18.6543 61.2267 20.3767C64.1031 22.1646 67.3761 25.9764 67.4088 26.0142C67.5539 26.1841 67.7586 26.2919 67.9807 26.3153C68.2029 26.3387 68.4255 26.2759 68.6028 26.14L71.4301 23.9708C72.4486 25.331 73.3888 26.748 74.2462 28.215L67.1819 31.7928C66.9828 31.9013 66.8337 32.0831 66.7664 32.2996C66.6991 32.5162 66.7188 32.7505 66.8213 32.9527C66.9238 33.155 67.1011 33.3094 67.3156 33.3831C67.5301 33.4568 67.7648 33.4441 67.97 33.3476L75.0936 29.7361C76.0136 31.4831 76.8763 33.4488 77.4201 35.4554C79.0811 41.5835 78.662 47.589 78.6569 47.6483C78.6399 47.8757 78.7126 48.1006 78.8596 48.2749C79.0066 48.4493 79.216 48.559 79.443 48.5805L83.1024 48.9363C82.9958 50.2746 82.769 51.6007 82.4247 52.8984C81.607 55.8025 79.8693 59.8157 79.1036 61.5299L69.2498 56.4086C70.0338 54.8671 70.9006 52.9771 70.9436 52.883C70.9948 52.771 71.0217 52.6494 71.0225 52.5262C71.0234 52.403 70.9981 52.281 70.9483 52.1683C70.8986 52.0556 70.8255 51.9547 70.734 51.8723C70.6424 51.7898 70.5344 51.7278 70.4171 51.6901L66.6351 50.4798L67.4886 43.3683L70.2352 43.08L69.6791 46.8326C69.6456 47.0597 69.703 47.2909 69.8389 47.4759C69.9747 47.661 70.1781 47.785 70.4049 47.821L74.2892 48.4344L73.4714 53.3911C73.4362 53.6012 73.4792 53.8169 73.5922 53.9975C73.7052 54.1781 73.8804 54.3111 74.0847 54.3714L78.1152 55.5346C78.3364 55.5957 78.5728 55.5671 78.7731 55.4551C78.9734 55.343 79.1214 55.1564 79.185 54.9359C79.2486 54.7154 79.2228 54.4787 79.113 54.2771C79.0033 54.0756 78.8184 53.9254 78.5987 53.8592L75.3144 52.9147L76.1526 47.8578C76.1714 47.7444 76.1676 47.6284 76.1415 47.5165C76.1153 47.4046 76.0672 47.2989 76.0001 47.2056C75.9329 47.1123 75.8479 47.0332 75.7501 46.9729C75.6522 46.9126 75.5434 46.8722 75.4299 46.854L71.5344 46.2407L72.1293 42.2285C72.1487 42.097 72.1378 41.9627 72.0974 41.836C72.057 41.7093 71.9881 41.5936 71.8961 41.4976C71.804 41.4016 71.6913 41.328 71.5664 41.2823C71.4415 41.2366 71.3078 41.22 71.1756 41.2339L66.6187 41.7144C66.4223 41.7349 66.2387 41.8216 66.0979 41.9601C65.9571 42.0986 65.8676 42.2809 65.8439 42.4769L64.8217 50.9919C64.7975 51.193 64.8441 51.3962 64.9534 51.5667C65.0627 51.7372 65.2279 51.8643 65.4207 51.9262L68.9421 53.0507C68.5118 53.9656 67.831 55.3895 67.3066 56.3688C66.4475 57.9391 65.4916 59.4545 64.4445 60.9064C64.3141 61.0927 64.2617 61.3226 64.2984 61.547C64.3351 61.7714 64.4581 61.9727 64.641 62.1077C64.824 62.2428 65.0524 62.3011 65.2777 62.2701C65.503 62.2391 65.7073 62.1213 65.8469 61.9419C66.7768 60.6566 67.6377 59.3227 68.4259 57.946L79.1179 63.5028C79.2416 63.569 79.3794 63.604 79.5196 63.605C79.6857 63.6052 79.8484 63.5578 79.9884 63.4685C80.1284 63.3792 80.24 63.2517 80.3098 63.101C80.4192 62.8649 83.0084 57.2816 84.1052 53.3747C85.2214 49.3983 84.9648 44.5101 84.9536 44.3036C84.9274 44.0834 84.8183 43.8815 84.6485 43.7389C84.4787 43.5963 84.261 43.5238 84.0396 43.536C83.8182 43.5483 83.6098 43.6444 83.4568 43.8048C83.3038 43.9653 83.2176 44.178 83.2159 44.3997C83.2159 44.4232 83.2782 45.5865 83.2159 47.2016L80.4417 46.9317C80.504 45.0048 80.4897 40.1095 79.1067 35.0046C78.5251 32.8579 77.6215 30.7839 76.6596 28.95L78.98 27.7745L80.3088 30.4322C80.3578 30.5381 80.4277 30.6331 80.5141 30.7115C80.6005 30.79 80.7018 30.8502 80.812 30.8888C80.9222 30.9273 81.039 30.9433 81.1554 30.9359C81.2719 30.9285 81.3857 30.8978 81.4901 30.8455C81.5945 30.7933 81.6873 30.7207 81.7631 30.6319C81.8389 30.5431 81.896 30.44 81.9313 30.3288C81.9665 30.2175 81.979 30.1003 81.968 29.9841C81.9571 29.8679 81.923 29.755 81.8676 29.6523L80.1483 26.2146C80.0969 26.1119 80.0257 26.0204 79.9388 25.9453C79.8519 25.8703 79.7511 25.8131 79.6421 25.7771C79.533 25.7411 79.418 25.727 79.3035 25.7356C79.189 25.7442 79.0773 25.7753 78.9748 25.8272L75.8183 27.4279C74.7652 25.601 73.5779 23.8547 72.2663 22.2034C72.1226 22.0288 71.9168 21.9167 71.6921 21.891C71.4674 21.8652 71.2415 21.9278 71.0621 22.0654L68.1867 24.2724C67.093 23.0651 64.5518 20.4002 62.1487 18.9068C61.5589 18.5398 60.9078 18.1769 60.2536 17.8355L61.8134 14.7157C61.9079 14.527 61.9306 14.3105 61.8774 14.1063C61.8242 13.9021 61.6987 13.7242 61.5242 13.6056C61.4465 13.5525 59.5585 12.2849 55.2183 11.0327C53.1607 10.4299 51.0686 9.95196 48.9534 9.60161L49.3745 6.21401C49.3927 6.09855 49.3875 5.98062 49.3593 5.86721C49.331 5.7538 49.2802 5.64723 49.2099 5.55384C49.1396 5.46045 49.0513 5.38214 48.9501 5.32357C48.849 5.265 48.7371 5.22737 48.6211 5.21291C48.5051 5.19844 48.3874 5.20745 48.275 5.23938C48.1626 5.27131 48.0577 5.32552 47.9667 5.39879C47.8756 5.47206 47.8002 5.56289 47.7449 5.66589C47.6897 5.76888 47.6557 5.88193 47.645 5.99832L46.681 13.7385C44.3086 13.6598 37.37 13.8622 29.6536 18.1156C28.3014 18.8622 27.0104 19.7147 25.7928 20.665L23.267 18.0809C23.1865 17.9984 23.0905 17.9326 22.9845 17.8875C22.8784 17.8424 22.7645 17.8188 22.6492 17.818C22.534 17.8173 22.4198 17.8394 22.3132 17.8831C22.2065 17.9268 22.1096 17.9912 22.0281 18.0727L17.1216 22.9619C16.9722 23.1274 16.8919 23.3439 16.8972 23.5668C16.9025 23.7897 16.993 24.0021 17.15 24.1604C17.3071 24.3186 17.5188 24.4107 17.7417 24.4177C17.9645 24.4246 18.1816 24.3459 18.3482 24.1978L22.6363 19.929L24.4445 21.7782C20.7177 25.0441 18.613 28.4962 17.7738 30.0642L11.792 26.6838C12.7119 25.0626 15.0302 21.172 17.3506 18.9743C19.6709 16.7765 23.6595 13.392 23.6994 13.3582C23.7946 13.287 23.8742 13.1971 23.9333 13.0939C23.9925 12.9908 24.03 12.8766 24.0434 12.7585C24.0568 12.6403 24.0459 12.5207 24.0114 12.4069C23.9769 12.2931 23.9194 12.1876 23.8426 12.0968C23.7658 12.0061 23.6713 11.932 23.5648 11.8791C23.4583 11.8262 23.3421 11.7957 23.2234 11.7894C23.1046 11.783 22.9859 11.8011 22.8744 11.8423C22.7628 11.8836 22.661 11.9473 22.575 12.0294C22.5351 12.0631 18.5118 15.4763 16.1546 17.7088C12.9767 20.7202 9.97043 26.372 9.84471 26.6112C9.7384 26.8118 9.71458 27.0459 9.77835 27.2638C9.84212 27.4816 9.98845 27.666 10.1861 27.7775L17.7165 32.034C17.8475 32.1081 17.9954 32.1472 18.1458 32.1475C18.2386 32.1476 18.3307 32.1328 18.4188 32.1035C18.5341 32.0654 18.6402 32.0036 18.7303 31.9221C18.8204 31.8406 18.8926 31.7412 18.9421 31.6303C18.9748 31.5567 22.2448 24.3726 30.1115 19.8615L33.5256 25.5593C31.4189 26.7942 30.273 27.9799 30.2025 28.0546C30.0506 28.2231 29.9704 28.4442 29.9789 28.6709C29.9873 28.8976 30.0838 29.112 30.2479 29.2688C30.4119 29.4255 30.6305 29.5121 30.8574 29.5102C31.0842 29.5083 31.3014 29.4181 31.4628 29.2587C31.4863 29.2342 33.8915 26.7656 38.1407 25.3927C42.025 24.1374 44.8728 24.2499 45.9615 24.3705L45.757 27.4586C45.7446 27.6501 45.7956 27.8403 45.9023 27.9998C46.0089 28.1592 46.1652 28.2791 46.3468 28.3408L51.7828 30.1889L50.3568 32.9233C50.2669 33.095 50.2367 33.2917 50.2712 33.4824C50.3056 33.6731 50.4026 33.8469 50.5469 33.9762L53.6697 36.7638L51.5712 38.2869C49.8992 36.6304 47.6464 35.6925 45.2929 35.6731H45.249C41.5804 35.6935 39.3122 37.3321 38.0549 38.7039C36.3039 40.6165 35.3798 43.2415 35.5843 45.7255C35.8398 48.8269 37.415 51.361 40.1391 53.0537C41.3779 53.8233 42.742 54.3696 44.1696 54.6678C44.2839 54.6914 44.4019 54.6917 44.5164 54.6688C44.6309 54.6459 44.7396 54.6002 44.8361 54.5345C44.9326 54.4687 45.0149 54.3843 45.0782 54.2861C45.1415 54.188 45.1844 54.0781 45.2043 53.9631C45.2243 53.848 45.221 53.7301 45.1946 53.6164C45.1682 53.5027 45.1192 53.3954 45.0505 53.3009C44.9818 53.2065 44.8949 53.1268 44.7948 53.0666C44.6948 53.0064 44.5836 52.9669 44.468 52.9505C44.4016 52.9393 37.8239 51.7238 37.322 45.5824C37.1594 43.6034 37.9353 41.4189 39.3408 39.8815C40.363 38.7663 42.2192 37.4333 45.2582 37.417H45.2929C48.2685 37.417 51.795 39.4675 52.5412 43.9867C53.3283 48.7482 50.2301 50.948 50.1013 51.04C49.9971 51.1103 49.9094 51.2023 49.8441 51.3098C49.7788 51.4172 49.7375 51.5374 49.7231 51.6623C49.7086 51.7871 49.7213 51.9136 49.7603 52.0331C49.7993 52.1526 49.8637 52.2623 49.949 52.3545L52.1467 54.7302C51.2892 55.4388 50.3433 56.0329 49.3326 56.4976C47.4804 57.3266 44.8687 57.4002 42.1691 56.702C39.4696 56.0038 37.1226 54.6453 35.7294 52.9832C34.7185 51.7801 31.6172 47.3161 34.1164 40.4018C35.1917 37.4282 37.5918 35.2836 41.2563 34.0273C42.9919 33.4392 44.8015 33.0979 46.632 33.0133C46.8497 32.9936 47.0521 32.8929 47.1991 32.731C47.3461 32.5691 47.4268 32.3579 47.4254 32.1393C47.424 31.9206 47.3405 31.7105 47.1915 31.5505C47.0424 31.3905 46.8387 31.2924 46.6208 31.2755H46.6095C45.0356 31.3369 43.474 31.5791 41.9555 31.9972C41.9473 31.9501 41.9357 31.9036 41.9208 31.8582L40.6941 28.3643C40.6559 28.2551 40.5962 28.1547 40.5188 28.0688C40.4413 27.9828 40.3475 27.9132 40.2429 27.8638C40.1383 27.8144 40.0249 27.7864 39.9093 27.7812C39.7938 27.7761 39.6783 27.7939 39.5697 27.8338C39.3786 27.9033 34.8462 29.5838 30.7391 33.6604C30.1189 34.2882 29.5863 34.9968 29.1558 35.7671L26.9652 34.6683L28.8205 31.7294C28.934 31.5495 28.9778 31.3342 28.9435 31.1243C28.9093 30.9143 28.7993 30.7241 28.6345 30.5896L26.1209 28.536C27.0139 27.5026 27.977 26.5319 29.0034 25.6309C29.0921 25.5577 29.1655 25.4677 29.2193 25.3661C29.273 25.2645 29.3062 25.1532 29.3168 25.0388C29.3274 24.9243 29.3153 24.8088 29.2811 24.6991C29.2469 24.5893 29.1913 24.4873 29.1176 24.3991C29.0439 24.3109 28.9535 24.2381 28.8515 24.185C28.7495 24.1319 28.6381 24.0994 28.5235 24.0896C28.409 24.0797 28.2936 24.0926 28.1841 24.1274C28.0745 24.1623 27.9729 24.2185 27.8852 24.2928C27.6572 24.4819 22.2857 29.0083 19.6147 35.5187C19.4931 35.8152 19.3806 36.1106 19.2754 36.403L8.75811 33.2239L9.63515 30.4639C9.70085 30.2591 9.68832 30.0371 9.59997 29.841C9.51162 29.6448 9.35373 29.4884 9.15678 29.4018L5.19276 27.6539C7.85861 21.7158 12.0853 16.6354 17.9199 12.3207C18.1059 12.1832 18.2297 11.9775 18.264 11.7488C18.2983 11.5201 18.2404 11.2872 18.1029 11.1012C17.9655 10.9152 17.7598 10.7915 17.5311 10.7571C17.3024 10.7228 17.0694 10.7808 16.8835 10.9182C5.52089 19.3198 7.11172e-05 30.4833 7.11172e-05 45.0437C-0.010446 51.0453 1.14562 56.9917 3.40394 62.5521C5.54401 67.8463 8.65986 72.6911 12.5893 76.8344C16.4961 80.9529 21.0161 84.1944 26.0258 86.4647C31.1991 88.8158 36.6361 89.9995 42.1855 89.9995C42.3024 90.0035 42.419 89.9839 42.5282 89.9419C42.6375 89.9 42.7371 89.8364 42.8212 89.7551C42.9054 89.6738 42.9723 89.5763 43.018 89.4686C43.0637 89.3609 43.0873 89.2451 43.0873 89.1281C43.0873 89.011 43.0637 88.8952 43.018 88.7875C42.9723 88.6798 42.9054 88.5824 42.8212 88.501C42.7371 88.4197 42.6375 88.3562 42.5282 88.3142C42.419 88.2722 42.3024 88.2526 42.1855 88.2566C34.8452 88.2566 27.8862 86.0374 21.8758 82.2062L24.3965 78.2655C24.5059 78.0948 24.5524 77.8913 24.5279 77.69C24.5035 77.4887 24.4097 77.3022 24.2626 77.1626L22.1078 75.1182L23.7505 73.0185C24.9055 74.0131 25.9911 74.8953 26.7352 75.387C32.4492 79.163 41.6969 80.2497 42.0874 80.2936C42.1213 80.2974 42.1554 80.2992 42.1896 80.2987C42.4118 80.2985 42.6255 80.2134 42.7871 80.0608C42.9487 79.9083 43.0459 79.6998 43.059 79.478C43.072 79.2561 42.9999 79.0377 42.8573 78.8673C42.7147 78.6968 42.5125 78.5873 42.2918 78.561C42.1998 78.5507 33.0656 77.4754 27.7032 73.9314C27.003 73.4693 25.9553 72.6137 24.8319 71.6437L28.8716 66.4805C32.6128 68.9747 37.3301 70.6378 37.5458 70.7135C37.6382 70.7456 37.7353 70.7622 37.8331 70.7625C38.0389 70.7625 38.2382 70.6896 38.3955 70.5568C38.5528 70.4239 38.658 70.2398 38.6925 70.0368C38.7271 69.8338 38.6886 69.6252 38.5841 69.4478C38.4795 69.2704 38.3156 69.1358 38.1213 69.0677C38.0661 69.0483 32.5944 67.1183 28.9748 64.4228C26.1321 62.3058 23.0809 57.2325 23.0462 57.1814C22.93 56.9869 22.7425 56.8452 22.5236 56.7866C22.3047 56.728 22.0716 56.7571 21.8737 56.8676L11.4536 62.6768L9.78439 59.6613C9.6705 59.4629 9.48318 59.3171 9.26282 59.2555C9.04245 59.194 8.80672 59.2215 8.60646 59.3321C8.4062 59.4428 8.25746 59.6278 8.19232 59.8471C8.12719 60.0664 8.15087 60.3026 8.25828 60.5046L10.1902 64.0047C10.2166 64.2275 10.3293 64.4312 10.504 64.572L12.1313 67.5211C12.1856 67.6232 12.2597 67.7136 12.3493 67.7868C12.4389 67.86 12.5421 67.9147 12.653 67.9476C12.7639 67.9806 12.8802 67.9911 12.9953 67.9786C13.1103 67.9662 13.2217 67.9309 13.3229 67.875C13.4242 67.819 13.5133 67.7435 13.5851 67.6527C13.6568 67.562 13.7098 67.4579 13.741 67.3464C13.7721 67.235 13.7807 67.1185 13.7664 67.0037C13.7521 66.8889 13.715 66.7781 13.6574 66.6778L12.2928 64.2061L18.2215 60.8992L20.8189 64.9788C20.897 65.1036 21.0055 65.2065 21.1342 65.278C21.2629 65.3495 21.4076 65.3873 21.5548 65.3877C21.7205 65.3879 21.8826 65.3404 22.0219 65.2508C22.1186 65.1894 22.2022 65.1096 22.268 65.0159C22.3338 64.9222 22.3804 64.8165 22.4053 64.7047C22.4302 64.593 22.4328 64.4774 22.4129 64.3647C22.3931 64.2519 22.3513 64.1442 22.2898 64.0476L19.7476 60.0538L21.9964 58.8016C22.9235 60.2521 25.1519 63.5355 27.4589 65.4572L23.5123 70.4967C21.9197 69.0789 20.3793 67.6427 19.6188 66.9343C19.077 66.4283 19.077 66.4283 19.0055 66.3793C18.8197 66.2555 18.5935 66.2078 18.3735 66.2459C18.1535 66.2839 17.9565 66.405 17.8231 66.584C17.6897 66.763 17.63 66.9864 17.6564 67.2081C17.6828 67.4298 17.7932 67.6329 17.9649 67.7756C18.0181 67.8237 18.2113 68.0025 18.4321 68.209C19.212 68.9358 20.7953 70.4119 22.438 71.8716L20.2485 74.6704C20.1148 74.8413 20.0495 75.0558 20.0654 75.2722C20.0812 75.4886 20.1771 75.6913 20.3343 75.8409L22.5422 77.9333L20.4233 81.2402C17.3411 79.0792 14.5573 76.5214 12.1436 73.6329C12.1858 73.6073 12.2258 73.5782 12.2632 73.546L14.9924 71.1295L16.7996 73.1944C16.8737 73.2849 16.9652 73.3596 17.0687 73.414C17.1722 73.4684 17.2856 73.5014 17.4021 73.5111C17.5187 73.5208 17.636 73.507 17.747 73.4704C17.8581 73.4339 17.9607 73.3753 18.0487 73.2983C18.1367 73.2213 18.2083 73.1273 18.2593 73.0221C18.3102 72.9168 18.3395 72.8024 18.3453 72.6856C18.3511 72.5688 18.3334 72.452 18.2932 72.3422C18.2529 72.2324 18.191 72.1318 18.1111 72.0464L15.7274 69.3212C15.6516 69.2349 15.5596 69.1643 15.4565 69.1137C15.3535 69.063 15.2414 69.0331 15.1268 69.0258C15.0122 69.0185 14.8973 69.0339 14.7886 69.071C14.68 69.1082 14.5797 69.1665 14.4936 69.2425L11.1071 72.2396L11.0601 72.2866C7.94656 68.2569 5.54399 63.725 3.95591 58.8865L12.5422 56.148C12.7577 56.0739 12.9356 55.9184 13.0379 55.7148C13.1401 55.5112 13.1587 55.2757 13.0895 55.0586C13.0203 54.8415 12.8688 54.6601 12.6676 54.5533C12.4664 54.4464 12.2313 54.4226 12.0127 54.4869L8.568 55.5858L7.66745 52.3586C7.6017 52.1402 7.45293 51.9562 7.25307 51.8461C7.05321 51.7361 6.81818 51.7088 6.59841 51.77C6.37863 51.8313 6.19162 51.9763 6.07751 52.1738C5.96339 52.3714 5.93127 52.6058 5.98802 52.8268L6.90798 56.1153L3.44482 57.2192C2.82544 55.0475 2.37233 52.8318 2.0894 50.5912C4.60908 50.306 11.5436 49.4821 14.144 49.1724C14.5641 52.2493 15.386 54.3274 15.4207 54.4153C15.5018 54.6205 15.6576 54.7873 15.8568 54.8821C16.0559 54.977 16.2836 54.9928 16.494 54.9264L24.0898 52.5058C25.1989 55.3333 27.003 58.7413 29.8314 61.2774C33.8793 64.9134 38.52 66.3731 41.6959 66.9568C41.9003 66.9936 42.0945 67.0263 42.2887 67.059L41.7255 74.2012C39.9077 74.0168 38.105 73.706 36.3305 73.271C33.0288 72.4614 31.4802 71.1704 31.4485 71.1428C31.2741 70.991 31.0465 70.9147 30.8157 70.9307C30.585 70.9467 30.3701 71.0537 30.2183 71.2281C30.0665 71.4026 29.9902 71.6302 30.0062 71.8609C30.0222 72.0916 30.1292 72.3065 30.3037 72.4584C30.3773 72.5217 32.1436 74.0387 35.9155 74.9648C39.5657 75.8603 42.3664 76.0044 42.484 76.0105H42.5269C42.7462 76.0105 42.9575 75.9277 43.1185 75.7788C43.2795 75.6299 43.3785 75.4257 43.3958 75.2071L44.0193 67.2809C44.9853 67.3749 45.8061 67.4015 46.4265 67.4015C47.2085 67.4015 47.6736 67.3596 47.7176 67.3555C47.8317 67.3447 47.9425 67.3115 48.0438 67.2579C48.1451 67.2042 48.2348 67.1311 48.3078 67.0428C48.3809 66.9545 48.4358 66.8526 48.4695 66.7431C48.5031 66.6335 48.5149 66.5184 48.5041 66.4043C48.4933 66.2902 48.4601 66.1794 48.4065 66.0781C48.3529 65.9768 48.2798 65.8871 48.1915 65.814C48.1031 65.741 48.0013 65.6861 47.8917 65.6524C47.7822 65.6187 47.6671 65.6069 47.553 65.6177C47.46 65.6269 38.1724 66.4242 30.9936 59.9782C28.4627 57.7048 26.8027 54.5911 25.7652 51.9702L28.708 51.0349C28.8202 51.0028 28.9248 50.9485 29.0156 50.8753C29.1064 50.8021 29.1816 50.7113 29.2367 50.6085C29.2919 50.5057 29.3258 50.3929 29.3365 50.2767C29.3472 50.1605 29.3345 50.0434 29.2991 49.9322C29.2638 49.821 29.2065 49.7181 29.1306 49.6295C29.0547 49.5408 28.9618 49.4683 28.8574 49.4163C28.753 49.3642 28.6392 49.3336 28.5228 49.3263C28.4064 49.319 28.2896 49.3352 28.1796 49.3738L25.1672 50.3316C24.7828 49.204 24.4734 48.0522 24.2411 46.8837C24.2216 46.7708 24.18 46.663 24.1188 46.5662C24.0576 46.4694 23.9779 46.3857 23.8843 46.3197C23.7907 46.2537 23.685 46.2069 23.5733 46.1817C23.4616 46.1566 23.3461 46.1537 23.2332 46.1732C23.1204 46.1928 23.0125 46.2343 22.9158 46.2956C22.819 46.3568 22.7353 46.4365 22.6693 46.5301C22.6033 46.6236 22.5564 46.7293 22.5313 46.841C22.5062 46.9527 22.5033 47.0683 22.5228 47.1811C22.7623 48.4285 23.0868 49.658 23.4939 50.8611L16.7751 52.9975C16.3576 51.6626 16.0536 50.2948 15.8664 48.9087C15.4718 45.9903 15.5331 42.2224 15.5342 42.1846C15.5462 42.0646 15.5332 41.9435 15.496 41.8289C15.4588 41.7142 15.3983 41.6085 15.3182 41.5185C15.2381 41.4284 15.1402 41.3559 15.0307 41.3056C14.9212 41.2552 14.8025 41.2281 14.682 41.226C14.5614 41.2239 14.4418 41.2468 14.3306 41.2932C14.2194 41.3396 14.119 41.4086 14.0358 41.4958C13.9526 41.583 13.8884 41.6865 13.8472 41.7998C13.806 41.9131 13.7887 42.0336 13.7965 42.1539C13.7965 42.2837 13.7525 44.8403 13.9641 47.4377C11.8472 47.6902 9.37553 47.9836 7.16455 48.2442L6.88447 44.9732C6.86468 44.7427 6.75416 44.5296 6.57722 44.3806C6.40028 44.2317 6.17144 44.1591 5.941 44.1789C5.71057 44.1987 5.49743 44.3092 5.34848 44.4862C5.19953 44.6631 5.12697 44.892 5.14676 45.1224L5.43196 48.4497C3.94366 48.6245 2.6874 48.7717 1.9085 48.8586C1.80015 47.6013 1.74528 46.3307 1.74392 45.0468C1.74392 39.2335 2.66389 33.9875 4.51302 29.2608L7.73493 30.6816L6.82825 33.5377C6.79323 33.6478 6.78044 33.7638 6.79064 33.8789C6.80084 33.994 6.83381 34.1059 6.88764 34.2082C6.94147 34.3104 7.01511 34.4009 7.10423 34.4745C7.19336 34.548 7.29619 34.6031 7.40679 34.6366L10.6778 35.624L9.55337 41.1787L7.29539 40.822L7.56831 37.558C7.57901 37.4433 7.56687 37.3276 7.53259 37.2176C7.49831 37.1076 7.44256 37.0055 7.36859 36.9172C7.29461 36.8289 7.20386 36.7561 7.10159 36.703C6.99931 36.65 6.88753 36.6177 6.77272 36.6082C6.65791 36.5986 6.54236 36.6118 6.4327 36.6472C6.32304 36.6825 6.22146 36.7392 6.13386 36.8141C6.04625 36.8889 5.97436 36.9803 5.92231 37.0831C5.87026 37.1859 5.83908 37.298 5.8306 37.4129L5.4902 41.4844C5.47203 41.7037 5.53749 41.9218 5.67343 42.0949C5.80936 42.268 6.00573 42.3833 6.22312 42.4176L10.1074 43.031C10.1527 43.0382 10.1985 43.042 10.2444 43.0422C10.4454 43.0418 10.6401 42.9719 10.7956 42.8446C10.9511 42.7172 11.0579 42.54 11.0979 42.343L12.348 36.131L18.754 38.0651C18.3909 39.4194 18.1578 40.8054 18.0579 42.204C18.0155 42.3161 17.9971 42.4359 18.0038 42.5556C18.0068 42.6097 18.0147 42.6634 18.0273 42.7161C17.9606 44.2055 18.0246 45.6978 18.2184 47.176C18.2337 47.3018 18.2501 47.4387 18.2593 47.5338C18.214 47.7437 18.2478 47.963 18.3542 48.1495C18.4606 48.3361 18.6321 48.4768 18.8358 48.5448C18.9268 48.575 19.022 48.5906 19.1179 48.5908C19.3217 48.5892 19.5186 48.5169 19.675 48.3863C20.0839 48.0562 20.0338 47.6708 19.95 46.9644C19.7971 45.797 19.7288 44.6202 19.7456 43.4429L23.3119 43.7148C23.3344 43.7148 23.3569 43.7148 23.3794 43.7148C23.585 43.7146 23.7839 43.6418 23.941 43.5092C24.0981 43.3766 24.2033 43.1927 24.2381 42.9901L24.9658 38.7336C25.0047 38.5056 24.9515 38.2715 24.8178 38.0827C24.6841 37.894 24.4809 37.7661 24.2529 37.7272C24.0249 37.6883 23.7908 37.7416 23.602 37.8753C23.4133 38.009 23.2854 38.2122 23.2465 38.4402L22.6537 41.9157L19.8508 41.7021C19.982 40.4084 20.2381 39.1305 20.6154 37.8862C20.6676 37.7914 20.7003 37.6871 20.7115 37.5795C20.8608 37.1165 21.0304 36.6462 21.2226 36.1709C22.2172 33.7462 23.6411 31.5904 25.0047 29.868L26.9366 31.4483L24.9781 34.5517C24.9131 34.6548 24.8704 34.7704 24.8528 34.891C24.8352 35.0117 24.8432 35.1346 24.8761 35.252C24.9091 35.3693 24.9663 35.4785 25.0441 35.5723C25.1219 35.6662 25.2185 35.7426 25.3277 35.7968L28.3891 37.3168C27.1625 40.2209 26.8916 43.2058 26.8763 43.3857C26.8663 43.4996 26.8789 43.6145 26.9133 43.7236C26.9478 43.8327 27.0034 43.9339 27.0769 44.0216C27.1505 44.1092 27.2406 44.1814 27.3421 44.2342C27.4436 44.287 27.5545 44.3193 27.6685 44.3292H27.7451C27.9631 44.3292 28.1731 44.2476 28.3338 44.1003C28.4944 43.9531 28.5941 43.751 28.613 43.5339C28.613 43.4899 28.9196 40.2628 30.229 37.464C30.2683 37.4151 30.3026 37.3624 30.3313 37.3066C30.3613 37.2447 30.3839 37.1795 30.3987 37.1124C30.8027 36.2919 31.3344 35.5408 31.9739 34.887C34.8064 32.077 37.9189 30.4629 39.3592 29.8087L40.2791 32.4276C40.2894 32.4562 40.3016 32.4838 40.3139 32.5114C36.3918 33.9527 33.6881 36.4674 32.4809 39.8059C31.287 43.1097 31.0938 46.2888 31.9065 49.2552C32.3079 50.7302 32.9623 52.1244 33.8404 53.3757L30.87 55.6246C30.7748 55.6923 30.6943 55.7783 30.6331 55.8777C30.5718 55.9771 30.5312 56.0877 30.5135 56.2031C30.4958 56.3185 30.5015 56.4362 30.5302 56.5494C30.5589 56.6625 30.61 56.7688 30.6805 56.8618C30.751 56.9548 30.8395 57.0327 30.9407 57.0909C31.0418 57.1491 31.1536 57.1864 31.2695 57.2006C31.3853 57.2148 31.5029 57.2055 31.6151 57.1734C31.7273 57.1414 31.832 57.0871 31.9228 57.0138L34.9607 54.7097C37.5591 57.3256 41.8799 58.9141 45.7284 58.9141C46.5699 58.9183 47.4096 58.8347 48.2338 58.6647L48.9227 60.7704C47.7186 61.0004 45.4974 61.3418 43.2629 61.2519C40.0737 61.1241 37.5152 59.6807 37.4896 59.6664C37.2893 59.5548 37.0532 59.5265 36.8322 59.5877C36.6113 59.6489 36.4233 59.7947 36.3091 59.9935C36.1948 60.1923 36.1635 60.4281 36.2218 60.6499C36.2801 60.8716 36.4235 61.0614 36.6207 61.1783C36.7393 61.2457 39.5595 62.8486 43.1924 62.9937C43.4704 63.005 43.7474 63.0101 44.0214 63.0101C45.8514 62.9941 47.6757 62.8038 49.4696 62.4417L51.6989 69.2548C50.4009 69.5251 49.0892 69.7258 47.7697 69.8558C47.5392 69.876 47.3263 69.9869 47.1776 70.1642C47.029 70.3414 46.9568 70.5704 46.977 70.8008C46.9972 71.0313 47.1081 71.2443 47.2853 71.3929C47.4625 71.5416 47.6916 71.6138 47.922 71.5936C49.3743 71.453 50.8173 71.2288 52.2438 70.922L53.2843 74.1031C53.3592 74.3192 53.516 74.4972 53.7208 74.5988C53.9257 74.7004 54.1623 74.7175 54.3796 74.6463C54.597 74.5751 54.7776 74.4214 54.8827 74.2182C54.9878 74.0151 55.0088 73.7788 54.9413 73.5603L53.9334 70.4814C55.0969 70.1036 56.2291 69.6357 57.3199 69.082L60.6972 74.9669C58.8532 76.0674 56.8603 76.8964 54.7798 77.4284C53.0288 77.8731 51.2542 78.2195 49.4645 78.4659C49.3684 77.5653 49.2764 76.6985 49.2018 76.0126C49.1568 75.5966 49.1179 75.249 49.0903 75.0057C49.076 74.881 49.0648 74.7829 49.0566 74.7164C48.9483 73.8353 48.2143 73.8486 48.1315 73.8527C47.9083 73.8652 47.6983 73.9628 47.5447 74.1253C47.3911 74.2878 47.3055 74.503 47.3056 74.7267C47.3057 74.786 47.3115 74.8452 47.323 74.9035C47.3874 75.3982 47.8259 79.5178 48.1642 82.7265C46.0105 82.751 40.5899 82.7244 36.4715 82.0477ZM17.97 67.7817L18.0283 67.8247C18.0191 67.8185 17.9976 67.8053 17.97 67.7817Z"/>
</g>
</svg>
