<svg width="88" height="90" viewBox="0 0 88 90" fill="none" xmlns="http://www.w3.org/2000/svg">
<g id="maze6">
<path d="M1.81246 20.287H4.89933V39.9721H6.71066V6.70905H24.1548V4.89784H5.80113C5.68223 4.8977 5.56447 4.92101 5.4546 4.96645C5.34472 5.01188 5.24486 5.07853 5.16079 5.1626C5.07671 5.24667 5.01006 5.34651 4.96463 5.45638C4.91919 5.56625 4.89587 5.68401 4.89602 5.8029V18.4802H1.80915V1.8145H24.1669V0.00329566H0.905138C0.665087 0.00329566 0.434859 0.0986499 0.265117 0.26838C0.0953746 0.438109 0 0.66832 0 0.908355V30.2481H1.81135L1.81246 20.287Z" fill="#0C4767"/>
<path d="M86.2098 36.2262H53.7755V0.905045C53.7752 0.66491 53.6796 0.434715 53.5097 0.265017C53.3398 0.0953186 53.1095 -1.77698e-07 52.8693 0H29.6075V1.81119H51.9653V37.1291C51.9653 37.248 51.9888 37.3658 52.0343 37.4757C52.0799 37.5856 52.1466 37.6854 52.2308 37.7694C52.315 37.8535 52.4149 37.9201 52.5248 37.9655C52.6348 38.011 52.7526 38.0343 52.8715 38.0341H85.3057V43.0929H82.2189V42.0236C82.219 41.9047 82.1957 41.7869 82.1503 41.6769C82.1049 41.567 82.0382 41.4671 81.9542 41.3829C81.8701 41.2988 81.7703 41.232 81.6604 41.1865C81.5505 41.1409 81.4327 41.1175 81.3138 41.1175H48.8795V5.8029C48.8795 5.68396 48.8561 5.56617 48.8105 5.4563C48.765 5.34642 48.6982 5.24659 48.614 5.16254C48.5299 5.07848 48.43 5.01184 48.32 4.96642C48.2101 4.921 48.0923 4.8977 47.9733 4.89784H29.5844V6.70905H47.0682V36.4467H43.6186V29.1633H41.8073V41.8031H41.3817V43.6144H42.7124C42.9526 43.6144 43.1829 43.519 43.3528 43.3493C43.5227 43.1796 43.6183 42.9494 43.6186 42.7093V38.2535H47.0682V42.0236C47.0682 42.2637 47.1635 42.4939 47.3333 42.6636C47.503 42.8333 47.7333 42.9287 47.9733 42.9287H80.4075V47.6997H82.2189V44.9052H85.3057V63.3965H87.1171V37.1324C87.1172 37.0133 87.0939 36.8953 87.0483 36.7852C87.0027 36.6751 86.9359 36.5751 86.8516 36.4909C86.7673 36.4067 86.6672 36.34 86.5571 36.2946C86.4469 36.2492 86.3289 36.2259 86.2098 36.2262Z" fill="#0C4767"/>
<path d="M33.3405 66.3298H35.1529V52.8676C35.1529 52.7487 35.1294 52.6309 35.0839 52.521C35.0383 52.4111 34.9716 52.3113 34.8874 52.2273C34.8032 52.1432 34.7033 52.0766 34.5934 52.0312C34.4834 51.9857 34.3656 51.9624 34.2467 51.9626H8.49993V48.8759H15.6659V47.0647H6.71065V45.4035H4.89932V47.9764C4.89918 48.0953 4.92248 48.2131 4.9679 48.3231C5.01332 48.433 5.07997 48.5329 5.16403 48.6171C5.2481 48.7012 5.3479 48.768 5.45779 48.8135C5.56767 48.8591 5.68548 48.8825 5.80443 48.8825H6.6864V51.9692H1.81355V35.6827H0.00219794V52.8676C0.00205305 52.9866 0.0253569 53.1044 0.0707784 53.2143C0.1162 53.3242 0.182849 53.4241 0.266911 53.5083C0.350973 53.5925 0.450807 53.6592 0.560693 53.7048C0.670578 53.7503 0.788355 53.7738 0.907309 53.7738H33.3416L33.3405 66.3298Z" fill="#0C4767"/>
<path d="M85.3035 70.6059H82.2167V53.1377H80.4053V74.279H76.9624V66.7355H75.151V78.0304H56.8084V73.5757H58.3606V71.7645H51.575V66.7355H49.7637V68.2138H45.3076V48.1969H60.2282V46.3856H44.4024C44.1623 46.3856 43.932 46.481 43.762 46.6507C43.5921 46.8204 43.4965 47.0506 43.4962 47.2907V51.7465H40.0466V47.9764C40.0466 47.8575 40.0232 47.7398 39.9778 47.63C39.9323 47.5202 39.8656 47.4205 39.7815 47.3364C39.6975 47.2524 39.5977 47.1857 39.4879 47.1402C39.3781 47.0947 39.2604 47.0713 39.1415 47.0713H35.0624V43.622H35.9444V41.8031H35.0624V37.3484H36.4427C36.5617 37.3484 36.6795 37.3249 36.7894 37.2794C36.8992 37.2338 36.9991 37.1671 37.0831 37.0829C37.1672 36.9987 37.2338 36.8989 37.2792 36.7889C37.3247 36.679 37.348 36.5612 37.3478 36.4422V20.3652H41.804V23.7241H43.6153V11.0634C43.6153 10.823 43.5198 10.5925 43.3499 10.4226C43.1799 10.2527 42.9494 10.1572 42.7091 10.1572H11.0576C10.8172 10.1572 10.5868 10.2527 10.4168 10.4226C10.2469 10.5925 10.1514 10.823 10.1514 11.0634V26.4459H11.9627V11.9695H41.804V18.554H37.3478V17.3304C37.348 17.2114 37.3247 17.0936 37.2792 16.9837C37.2338 16.8737 37.1672 16.7738 37.0831 16.6897C36.9991 16.6055 36.8992 16.5388 36.7894 16.4932C36.6795 16.4477 36.5617 16.4242 36.4427 16.4242H17.3295C17.2105 16.4242 17.0926 16.4477 16.9827 16.4932C16.8727 16.5387 16.7728 16.6055 16.6887 16.6896C16.6045 16.7738 16.5377 16.8737 16.4922 16.9836C16.4467 17.0935 16.4233 17.2114 16.4233 17.3304V27.5306H18.2346V18.2354H35.5431V35.5427H25.1249V37.355H33.2577V41.8031H32.3251V43.6143H33.2577V47.0636H21.0976V48.8748H38.2353V75.1808H40.0466V53.5533H43.4962V78.9366C43.4962 79.1769 43.5917 79.4074 43.7617 79.5773C43.9316 79.7473 44.1621 79.8427 44.4024 79.8427H47.0483V78.0304H45.3098V70.0239H49.7659V72.6696C49.7658 72.7885 49.7891 72.9063 49.8345 73.0163C49.8799 73.1262 49.9465 73.2261 50.0306 73.3102C50.1147 73.3944 50.2145 73.4612 50.3244 73.5067C50.4343 73.5523 50.5521 73.5757 50.671 73.5757H54.9992V78.0304H52.4834V79.8427H76.0561C76.2965 79.8427 76.527 79.7473 76.6969 79.5773C76.8669 79.4074 76.9624 79.1769 76.9624 78.9366V76.0869H80.4108V83.2876H40.0466V80.6155H38.2353V84.1938C38.2353 84.3127 38.2588 84.4305 38.3043 84.5404C38.3499 84.6503 38.4166 84.7501 38.5008 84.8341C38.585 84.9182 38.6849 84.9848 38.7948 85.0303C38.9048 85.0757 39.0226 85.099 39.1415 85.0988H81.3148C81.4338 85.099 81.5515 85.0757 81.6614 85.0302C81.7713 84.9848 81.8711 84.9182 81.9552 84.8341C82.0393 84.75 82.1059 84.6502 82.1514 84.5403C82.1968 84.4304 82.2201 84.3127 82.22 84.1938V72.4171H85.3068V88.1811H35.1562V71.7557H33.3437V89.095C33.344 89.3351 33.4396 89.5653 33.6095 89.735C33.7795 89.9047 34.0098 90 34.2499 90H86.2131C86.4531 90 86.6833 89.9046 86.8531 89.7349C87.0228 89.5652 87.1182 89.335 87.1182 89.095V68.8344H85.3068L85.3035 70.6059Z" fill="#0C4767"/>
<path d="M10.1536 31.8817V42.7147C10.1539 42.9549 10.2495 43.1851 10.4194 43.3548C10.5893 43.5245 10.8196 43.6198 11.0598 43.6198H26.8855V41.8031H18.9589V37.3484H19.6865V35.5361H18.2346V32.9609H16.4232V36.4422C16.4245 36.6503 16.4974 36.8517 16.6297 37.0123C16.762 37.1729 16.9457 37.2831 17.1497 37.3241V41.8031H11.9682V31.8817H10.1536Z" fill="#0C4767"/>
<path d="M69.7865 52.6472H50.6688C50.5498 52.6472 50.4321 52.6706 50.3222 52.7161C50.2123 52.7617 50.1124 52.8285 50.0284 52.9126C49.9443 52.9968 49.8777 53.0967 49.8323 53.2066C49.7868 53.3166 49.7635 53.4344 49.7637 53.5533V61.3008H51.575V54.4595H68.8836V71.7667H63.7968V73.5779H69.7887C70.029 73.5779 70.2595 73.4825 70.4295 73.3125C70.5994 73.1426 70.6949 72.9121 70.6949 72.6718V57.1261H75.151V61.3063H76.9624V47.2863C76.9621 47.0462 76.8665 46.816 76.6965 46.6463C76.5266 46.4766 76.2963 46.3813 76.0561 46.3813H65.6655V48.1969H75.1466V55.3138H70.6905V53.5577C70.6911 53.4385 70.6681 53.3204 70.623 53.2101C70.5778 53.0998 70.5114 52.9995 70.4274 52.9149C70.3434 52.8303 70.2436 52.7631 70.1336 52.7172C70.0236 52.6712 69.9057 52.6474 69.7865 52.6472Z" fill="#0C4767"/>
</g>
</svg>
