<svg width="362" height="89" viewBox="0 0 362 89" fill="none" xmlns="http://www.w3.org/2000/svg">
<g id="Memory Logo">
<g id="Mask group">
<mask id="mask0_2_166" style="mask-type:alpha" maskUnits="userSpaceOnUse" x="220" y="15" width="53" height="53">
<path id="o" d="M246.312 67.0023C242.296 67.0023 238.688 66.3434 235.488 65.0257C232.288 63.6452 229.558 61.7628 227.299 59.3784C225.103 56.9939 223.409 54.2644 222.216 51.1897C221.024 48.115 220.428 44.8835 220.428 41.4951C220.428 38.0439 221.024 34.781 222.216 31.7063C223.409 28.6317 225.103 25.9021 227.299 23.5177C229.558 21.1333 232.288 19.2822 235.488 17.9645C238.688 16.584 242.296 15.8938 246.312 15.8938C250.328 15.8938 253.904 16.584 257.042 17.9645C260.242 19.2822 262.972 21.1333 265.23 23.5177C267.489 25.9021 269.184 28.6317 270.313 31.7063C271.505 34.781 272.101 38.0439 272.101 41.4951C272.101 44.8835 271.505 48.115 270.313 51.1897C269.184 54.2644 267.489 56.9939 265.23 59.3784C263.034 61.7628 260.336 63.6452 257.136 65.0257C253.936 66.3434 250.328 67.0023 246.312 67.0023ZM233.417 41.4951C233.417 44.3815 233.982 46.9542 235.111 49.2131C236.241 51.4093 237.778 53.1349 239.723 54.3899C241.668 55.6448 243.865 56.2723 246.312 56.2723C248.696 56.2723 250.861 55.6448 252.806 54.3899C254.751 53.0721 256.289 51.3152 257.418 49.119C258.61 46.8601 259.207 44.2874 259.207 41.401C259.207 38.5773 258.61 36.036 257.418 33.777C256.289 31.5181 254.751 29.7612 252.806 28.5062C250.861 27.2512 248.696 26.6237 246.312 26.6237C243.865 26.6237 241.668 27.2826 239.723 28.6003C237.778 29.8553 236.241 31.6122 235.111 33.8712C233.982 36.0674 233.417 38.6087 233.417 41.4951Z" fill="white"/>
</mask>
<g mask="url(#mask0_2_166)">
<rect id="Rectangle 9" width="24.4161" height="53.4819" transform="matrix(-0.91657 -0.399874 -0.399874 0.91657 282.969 28.2846)" fill="#0C4767"/>
</g>
</g>
<g id="Mem ry">
<path d="M54.4969 67.1382V23.2771L37.3666 55.9376H30.1192L12.9889 23.2771V67.1382H0V0.311218H13.9301L33.6958 38.3367L53.6498 0.311218H67.4858V67.1382H54.4969Z" fill="#0C4767"/>
<path d="M102.259 68.0794C98.3058 68.0794 94.7291 67.4205 91.529 66.1028C88.3288 64.7224 85.5992 62.8713 83.3403 60.5496C81.0814 58.1652 79.3244 55.467 78.0694 52.4551C76.8772 49.3804 76.2811 46.1489 76.2811 42.7605C76.2811 38.0543 77.3165 33.7561 79.3872 29.8657C81.5206 25.9753 84.5325 22.8692 88.4229 20.5475C92.3761 18.1631 97.0194 16.9709 102.353 16.9709C107.749 16.9709 112.361 18.1631 116.189 20.5475C120.017 22.8692 122.934 25.9753 124.942 29.8657C127.013 33.6933 128.048 37.8347 128.048 42.2898C128.048 43.0428 128.017 43.8272 127.954 44.6429C127.892 45.3959 127.829 46.0234 127.766 46.5254H89.6465C89.8975 49.0353 90.6191 51.2315 91.8113 53.1139C93.0663 54.9964 94.635 56.4396 96.5174 57.4436C98.4626 58.3848 100.533 58.8554 102.73 58.8554C105.239 58.8554 107.593 58.2593 109.789 57.0671C112.048 55.8121 113.585 54.1806 114.401 52.1727L125.225 55.1846C124.033 57.6946 122.307 59.9221 120.048 61.8673C117.852 63.8125 115.248 65.3498 112.236 66.4793C109.224 67.546 105.898 68.0794 102.259 68.0794ZM89.3641 38.5249H115.154C114.903 36.015 114.181 33.8502 112.989 32.0305C111.859 30.148 110.353 28.7048 108.471 27.7009C106.589 26.6341 104.486 26.1008 102.165 26.1008C99.9059 26.1008 97.8352 26.6341 95.9527 27.7009C94.133 28.7048 92.627 30.148 91.4348 32.0305C90.3054 33.8502 89.6151 36.015 89.3641 38.5249Z" fill="#0C4767"/>
<path d="M212.348 67.1382H199.735V39.4662C199.735 35.5758 199.045 32.7207 197.665 30.901C196.347 29.0186 194.496 28.0773 192.111 28.0773C189.664 28.0773 187.311 29.0499 185.052 30.9951C182.856 32.8776 181.287 35.3562 180.346 38.4308V67.1382H167.734V39.4662C167.734 35.513 167.043 32.6266 165.663 30.8069C164.345 28.9872 162.494 28.0773 160.11 28.0773C157.662 28.0773 155.309 29.0186 153.05 30.901C150.854 32.7835 149.286 35.262 148.344 38.3367V67.1382H135.732V17.818H147.121V26.9479C149.003 23.7477 151.513 21.3005 154.651 19.6063C157.788 17.8494 161.396 16.9709 165.475 16.9709C169.553 16.9709 172.722 17.9749 174.981 19.9828C177.303 21.9908 178.777 24.4693 179.405 27.4185C181.413 24.0301 183.954 21.4574 187.029 19.7004C190.166 17.8807 193.68 16.9709 197.57 16.9709C200.645 16.9709 203.124 17.5356 205.006 18.6651C206.951 19.7318 208.457 21.2064 209.524 23.0889C210.591 24.9086 211.312 26.9793 211.689 29.3009C212.128 31.6226 212.348 33.9757 212.348 36.3601V67.1382Z" fill="#0C4767"/>
<path d="M310.071 28.7362C306.243 28.7362 302.823 29.4892 299.812 30.9951C296.8 32.4384 294.635 34.5404 293.317 37.3014V67.1382H280.705V17.818H292.282V28.3597C294.039 24.9713 296.266 22.3045 298.964 20.3593C301.663 18.4141 304.518 17.3474 307.53 17.1591C308.22 17.1591 308.753 17.1591 309.13 17.1591C309.506 17.1591 309.82 17.1905 310.071 17.2533V28.7362Z" fill="#0C4767"/>
<path d="M318.139 76.7387C319.268 76.9897 320.304 77.2093 321.245 77.3975C322.249 77.5858 323.096 77.6799 323.786 77.6799C324.978 77.6799 325.951 77.3661 326.704 76.7387C327.52 76.1739 328.304 75.1072 329.057 73.5385C329.81 72.0325 330.594 69.8991 331.41 67.1382L311.927 17.818H325.01L338.281 54.2434L349.952 17.818H362L341.293 76.9269C340.54 79.1231 339.379 81.0997 337.811 82.8566C336.305 84.6763 334.391 86.0882 332.069 87.0921C329.81 88.1589 327.269 88.6922 324.445 88.6922C323.441 88.6922 322.437 88.5981 321.433 88.4099C320.429 88.2844 319.331 88.0334 318.139 87.6569V76.7387Z" fill="#0C4767"/>
</g>
<path id="Vector" d="M252.456 11.6709C250.831 10.9751 249.089 10.5931 247.326 10.5459C245.546 10.4847 243.795 10.9617 242.31 11.9133C241.402 12.5293 240.637 13.3275 240.064 14.2568C239.718 14.1051 239.365 13.971 239.005 13.8549C237.906 13.5075 236.753 13.3634 235.605 13.4299C233.831 13.5364 232.134 14.152 230.721 15.2012C229.279 16.2786 228.216 17.7755 227.679 19.4856C227.463 20.1733 227.332 20.8855 227.29 21.6064C225.715 21.9101 224.235 22.5673 222.966 23.5276C221.353 24.7718 220.08 26.3919 219.257 28.2457C218.412 30.0878 218.032 32.1098 218.15 34.1401C218.253 35.9023 218.803 37.6163 219.749 39.1243C218.739 41.0571 218.331 43.2479 218.575 45.4239C218.822 47.3649 219.681 49.1875 221.032 50.6319C221.834 51.493 222.785 52.2058 223.84 52.7357C223.515 54.4862 223.648 56.2955 224.227 57.9924C224.883 60.2743 226.286 62.2854 228.217 63.7079C228.599 63.9475 229 64.1557 229.417 64.3302C231.055 65.0263 232.862 65.2163 234.599 64.8748C235.717 64.6191 236.766 64.1397 237.684 63.4661C238.601 62.7925 239.367 61.9389 239.934 60.9578C240.335 60.3235 240.681 59.6566 240.969 58.9641L246.976 44.6486L257.864 18.7032C257.864 18.7032 260.482 15.0388 252.456 11.6709ZM242.511 15.8013C242.869 15.1928 243.36 14.6712 243.947 14.273C244.95 13.6469 246.126 13.3379 247.319 13.3868C248.707 13.4311 250.078 13.7382 251.356 14.2914C252.887 14.9072 254.262 15.8529 255.381 17.0588L253.103 22.4875C252.326 21.5308 251.781 20.4129 251.509 19.2206C251.422 18.8537 251.191 18.5339 250.868 18.3314C250.545 18.1289 250.155 18.0602 249.784 18.1402C249.414 18.2217 249.093 18.4452 248.892 18.7619C248.691 19.0786 248.626 19.4626 248.712 19.8299C249.188 21.9321 250.308 23.8461 251.919 25.3102L243.573 45.1988C242.799 43.4532 241.484 41.9907 239.818 41.0252C240.867 39.8569 241.669 38.4929 242.18 37.0114C242.69 35.5299 242.899 33.9597 242.793 32.3908C244.569 32.5249 246.961 32.2635 248.238 30.2097C248.436 29.8911 248.498 29.5062 248.408 29.1393C248.319 28.7725 248.087 28.4536 247.762 28.2527C247.435 28.0544 247.044 27.9906 246.674 28.0752C246.303 28.1598 245.983 28.3859 245.783 28.7044C245.064 29.8628 243.206 29.6773 242.161 29.4682C241.302 27.1456 239.986 25.009 238.29 23.1825C238.037 22.8976 237.681 22.722 237.3 22.6944C236.919 22.6668 236.545 22.7894 236.259 23.0353C235.977 23.2818 235.806 23.6298 235.783 24.0036C235.761 24.3774 235.889 24.7467 236.139 25.0311C243 32.7833 238.624 38.2485 237.009 39.8295C235.518 39.4799 233.967 39.5065 232.499 39.9067C231.416 38.739 229.116 35.9399 228.466 32.8317C228.43 32.6488 228.357 32.4745 228.253 32.3186C228.148 32.1626 228.013 32.0282 227.857 31.9231C227.7 31.8179 227.525 31.7441 227.34 31.7057C227.155 31.6674 226.965 31.6653 226.78 31.6997C226.406 31.7691 226.077 31.9827 225.866 32.2935C225.654 32.6044 225.578 32.9871 225.653 33.3575C226.375 36.1816 227.767 38.8033 229.713 41.0046C228.943 41.4221 228.219 41.918 227.554 42.4842C227.414 42.6089 227.301 42.76 227.221 42.9287C227.142 43.0974 227.096 43.2805 227.089 43.4674C227.081 43.6542 227.111 43.8413 227.176 44.0177C227.242 44.1941 227.342 44.3565 227.471 44.4954C227.731 44.7753 228.093 44.943 228.475 44.9619C228.858 44.9808 229.23 44.8493 229.511 44.5962C230.371 43.8615 231.355 43.2804 232.419 42.8787C232.538 42.8574 232.652 42.8198 232.76 42.767C233.553 42.4831 234.398 42.3612 235.244 42.4084C236.09 42.4556 236.92 42.6711 237.684 43.0418C239.228 43.7311 240.442 44.9911 241.062 46.5479C241.634 48.194 241.576 49.9826 240.898 51.5733L238.296 57.7745C238.07 58.3221 237.799 58.8502 237.486 59.3536C237.117 60.0134 236.614 60.59 236.009 61.0484C235.403 61.5067 234.708 61.837 233.965 62.0191C232.806 62.2445 231.6 62.112 230.511 61.6395C230.24 61.5271 229.978 61.3944 229.727 61.2425C228.381 60.1894 227.413 58.7372 226.968 57.1049C226.592 55.9775 226.472 54.7848 226.618 53.6129C229.408 54.1415 232.285 53.8238 234.867 52.7016C235.042 52.633 235.201 52.5305 235.335 52.4002C235.469 52.2699 235.575 52.1143 235.647 51.9424C235.719 51.7705 235.756 51.5858 235.755 51.3989C235.754 51.2119 235.716 51.0266 235.642 50.8535C235.57 50.6808 235.464 50.5234 235.331 50.3903C235.198 50.2573 235.04 50.1512 234.865 50.0781C234.691 50.005 234.505 49.9664 234.316 49.9646C234.128 49.9627 233.942 49.9975 233.768 50.0671C231.655 51.006 229.286 51.2573 227.001 50.7849L226.891 50.7387C225.477 50.4057 224.189 49.6675 223.191 48.6173C222.255 47.6169 221.659 46.3536 221.49 45.0083C221.299 43.1731 221.719 41.3342 222.685 39.7704C222.854 39.5245 222.94 39.2307 222.928 38.9315C222.917 38.6324 222.81 38.3432 222.623 38.1057C221.691 36.8897 221.15 35.4285 221.071 33.9141C220.981 32.3424 221.279 30.7775 221.939 29.3539C222.572 27.9253 223.555 26.6784 224.802 25.7242C225.622 25.1009 226.564 24.6499 227.571 24.3986C228.671 29.8524 233.105 33.3346 233.116 33.348C233.263 33.4669 233.432 33.5561 233.614 33.6105C233.795 33.665 233.985 33.6835 234.173 33.6652C234.36 33.6469 234.542 33.592 234.707 33.5038C234.873 33.4155 235.018 33.2956 235.135 33.1509C235.254 33.0072 235.342 32.8414 235.395 32.663C235.448 32.4846 235.464 32.2972 235.443 32.1117C235.422 31.9261 235.364 31.746 235.273 31.5817C235.181 31.4174 235.058 31.2722 234.91 31.1545C234.91 31.1545 230.77 27.8977 230.256 23.004C230.267 22.9069 230.271 22.809 230.267 22.7112C230.26 22.6087 230.241 22.5072 230.213 22.4082C230.186 21.6881 230.28 20.9702 230.49 20.2834C230.865 19.1324 231.589 18.1267 232.564 17.401C233.531 16.6851 234.692 16.2664 235.905 16.1963C236.695 16.1519 237.488 16.2516 238.245 16.4905C239.363 16.794 240.372 17.4108 241.149 18.2658C241.926 19.1209 242.437 20.1774 242.621 21.3067C242.666 21.6809 242.859 22.0244 243.157 22.2624C243.455 22.5004 243.835 22.6138 244.214 22.578C244.402 22.5601 244.584 22.5057 244.75 22.418C244.916 22.3302 245.062 22.2107 245.181 22.0663C245.299 21.922 245.387 21.7556 245.44 21.5768C245.493 21.3979 245.509 21.2101 245.488 21.0241C245.172 18.9914 244.15 17.1219 242.598 15.7362L242.511 15.8013Z" fill="#0C4767"/>
</g>
</svg>
